<svg width="40" height="12" viewBox="0 0 40 12" fill="none" xmlns="http://www.w3.org/2000/svg">
<path fill-rule="evenodd" clip-rule="evenodd" d="M30 1.73205C30 0.96225 30.8333 0.481126 31.5 0.866026L38.5 4.90748C39.1667 5.29238 39.1667 6.25463 38.5 6.63953L31.5 10.681C30.8333 11.0659 30 10.5848 30 9.81495V1.73205ZM26.7 5.7735C26.7 6.32579 26.2523 6.7735 25.7 6.7735L23.9 6.7735C23.3477 6.7735 22.9 6.32579 22.9 5.7735C22.9 5.22122 23.3477 4.7735 23.9 4.7735L25.7 4.7735C26.2523 4.7735 26.7 5.22122 26.7 5.7735ZM19.1 5.7735C19.1 6.32579 18.6523 6.7735 18.1 6.7735H16.3C15.7477 6.7735 15.3 6.32579 15.3 5.7735C15.3 5.22122 15.7477 4.7735 16.3 4.7735H18.1C18.6523 4.7735 19.1 5.22122 19.1 5.7735ZM11.5 5.7735C11.5 6.32579 11.0523 6.7735 10.5 6.7735L8.7 6.7735C8.14772 6.7735 7.7 6.32579 7.7 5.7735C7.7 5.22122 8.14771 4.7735 8.7 4.7735L10.5 4.7735C11.0523 4.7735 11.5 5.22122 11.5 5.7735ZM3.9 6.7735H2V4.7735H3.9L3.9 6.7735Z" fill="#FFBB00"/>
<circle cx="3" cy="5.77344" r="3" fill="#FFBB00"/>
</svg>
