<svg width="40" height="12" viewBox="0 0 40 12" fill="none" xmlns="http://www.w3.org/2000/svg">
<path fill-rule="evenodd" clip-rule="evenodd" d="M10 9.81482C10 10.5846 9.16667 11.0657 8.5 10.6808L1.5 6.63939C0.833333 6.25449 0.833336 5.29224 1.5 4.90734L8.5 0.865893C9.16667 0.480992 10 0.962119 10 1.73192L10 9.81482ZM13.3 5.77337C13.3 5.22109 13.7477 4.77337 14.3 4.77337L16.1 4.77337C16.6523 4.77337 17.1 5.22109 17.1 5.77337C17.1 6.32565 16.6523 6.77337 16.1 6.77337L14.3 6.77337C13.7477 6.77337 13.3 6.32565 13.3 5.77337ZM20.9 5.77337C20.9 5.22109 21.3477 4.77337 21.9 4.77337L23.7 4.77337C24.2523 4.77337 24.7 5.22109 24.7 5.77337C24.7 6.32566 24.2523 6.77337 23.7 6.77337L21.9 6.77337C21.3477 6.77337 20.9 6.32565 20.9 5.77337ZM28.5 5.77337C28.5 5.22109 28.9477 4.77337 29.5 4.77337L31.3 4.77337C31.8523 4.77337 32.3 5.22109 32.3 5.77337C32.3 6.32566 31.8523 6.77337 31.3 6.77337L29.5 6.77337C28.9477 6.77337 28.5 6.32566 28.5 5.77337ZM36.1 4.77337L38 4.77337L38 6.77337L36.1 6.77337L36.1 4.77337Z" fill="#FFBB00"/>
<circle cx="37" cy="5.77344" r="3" transform="rotate(-180 37 5.77344)" fill="#FFBB00"/>
</svg>
