<svg width="12" height="41" viewBox="0 0 12 41" fill="none" xmlns="http://www.w3.org/2000/svg">
<path fill-rule="evenodd" clip-rule="evenodd" d="M9.81482 30.7734C10.5846 30.7734 11.0657 31.6068 10.6808 32.2734L6.6394 39.2734C6.2545 39.9401 5.29225 39.9401 4.90735 39.2734L0.865894 32.2734C0.480993 31.6068 0.96212 30.7734 1.73192 30.7734L9.81482 30.7734ZM5.77337 27.4734C5.22109 27.4734 4.77337 27.0257 4.77337 26.4734L4.77337 24.6734C4.77337 24.1212 5.22109 23.6734 5.77337 23.6734C6.32566 23.6734 6.77337 24.1212 6.77337 24.6734L6.77337 26.4734C6.77337 27.0257 6.32566 27.4734 5.77337 27.4734ZM5.77337 19.8734C5.22109 19.8734 4.77337 19.4257 4.77337 18.8734L4.77337 17.0734C4.77337 16.5212 5.22109 16.0734 5.77337 16.0734C6.32566 16.0734 6.77337 16.5212 6.77337 17.0734L6.77337 18.8734C6.77337 19.4257 6.32566 19.8734 5.77337 19.8734ZM5.77337 12.2734C5.22109 12.2734 4.77337 11.8257 4.77337 11.2734L4.77337 9.47344C4.77337 8.92115 5.22109 8.47344 5.77337 8.47344C6.32566 8.47344 6.77337 8.92115 6.77337 9.47344L6.77337 11.2734C6.77337 11.8257 6.32566 12.2734 5.77337 12.2734ZM4.77337 4.67344L4.77337 2.77344L6.77337 2.77344L6.77337 4.67344L4.77337 4.67344Z" fill="#FFBB00"/>
<circle cx="5.77344" cy="3.77344" r="3" transform="rotate(90 5.77344 3.77344)" fill="#FFBB00"/>
</svg>
