<svg width="18" height="18" viewBox="0 0 18 18" fill="none" xmlns="http://www.w3.org/2000/svg">
<path d="M8.99999 0.666656C4.40749 0.666656 0.666656 4.40749 0.666656 8.99999C0.666656 13.5925 4.40749 17.3333 8.99999 17.3333C13.5925 17.3333 17.3333 13.5925 17.3333 8.99999C17.3333 4.40749 13.5925 0.666656 8.99999 0.666656ZM8.99999 2.33332C12.6918 2.33332 15.6667 5.30822 15.6667 8.99999C15.6667 12.3454 13.2211 15.0942 10.0156 15.582V10.9873H11.9557L12.2601 9.01627H10.0156V7.93879C10.0156 7.11963 10.2825 6.39257 11.0491 6.39257H12.2796V4.67219C12.0629 4.64302 11.6057 4.57942 10.7415 4.57942C8.93653 4.57942 7.87857 5.53275 7.87857 7.70442V9.01627H6.0231V10.9873H7.87857V15.5657C4.72523 15.034 2.33332 12.3085 2.33332 8.99999C2.33332 5.30822 5.30822 2.33332 8.99999 2.33332Z" fill="#BCBCBC"/>
</svg>
