<svg style="display: none;" aria-hidden="true" xmlns="http://www.w3.org/2000/svg" xmlns:xlink="http://www.w3.org/1999/xlink"><symbol viewBox="0 0 18 18" fill="none" id="svg-call"><path clip-rule="evenodd" d="M8.60979 9.39367C11.934 12.717 12.6882 8.87227 14.8047 10.9874C16.8452 13.0273 18.018 13.436 15.4327 16.0206C15.1089 16.2809 13.0514 19.4119 5.82051 12.1831C-1.41122 4.95334 1.718 2.89371 1.97832 2.56997C4.5699 -0.021785 4.97156 1.15783 7.01209 3.19778C9.12865 5.31376 5.28556 6.07036 8.60979 9.39367Z" stroke="#FB0" stroke-width="1.5" stroke-linecap="round" stroke-linejoin="round"/></symbol><symbol viewBox="0 0 18 18" fill="none" id="svg-facebook"><path d="M9.00008 0.666504C4.40758 0.666504 0.666748 4.40733 0.666748 8.99984C0.666748 13.5923 4.40758 17.3332 9.00008 17.3332C13.5926 17.3332 17.3334 13.5923 17.3334 8.99984C17.3334 4.40733 13.5926 0.666504 9.00008 0.666504ZM9.00008 2.33317C12.6919 2.33317 15.6667 5.30807 15.6667 8.99984C15.6667 12.3452 13.2212 15.094 10.0157 15.5819V10.9871H11.9558L12.2602 9.01611H10.0157V7.93864C10.0157 7.11947 10.2826 6.39242 11.0492 6.39242H12.2797V4.67204C12.063 4.64287 11.6058 4.57926 10.7416 4.57926C8.93662 4.57926 7.87866 5.5326 7.87866 7.70426V9.01611H6.02319V10.9871H7.87866V15.5656C4.72532 15.0339 2.33341 12.3084 2.33341 8.99984C2.33341 5.30807 5.30831 2.33317 9.00008 2.33317Z" fill="#BCBCBC"/></symbol><symbol viewBox="0 0 38 28" fill="none" id="svg-gb"><g clip-path="url(#cclip0_17_37)"><path d="M0 0H37.3333V28H0V0Z" fill="#012169"/><path d="M4.375 0L18.6083 10.5583L32.7833 0H37.3333V3.61667L23.3333 14.0583L37.3333 24.4417V28H32.6667L18.6667 17.5583L4.725 28H0V24.5L13.9417 14.1167L0 3.73333V0H4.375Z" fill="#fff"/><path d="M24.7333 16.3917L37.3333 25.6667V28L21.525 16.3917H24.7333ZM14 17.5583L14.35 19.6L3.15 28H0L14 17.5583ZM37.3333 0V0.175L22.8083 11.1417L22.925 8.575L34.4167 0H37.3333ZM0 0L13.9417 10.2667H10.4417L0 2.45V0Z" fill="#C8102E"/><path d="M14.0583 0V28H23.3917V0H14.0583ZM0 9.33333V18.6667H37.3333V9.33333H0Z" fill="#fff"/><path d="M0 11.2583V16.8583H37.3333V11.2583H0ZM15.925 0V28H21.525V0H15.925Z" fill="#C8102E"/></g><defs><clipPath id="cclip0_17_37"><rect width="37.333" height="28" rx="3" fill="#fff"/></clipPath></defs></symbol><symbol viewBox="0 0 18 18" fill="none" id="svg-instagram"><path d="M5 0C2.243 0 0 2.243 0 5V13C0 15.757 2.243 18 5 18H13C15.757 18 18 15.757 18 13V5C18 2.243 15.757 0 13 0H5ZM5 2H13C14.654 2 16 3.346 16 5V13C16 14.654 14.654 16 13 16H5C3.346 16 2 14.654 2 13V5C2 3.346 3.346 2 5 2ZM14 3C13.7348 3 13.4804 3.10536 13.2929 3.29289C13.1054 3.48043 13 3.73478 13 4C13 4.26522 13.1054 4.51957 13.2929 4.70711C13.4804 4.89464 13.7348 5 14 5C14.2652 5 14.5196 4.89464 14.7071 4.70711C14.8946 4.51957 15 4.26522 15 4C15 3.73478 14.8946 3.48043 14.7071 3.29289C14.5196 3.10536 14.2652 3 14 3ZM9 4C6.243 4 4 6.243 4 9C4 11.757 6.243 14 9 14C11.757 14 14 11.757 14 9C14 6.243 11.757 4 9 4ZM9 6C10.654 6 12 7.346 12 9C12 10.654 10.654 12 9 12C7.346 12 6 10.654 6 9C6 7.346 7.346 6 9 6Z" fill="#BCBCBC"/></symbol><symbol viewBox="0 0 18 18" fill="none" id="svg-linkedin"><path d="M16.2808 1H2.38923C1.62533 1 1 1.62533 1 2.38923V16.281C1 17.0445 1.62533 17.67 2.38923 17.67H16.2808C17.0447 17.67 17.67 17.0445 17.67 16.281V2.38923C17.67 1.62533 17.0447 1 16.2808 1ZM16.2808 15.781C16.2808 16.0571 16.0569 16.281 15.7808 16.281H2.88923C2.61309 16.281 2.38923 16.0571 2.38923 15.781V2.88924C2.38923 2.61309 2.61309 2.38923 2.88923 2.38923H15.7808C16.0569 2.38923 16.2808 2.61309 16.2808 2.88923V15.781Z" fill="#BCBCBC" stroke="#BCBCBC" stroke-width=".2"/><path d="M6.55574 7.94429H5.1665V13.501H6.55574V7.94429zM5.8639 7.25129C6.43931 7.25129 6.90577 6.78482 6.90577 6.20941 6.90577 5.634 6.43931 5.16754 5.8639 5.16754 5.28848 5.16754 4.82202 5.634 4.82202 6.20941 4.82202 6.78482 5.28848 7.25129 5.8639 7.25129zM10.7267 7.94374C10.2181 7.94374 9.74715 8.09066 9.33748 8.32903V8.00145H7.94824V13.5005H9.33748V10.722C9.33748 9.95476 9.95947 9.33298 10.7267 9.33298 11.494 9.33298 12.1157 9.95476 12.1157 10.722V13.5005H13.505V10.722C13.505 9.18772 12.261 7.94374 10.7267 7.94374z" fill="#BCBCBC" stroke="#BCBCBC" stroke-width=".2"/></symbol><symbol viewBox="0 0 20 18" fill="none" id="svg-mail"><path d="M14.9188 6.37598L11.2161 9.38684C10.5165 9.94184 9.53223 9.94184 8.83265 9.38684L5.09866 6.37598" stroke="#FB0" stroke-width="1.5" stroke-linecap="round" stroke-linejoin="round"/><path clip-rule="evenodd" d="M14.0907 16.5C16.6252 16.507 18.3333 14.4246 18.3333 11.8653V6.14168C18.3333 3.58235 16.6252 1.5 14.0907 1.5H5.90927C3.37481 1.5 1.66666 3.58235 1.66666 6.14168V11.8653C1.66666 14.4246 3.37481 16.507 5.90927 16.5H14.0907Z" stroke="#FB0" stroke-width="1.5" stroke-linecap="round" stroke-linejoin="round"/></symbol><symbol viewBox="0 0 24 24" fill="none" id="svg-menu-icon"><path clip-rule="evenodd" d="M3 6.5C3 3.87479 3.02811 3 6.5 3 9.97189 3 10 3.87479 10 6.5 10 9.12521 10.0111 10 6.5 10 2.98893 10 3 9.12521 3 6.5zM14 6.5C14 3.87479 14.0281 3 17.5 3 20.9719 3 21 3.87479 21 6.5 21 9.12521 21.0111 10 17.5 10 13.9889 10 14 9.12521 14 6.5zM3 17.5C3 14.8748 3.02811 14 6.5 14 9.97189 14 10 14.8748 10 17.5 10 20.1252 10.0111 21 6.5 21 2.98893 21 3 20.1252 3 17.5zM14 17.5C14 14.8748 14.0281 14 17.5 14 20.9719 14 21 14.8748 21 17.5 21 20.1252 21.0111 21 17.5 21 13.9889 21 14 20.1252 14 17.5z" stroke="#FB0" stroke-width="1.5" stroke-linecap="round" stroke-linejoin="round"/></symbol><symbol viewBox="0 0 24 24" fill="none" id="svg-play"><path fill-rule="evenodd" clip-rule="evenodd" d="M20.9165 3.71119C22.0805 4.68673 22.75 6.09636 22.75 7.78313L22.75 16.2178C22.75 17.9046 22.0805 19.3141 20.9164 20.2894C19.7655 21.2536 18.186 21.75 16.4151 21.75L7.58487 21.75C5.81309 21.75 4.23368 21.2506 3.08321 20.2854C1.91986 19.3093 1.25 17.9003 1.25 16.2178L1.25 7.78313C1.25 6.09636 1.91945 4.68673 3.08354 3.71119C4.23442 2.74672 5.81395 2.25 7.58487 2.25L16.4151 2.25C18.1861 2.25 19.7656 2.74672 20.9165 3.71119ZM19.953 4.86086C19.1296 4.17079 17.9167 3.75 16.4151 3.75L7.58487 3.75C6.08335 3.75 4.87045 4.17079 4.047 4.86086C3.23677 5.53986 2.75 6.5218 2.75 7.78313L2.75 16.2178C2.75 17.4737 3.23636 18.4558 4.04733 19.1363C4.87118 19.8275 6.08421 20.25 7.58487 20.25L16.4151 20.25C17.9167 20.25 19.1297 19.8294 19.9531 19.1396C20.7633 18.4608 21.25 17.4792 21.25 16.2178L21.25 7.78313C21.25 6.5218 20.7632 5.53986 19.953 4.86086Z" fill="#FB0"/><path fill-rule="evenodd" clip-rule="evenodd" d="M9.6998 16.75C9.28559 16.75 8.9498 16.4142 8.9498 16L8.9498 8.5C8.9498 8.08579 9.28559 7.75 9.6998 7.75C10.114 7.75 10.4498 8.08579 10.4498 8.5L10.4498 16C10.4498 16.4142 10.114 16.75 9.6998 16.75Z" fill="#FB0"/><path fill-rule="evenodd" clip-rule="evenodd" d="M9.06575 16.4006C8.84451 16.0504 8.94903 15.5872 9.29921 15.3659L13.9399 12.434L9.26529 9.1113C8.92768 8.87133 8.84852 8.4031 9.08849 8.06548C9.32847 7.72787 9.7967 7.64871 10.1343 7.88869L15.7206 11.8593C15.9244 12.0042 16.0426 12.2411 16.0358 12.4911C16.029 12.741 15.8981 12.9712 15.6867 13.1047L10.1004 16.6341C9.75021 16.8553 9.28699 16.7508 9.06575 16.4006Z" fill="#FB0"/></symbol><symbol viewBox="0 0 18 18" fill="none" id="svg-send"><path d="M12.1937 5.81219L7.4242 10.6327L1.99953 7.23973C1.22229 6.75345 1.38397 5.57286 2.2631 5.31577L15.1427 1.54397C15.9477 1.30802 16.6938 2.06069 16.4546 2.86833L12.6442 15.739C12.3832 16.6193 11.2093 16.7766 10.7277 15.996L7.42167 10.6335" stroke="#FB0" stroke-width="1.5" stroke-linecap="round" stroke-linejoin="round"/></symbol><symbol viewBox="0 0 38 28" fill="none" id="svg-ua"><g clip-path="url(#jclip0_17_23)" fill-rule="evenodd" clip-rule="evenodd"><path d="M0 0H37.3333V28H0V0Z" fill="gold"/><path d="M0 0H37.3333V14H0V0Z" fill="#0057B8"/></g><defs><clipPath id="jclip0_17_23"><rect width="37.333" height="28" rx="3" fill="#fff"/></clipPath></defs></symbol></svg>