<svg width="18" height="18" viewBox="0 0 18 18" fill="none" xmlns="http://www.w3.org/2000/svg">
<path d="M16.2808 1H2.38923C1.62533 1 1 1.62533 1 2.38923V16.281C1 17.0445 1.62533 17.67 2.38923 17.67H16.2808C17.0447 17.67 17.67 17.0445 17.67 16.281V2.38923C17.67 1.62533 17.0447 1 16.2808 1ZM16.2808 15.781C16.2808 16.0571 16.0569 16.281 15.7808 16.281H2.88923C2.61309 16.281 2.38923 16.0571 2.38923 15.781V2.88924C2.38923 2.61309 2.61309 2.38923 2.88923 2.38923H15.7808C16.0569 2.38923 16.2808 2.61309 16.2808 2.88923V15.781Z" fill="#BCBCBC"/>
<path fill-rule="evenodd" clip-rule="evenodd" d="M0.899994 2.38923C0.899994 1.57009 1.57009 0.899994 2.38923 0.899994H16.2808C17.0999 0.899994 17.77 1.57009 17.77 2.38923V16.281C17.77 17.0997 17.0999 17.77 16.2808 17.77H2.38923C1.57009 17.77 0.899994 17.0997 0.899994 16.281V2.38923ZM2.38923 1.09999C1.68055 1.09999 1.09999 1.68055 1.09999 2.38923V16.281C1.09999 16.9892 1.68055 17.57 2.38923 17.57H16.2808C16.9894 17.57 17.57 16.9892 17.57 16.281V2.38923C17.57 1.68055 16.9894 1.09999 16.2808 1.09999H2.38923ZM2.88923 2.48923C2.66831 2.48923 2.48923 2.66832 2.48923 2.88923V15.781C2.48923 16.0019 2.66831 16.181 2.88923 16.181H15.7808C16.0017 16.181 16.1808 16.0019 16.1808 15.781V2.88923C16.1808 2.66831 16.0017 2.48923 15.7808 2.48923H2.88923ZM2.28923 2.88923C2.28923 2.55786 2.55786 2.28923 2.88923 2.28923H15.7808C16.1121 2.28923 16.3808 2.55786 16.3808 2.88923V15.781C16.3808 16.1123 16.1121 16.381 15.7808 16.381H2.88923C2.55786 16.381 2.28923 16.1123 2.28923 15.781V2.88923Z" fill="#BCBCBC"/>
<path d="M6.5558 7.94431H5.16656V13.501H6.5558V7.94431Z" fill="#BCBCBC"/>
<path fill-rule="evenodd" clip-rule="evenodd" d="M5.06656 7.8443H6.65579V13.601H5.06656V7.8443ZM5.26656 8.0443V13.401H6.45579V8.0443H5.26656Z" fill="#BCBCBC"/>
<path d="M5.86399 7.25129C6.4394 7.25129 6.90586 6.78483 6.90586 6.20942C6.90586 5.634 6.4394 5.16754 5.86399 5.16754C5.28858 5.16754 4.82211 5.634 4.82211 6.20942C4.82211 6.78483 5.28858 7.25129 5.86399 7.25129Z" fill="#BCBCBC"/>
<path fill-rule="evenodd" clip-rule="evenodd" d="M5.86398 5.26754C5.3438 5.26754 4.92211 5.68923 4.92211 6.20941C4.92211 6.72959 5.3438 7.15129 5.86398 7.15129C6.38416 7.15129 6.80586 6.72959 6.80586 6.20941C6.80586 5.68923 6.38416 5.26754 5.86398 5.26754ZM4.72211 6.20941C4.72211 5.57877 5.23334 5.06754 5.86398 5.06754C6.49462 5.06754 7.00586 5.57877 7.00586 6.20941C7.00586 6.84005 6.49462 7.35129 5.86398 7.35129C5.23334 7.35129 4.72211 6.84005 4.72211 6.20941Z" fill="#BCBCBC"/>
<path d="M10.7266 7.94376C10.218 7.94376 9.74704 8.09068 9.33737 8.32905V8.00147H7.94814V13.5005H9.33737V10.722C9.33737 9.95478 9.95936 9.33299 10.7266 9.33299C11.4938 9.33299 12.1156 9.95478 12.1156 10.722V13.5005H13.5049V10.722C13.5049 9.18774 12.2609 7.94376 10.7266 7.94376Z" fill="#BCBCBC"/>
<path fill-rule="evenodd" clip-rule="evenodd" d="M9.43736 8.16056C9.82429 7.96297 10.2597 7.84375 10.7266 7.84375C12.3161 7.84375 13.6049 9.1325 13.6049 10.722V13.6005H12.0156V10.722C12.0156 10.01 11.4386 9.43298 10.7266 9.43298C10.0146 9.43298 9.43736 10.01 9.43736 10.722V13.6005H7.84813V7.90146H9.43736V8.16056ZM10.7266 8.04375C10.2377 8.04375 9.78392 8.18491 9.38766 8.41547L9.23736 8.50292V8.10146H8.04813V13.4005H9.23736V10.722C9.23736 9.89952 9.90415 9.23298 10.7266 9.23298C11.5491 9.23298 12.2156 9.89954 12.2156 10.722V13.4005H13.4049V10.722C13.4049 9.24296 12.2057 8.04375 10.7266 8.04375Z" fill="#BCBCBC"/>
</svg>
