<svg width="25" height="31" viewBox="0 0 25 31" fill="none" xmlns="http://www.w3.org/2000/svg">
<path fill-rule="evenodd" clip-rule="evenodd" d="M0.104004 13.0468C0.104004 6.33867 5.70966 0.916748 12.4903 0.916748C19.29 0.916748 24.8957 6.33867 24.8957 13.0468C24.8957 16.4271 23.6663 19.5654 21.6429 22.2253C19.4106 25.1594 16.6592 27.7158 13.5623 29.7224C12.8535 30.1861 12.2138 30.2211 11.4359 29.7224C8.32133 27.7158 5.56996 25.1594 3.35682 22.2253C1.3319 19.5654 0.104004 16.4271 0.104004 13.0468ZM8.40809 13.4245C8.40809 15.6717 10.2418 17.4392 12.4903 17.4392C14.7402 17.4392 16.5916 15.6717 16.5916 13.4245C16.5916 11.1948 14.7402 9.34129 12.4903 9.34129C10.2418 9.34129 8.40809 11.1948 8.40809 13.4245Z" fill="#FFBB00"/>
</svg>
