<svg width="20" height="18" viewBox="0 0 20 18" fill="none" xmlns="http://www.w3.org/2000/svg">
<path fill-rule="evenodd" clip-rule="evenodd" d="M4.51485 5.90517C4.77485 5.58272 5.24702 5.5321 5.56946 5.7921L9.30086 8.80088C9.72626 9.13684 10.3212 9.13712 10.7469 8.80171L14.4457 5.79404C14.7671 5.53271 15.2394 5.5814 15.5007 5.90277C15.7621 6.22415 15.7134 6.69652 15.392 6.95784L11.6823 9.97441C10.7097 10.746 9.33914 10.746 8.36655 9.97436L8.36189 9.97067L4.62791 6.95978C4.30547 6.69978 4.25485 6.22761 4.51485 5.90517Z" fill="#FFBB00"/>
<path fill-rule="evenodd" clip-rule="evenodd" d="M0.916656 6.14168C0.916656 3.25688 2.8771 0.75 5.90927 0.75H14.0907C17.1229 0.75 19.0833 3.25688 19.0833 6.14168V11.8653C19.0833 14.7492 17.1233 17.2578 14.0897 17.25C14.0893 17.25 14.089 17.25 14.0886 17.25L14.0907 16.5V17.25H14.0897H5.91027C5.91063 17.25 5.91099 17.25 5.91135 17.25L5.90927 16.5V17.25H5.91027M5.90927 2.25C3.87252 2.25 2.41666 3.90783 2.41666 6.14168V11.8653C2.41666 14.0998 3.87252 15.7556 5.90719 15.75L5.90927 15.75L14.0907 15.75L14.0928 15.75C16.1275 15.7556 17.5833 14.0998 17.5833 11.8653V6.14168C17.5833 3.90783 16.1275 2.25 14.0907 2.25H5.90927Z" fill="#FFBB00"/>
</svg>
