<svg width="24" height="24" viewBox="0 0 24 24" fill="none" xmlns="http://www.w3.org/2000/svg">
<path fill-rule="evenodd" clip-rule="evenodd" d="M20.9165 3.71119C22.0805 4.68673 22.75 6.09636 22.75 7.78313L22.75 16.2178C22.75 17.9046 22.0805 19.3141 20.9164 20.2894C19.7655 21.2536 18.186 21.75 16.4151 21.75L7.58487 21.75C5.81309 21.75 4.23368 21.2506 3.08321 20.2854C1.91986 19.3093 1.25 17.9003 1.25 16.2178L1.25 7.78313C1.25 6.09636 1.91945 4.68673 3.08354 3.71119C4.23442 2.74672 5.81395 2.25 7.58487 2.25L16.4151 2.25C18.1861 2.25 19.7656 2.74672 20.9165 3.71119ZM19.953 4.86086C19.1296 4.17079 17.9167 3.75 16.4151 3.75L7.58487 3.75C6.08335 3.75 4.87045 4.17079 4.047 4.86086C3.23677 5.53986 2.75 6.5218 2.75 7.78313L2.75 16.2178C2.75 17.4737 3.23636 18.4558 4.04733 19.1363C4.87118 19.8275 6.08421 20.25 7.58487 20.25L16.4151 20.25C17.9167 20.25 19.1297 19.8294 19.9531 19.1396C20.7633 18.4608 21.25 17.4792 21.25 16.2178L21.25 7.78313C21.25 6.5218 20.7632 5.53986 19.953 4.86086Z" fill="#FFBB00"/>
<path fill-rule="evenodd" clip-rule="evenodd" d="M9.6998 16.75C9.28559 16.75 8.9498 16.4142 8.9498 16L8.9498 8.5C8.9498 8.08579 9.28559 7.75 9.6998 7.75C10.114 7.75 10.4498 8.08579 10.4498 8.5L10.4498 16C10.4498 16.4142 10.114 16.75 9.6998 16.75Z" fill="#FFBB00"/>
<path fill-rule="evenodd" clip-rule="evenodd" d="M9.06575 16.4006C8.84451 16.0504 8.94903 15.5872 9.29921 15.3659L13.9399 12.434L9.26529 9.1113C8.92768 8.87133 8.84852 8.4031 9.08849 8.06548C9.32847 7.72787 9.7967 7.64871 10.1343 7.88869L15.7206 11.8593C15.9244 12.0042 16.0426 12.2411 16.0358 12.4911C16.029 12.741 15.8981 12.9712 15.6867 13.1047L10.1004 16.6341C9.75021 16.8553 9.28699 16.7508 9.06575 16.4006Z" fill="#FFBB00"/>
</svg>
