<svg width="331" height="316" viewBox="0 0 331 316" fill="none" xmlns="http://www.w3.org/2000/svg">
<g style="mix-blend-mode:multiply">
<path d="M128.755 19.3885C129.117 18.3963 129.755 17.5561 130.67 16.8679C131.608 16.1878 132.524 15.7046 133.421 15.4182C134.325 15.1093 135.206 14.6896 136.064 14.1592C136.944 13.637 137.519 13.0038 137.791 12.2597C138.078 11.4705 138.03 10.763 137.645 10.1374C137.26 9.51168 136.582 9.02213 135.613 8.66872C133.719 7.97834 132.011 8.49274 130.49 10.2119L127.338 6.45721C128.622 5.03516 130.162 4.14027 131.956 3.77254C133.781 3.39048 135.607 3.53232 137.434 4.19804C139.486 4.94596 141.038 6.18868 142.091 7.92622C143.174 9.64942 143.338 11.5483 142.582 13.6228C142.236 14.5698 141.713 15.3752 141.011 16.0391C140.332 16.7111 139.604 17.2375 138.826 17.6183C138.08 17.9848 137.33 18.3246 136.577 18.6378C135.855 18.9366 135.193 19.2826 134.589 19.6758C134.009 20.0773 133.62 20.5486 133.423 21.0898L128.755 19.3885ZM130.369 28.5214C129.6 28.8797 128.821 28.915 128.031 28.6273C127.242 28.3396 126.668 27.8112 126.31 27.042C125.952 26.2728 125.917 25.4936 126.204 24.7044C126.492 23.9152 127.02 23.3415 127.79 22.9832C128.559 22.625 129.338 22.5897 130.127 22.8773C130.916 23.165 131.49 23.6934 131.848 24.4626C132.207 25.2318 132.242 26.011 131.954 26.8002C131.667 27.5894 131.138 28.1632 130.369 28.5214Z" fill="#6F4D0B" fill-opacity="0.5"/>
</g>
<g style="mix-blend-mode:multiply">
<path d="M89.1181 55.3266C88.1343 52.567 88.0105 49.6421 88.7468 46.552C89.5458 43.4396 90.6491 40.7841 92.0568 38.5857C93.4421 36.3246 94.5811 33.8685 95.4739 31.2174C96.4294 28.544 96.5383 26.1724 95.8004 24.1027C95.0178 21.9075 93.6614 20.4824 91.7313 19.8274C89.8013 19.1724 87.4878 19.3256 84.7909 20.2871C79.5225 22.1654 76.7857 26.2868 76.5806 32.6513L63.1987 30.2117C63.4256 24.8998 65.1302 20.2627 68.3126 16.3005C71.5352 12.2533 75.6867 9.32412 80.7669 7.51297C86.4743 5.47821 91.9902 5.385 97.3148 7.23333C102.68 8.99658 106.391 12.7633 108.448 18.5334C109.387 21.1676 109.694 23.8148 109.37 26.4752C109.109 29.1132 108.485 31.527 107.499 33.7167C106.552 35.8213 105.552 37.8744 104.499 39.8759C103.485 41.7924 102.683 43.7045 102.09 45.6122C101.561 47.4976 101.564 49.1929 102.101 50.6981L89.1181 55.3266ZM108.734 71.9794C107.725 74.1063 106.123 75.5611 103.927 76.3437C101.732 77.1263 99.5712 77.0131 97.4442 76.0042C95.3173 74.9952 93.8625 73.3931 93.0799 71.198C92.2973 69.0028 92.4105 66.8418 93.4195 64.7148C94.4284 62.5878 96.0305 61.1331 98.2256 60.3505C100.421 59.5679 102.582 59.681 104.709 60.69C106.836 61.699 108.291 63.301 109.073 65.4962C109.856 67.6914 109.743 69.8524 108.734 71.9794Z" fill="#6F4D0B" fill-opacity="0.5"/>
</g>
<g style="mix-blend-mode:multiply">
<path d="M281.426 100.06C282.738 97.4407 284.765 95.3281 287.506 93.7223C290.306 92.1464 292.987 91.1064 295.548 90.6023C298.139 90.0386 300.701 89.1623 303.233 87.9733C305.825 86.8141 307.613 85.2522 308.597 83.2877C309.641 81.2041 309.732 79.2388 308.87 77.3919C308.008 75.5449 306.297 73.9802 303.737 72.6976C298.736 70.1922 293.867 71.0666 289.129 75.321L281.634 63.9694C285.627 60.4589 290.155 58.4824 295.218 58.0399C300.37 57.5677 305.357 58.5396 310.179 60.9556C315.596 63.6698 319.479 67.5888 321.827 72.7125C324.265 77.8066 324.111 83.092 321.367 88.5689C320.115 91.0692 318.416 93.1225 316.27 94.7287C314.184 96.3648 312.01 97.5839 309.746 98.386C307.571 99.1584 305.397 99.8564 303.223 100.48C301.138 101.074 299.202 101.817 297.414 102.709C295.686 103.63 294.465 104.805 293.749 106.234L281.426 100.06ZM282.968 125.745C280.734 126.487 278.575 126.337 276.492 125.293C274.408 124.249 272.995 122.61 272.252 120.376C271.51 118.142 271.66 115.983 272.704 113.9C273.748 111.816 275.387 110.403 277.621 109.66C279.855 108.918 282.014 109.068 284.097 110.112C286.181 111.156 287.594 112.795 288.337 115.029C289.079 117.263 288.929 119.422 287.885 121.505C286.841 123.589 285.202 125.002 282.968 125.745Z" fill="#6F4D0B" fill-opacity="0.5"/>
</g>
<g style="mix-blend-mode:multiply">
<path d="M290.776 296.679C291.483 295.269 292.574 294.131 294.05 293.266C295.558 292.418 297.002 291.857 298.381 291.586C299.776 291.282 301.156 290.811 302.519 290.17C303.915 289.546 304.878 288.705 305.408 287.647C305.97 286.525 306.019 285.467 305.555 284.472C305.091 283.477 304.169 282.635 302.791 281.944C300.098 280.595 297.476 281.066 294.924 283.357L290.888 277.244C293.038 275.353 295.477 274.289 298.203 274.051C300.977 273.796 303.663 274.32 306.26 275.621C309.177 277.082 311.268 279.193 312.533 281.952C313.845 284.695 313.763 287.542 312.285 290.491C311.61 291.837 310.695 292.943 309.54 293.808C308.417 294.689 307.246 295.346 306.027 295.778C304.856 296.194 303.685 296.569 302.514 296.905C301.391 297.225 300.348 297.625 299.386 298.105C298.455 298.602 297.797 299.235 297.412 300.004L290.776 296.679ZM291.606 310.511C290.403 310.911 289.241 310.829 288.119 310.267C286.997 309.705 286.236 308.822 285.836 307.619C285.436 306.416 285.517 305.254 286.079 304.132C286.641 303.01 287.524 302.249 288.727 301.849C289.93 301.449 291.093 301.53 292.215 302.092C293.337 302.655 294.098 303.537 294.498 304.74C294.897 305.943 294.816 307.106 294.254 308.228C293.692 309.35 292.809 310.111 291.606 310.511Z" fill="#6F4D0B" fill-opacity="0.5"/>
</g>
<g style="mix-blend-mode:multiply">
<path d="M20.3344 55.5408C19.5455 54.1745 19.1962 52.6372 19.2865 50.9289C19.4078 49.2027 19.7346 47.6891 20.2669 46.388C20.7814 45.0559 21.1465 43.6444 21.3622 42.1535C21.609 40.6447 21.4366 39.3779 20.8449 38.3531C20.2174 37.2663 19.3607 36.643 18.2748 36.4833C17.1889 36.3235 15.9783 36.6291 14.643 37.4001C12.0346 38.9061 10.9847 41.3547 11.4935 44.7459L4.16838 44.7518C3.77326 41.916 4.22636 39.2944 5.52767 36.8869C6.84211 34.4305 8.75697 32.4761 11.2723 31.0239C14.0981 29.3924 17.0109 28.808 20.0106 29.2705C23.0234 29.684 25.3546 31.3193 27.004 34.1761C27.757 35.4804 28.1767 36.8528 28.2632 38.2934C28.3807 39.7161 28.2844 41.0553 27.9742 42.3109C27.6771 43.5175 27.3466 44.702 26.9827 45.8644C26.6318 46.9779 26.3921 48.0686 26.2634 49.1366C26.1658 50.1867 26.3321 51.0843 26.7624 51.8296L20.3344 55.5408ZM32.3402 62.4589C32.0121 63.6834 31.3046 64.6095 30.2178 65.2369C29.1309 65.8644 27.9752 66.0141 26.7507 65.686C25.5262 65.3579 24.6001 64.6504 23.9726 63.5636C23.3451 62.4767 23.1954 61.321 23.5236 60.0965C23.8517 58.8719 24.5592 57.9459 25.646 57.3184C26.7329 56.6909 27.8886 56.5412 29.1131 56.8693C30.3377 57.1974 31.2637 57.9049 31.8912 58.9918C32.5187 60.0787 32.6684 61.2344 32.3402 62.4589Z" fill="#6F4D0B" fill-opacity="0.5"/>
</g>
</svg>
