<svg width="34" height="38" viewBox="0 0 34 38" fill="none" xmlns="http://www.w3.org/2000/svg">
<path d="M9.27638 19.0319H8.87305" stroke="#FC561F" stroke-width="2.5" stroke-linecap="round" stroke-linejoin="round"/>
<path d="M9.27638 24.532H8.87305" stroke="#FC561F" stroke-width="2.5" stroke-linecap="round" stroke-linejoin="round"/>
<path d="M10.2605 13.2022H8.86719" stroke="#FC561F" stroke-width="2.5" stroke-linecap="round" stroke-linejoin="round"/>
<path fill-rule="evenodd" clip-rule="evenodd" d="M24.2897 2C24.2897 2 10.2152 2.00733 10.1932 2.00733C5.13317 2.0385 2 5.36783 2 10.4462V27.3055C2 32.4095 5.157 35.7517 10.261 35.7517C10.261 35.7517 24.3337 35.7462 24.3575 35.7462C29.4175 35.715 32.5525 32.3838 32.5525 27.3055V10.4462C32.5525 5.34217 29.3937 2 24.2897 2Z" stroke="#FC561F" stroke-width="2.5" stroke-linecap="round" stroke-linejoin="round"/>
<path fill-rule="evenodd" clip-rule="evenodd" d="M25.373 18.9597C25.373 15.9209 22.9107 13.4586 19.8742 13.4586C16.8354 13.4586 14.373 15.9209 14.373 18.9597C14.373 21.9963 16.8354 24.4586 19.8742 24.4586C22.9107 24.4586 25.373 21.9963 25.373 18.9597Z" stroke="#FC561F" stroke-width="2.5" stroke-linecap="round" stroke-linejoin="round"/>
</svg>
