<svg width="36" height="34" viewBox="0 0 36 34" fill="none" xmlns="http://www.w3.org/2000/svg">
<path fill-rule="evenodd" clip-rule="evenodd" d="M20.0245 2.6578L23.3747 9.35085C23.7031 10.0079 24.3368 10.4635 25.0718 10.569L32.5664 11.6478C34.4182 11.9151 35.155 14.1593 33.8149 15.4452L28.3953 20.6528C27.8627 21.1649 27.6203 21.901 27.7463 22.624L29.0253 29.976C29.3403 31.7947 27.4046 33.1822 25.7495 32.3218L19.0509 28.8482C18.3942 28.5074 17.6077 28.5074 16.9491 28.8482L10.2505 32.3218C8.59542 33.1822 6.65972 31.7947 6.97661 29.976L8.25372 22.624C8.37971 21.901 8.13727 21.1649 7.60467 20.6528L2.18508 15.4452C0.844978 14.1593 1.58184 11.9151 3.43355 11.6478L10.9282 10.569C11.6632 10.4635 12.2988 10.0079 12.6272 9.35085L15.9755 2.6578C16.804 1.0029 19.196 1.0029 20.0245 2.6578Z" stroke="#FC561F" stroke-width="2.5" stroke-linecap="round" stroke-linejoin="round"/>
</svg>
