<svg width="18" height="18" viewBox="0 0 18 18" fill="none" xmlns="http://www.w3.org/2000/svg">
<path d="M9.00008 0.666504C4.40758 0.666504 0.666748 4.40733 0.666748 8.99984C0.666748 13.5923 4.40758 17.3332 9.00008 17.3332C13.5926 17.3332 17.3334 13.5923 17.3334 8.99984C17.3334 4.40733 13.5926 0.666504 9.00008 0.666504ZM9.00008 2.33317C12.6919 2.33317 15.6667 5.30807 15.6667 8.99984C15.6667 12.3452 13.2212 15.094 10.0157 15.5819V10.9871H11.9558L12.2602 9.01611H10.0157V7.93864C10.0157 7.11947 10.2826 6.39242 11.0492 6.39242H12.2797V4.67204C12.063 4.64287 11.6058 4.57926 10.7416 4.57926C8.93662 4.57926 7.87866 5.5326 7.87866 7.70426V9.01611H6.02319V10.9871H7.87866V15.5656C4.72532 15.0339 2.33341 12.3084 2.33341 8.99984C2.33341 5.30807 5.30831 2.33317 9.00008 2.33317Z" fill="#BCBCBC"/>
</svg>
