<svg width="38" height="28" viewBox="0 0 38 28" fill="none" xmlns="http://www.w3.org/2000/svg">
<g clip-path="url(#clip0_17_37)">
<path d="M0 0H37.3333V28H0V0Z" fill="#012169"/>
<path d="M4.375 0L18.6083 10.5583L32.7833 0H37.3333V3.61667L23.3333 14.0583L37.3333 24.4417V28H32.6667L18.6667 17.5583L4.725 28H0V24.5L13.9417 14.1167L0 3.73333V0H4.375Z" fill="white"/>
<path d="M24.7333 16.3917L37.3333 25.6667V28L21.525 16.3917H24.7333ZM14 17.5583L14.35 19.6L3.15 28H0L14 17.5583ZM37.3333 0V0.175L22.8083 11.1417L22.925 8.575L34.4167 0H37.3333ZM0 0L13.9417 10.2667H10.4417L0 2.45V0Z" fill="#C8102E"/>
<path d="M14.0583 0V28H23.3917V0H14.0583ZM0 9.33333V18.6667H37.3333V9.33333H0Z" fill="white"/>
<path d="M0 11.2583V16.8583H37.3333V11.2583H0ZM15.925 0V28H21.525V0H15.925Z" fill="#C8102E"/>
</g>
<defs>
<clipPath id="clip0_17_37">
<rect width="37.3333" height="28" rx="3" fill="white"/>
</clipPath>
</defs>
</svg>
