<svg width="18" height="18" viewBox="0 0 18 18" fill="none" xmlns="http://www.w3.org/2000/svg">
<path d="M16.2808 1H2.38923C1.62533 1 1 1.62533 1 2.38923V16.281C1 17.0445 1.62533 17.67 2.38923 17.67H16.2808C17.0447 17.67 17.67 17.0445 17.67 16.281V2.38923C17.67 1.62533 17.0447 1 16.2808 1ZM16.2808 15.781C16.2808 16.0571 16.0569 16.281 15.7808 16.281H2.88923C2.61309 16.281 2.38923 16.0571 2.38923 15.781V2.88924C2.38923 2.61309 2.61309 2.38923 2.88923 2.38923H15.7808C16.0569 2.38923 16.2808 2.61309 16.2808 2.88923V15.781Z" fill="#BCBCBC" stroke="#BCBCBC" stroke-width="0.2"/>
<path d="M6.55574 7.94429H5.1665V13.501H6.55574V7.94429Z" fill="#BCBCBC" stroke="#BCBCBC" stroke-width="0.2"/>
<path d="M5.8639 7.25129C6.43931 7.25129 6.90577 6.78482 6.90577 6.20941C6.90577 5.634 6.43931 5.16754 5.8639 5.16754C5.28848 5.16754 4.82202 5.634 4.82202 6.20941C4.82202 6.78482 5.28848 7.25129 5.8639 7.25129Z" fill="#BCBCBC" stroke="#BCBCBC" stroke-width="0.2"/>
<path d="M10.7267 7.94374C10.2181 7.94374 9.74715 8.09066 9.33748 8.32903V8.00145H7.94824V13.5005H9.33748V10.722C9.33748 9.95476 9.95947 9.33298 10.7267 9.33298C11.494 9.33298 12.1157 9.95476 12.1157 10.722V13.5005H13.505V10.722C13.505 9.18772 12.261 7.94374 10.7267 7.94374Z" fill="#BCBCBC" stroke="#BCBCBC" stroke-width="0.2"/>
</svg>
