<svg width="494" height="493" viewBox="0 0 494 493" fill="none" xmlns="http://www.w3.org/2000/svg">
<path d="M256.64 452.803C255.832 452.575 255.175 452.164 254.669 451.57C254.152 450.987 253.888 450.276 253.877 449.438C253.861 448.214 254.263 447.251 255.081 446.549C255.888 445.847 256.887 445.489 258.077 445.474C259.006 445.462 259.842 445.661 260.584 446.071C261.314 446.492 261.849 447.115 262.188 447.938L260.197 449.119C259.891 448.205 259.194 447.755 258.106 447.769C257.505 447.776 257.042 447.924 256.717 448.211C256.381 448.51 256.216 448.909 256.223 449.408C256.229 449.895 256.404 450.284 256.748 450.574C257.08 450.865 257.546 451.006 258.147 450.998L258.657 450.992L259.575 452.34L257.268 455.43L261.926 455.371L261.954 457.563L254.475 457.659L254.45 455.721L256.64 452.803Z" fill="black"/>
<path d="M151.565 103.281C80.2252 149.869 50.5303 236.184 72.7783 313.704" stroke="#FFBB00" stroke-width="60" stroke-linecap="round"/>
<path d="M76.4674 323.1C104.356 401.999 179.38 450.739 258.728 448.869" stroke="#D39D07" stroke-width="60" stroke-linecap="round"/>
<path d="M435.739 319.23C411.064 395.134 339.647 449.66 255.946 449.471" stroke="#A87F0E" stroke-width="60" stroke-linecap="round"/>
<path d="M435.113 321.496C462.786 241.238 433.171 155.083 367.965 107.56" stroke="#7C6016" stroke-width="60" stroke-linecap="round"/>
<path d="M371.31 110.434C304.19 58.4539 213.088 58.8336 147.142 105.326" stroke="#51421D" stroke-width="60" stroke-linecap="round"/>
<path d="M151.566 103.281C121.322 123.032 98.563 149.923 84.0731 180.256" stroke="#FFBB00" stroke-width="60" stroke-linecap="round"/>
<path d="M234.684 249.77H237.309V259.08H232.479V254.39H216.379V229.89H221.209V249.77H229.854V229.89H234.684V249.77ZM252.969 236.89H256.329V254.39H251.919V244.45L243.694 254.39H240.334V236.89H244.744V246.83L252.969 236.89ZM276.601 254.39H271.351L264.981 246.445V254.39H260.466V236.89H264.981V244.59L271.001 236.89H276.391L269.356 245.535L276.601 254.39ZM293.87 236.89V254.39H289.355V241.23H284.525V247.075C284.525 252.488 282.063 254.926 277.14 254.39V250.155C278.073 250.388 278.785 250.236 279.275 249.7C279.765 249.14 280.01 248.183 280.01 246.83V236.89H293.87ZM187.833 269.4C190.19 269.4 192.197 270.298 193.853 272.095C195.533 273.868 196.373 276.05 196.373 278.64C196.373 281.23 195.533 283.423 193.853 285.22C192.197 286.993 190.19 287.88 187.833 287.88C185.383 287.88 183.493 287.028 182.163 285.325V294.39H177.648V269.89H182.163V271.955C183.493 270.251 185.383 269.4 187.833 269.4ZM183.528 282.21C184.438 283.12 185.593 283.575 186.993 283.575C188.393 283.575 189.548 283.12 190.458 282.21C191.392 281.276 191.858 280.086 191.858 278.64C191.858 277.193 191.392 276.015 190.458 275.105C189.548 274.171 188.393 273.705 186.993 273.705C185.593 273.705 184.438 274.171 183.528 275.105C182.618 276.015 182.163 277.193 182.163 278.64C182.163 280.086 182.618 281.276 183.528 282.21ZM214.468 285.22C212.671 286.993 210.478 287.88 207.888 287.88C205.298 287.88 203.104 286.993 201.308 285.22C199.534 283.423 198.648 281.23 198.648 278.64C198.648 276.05 199.534 273.868 201.308 272.095C203.104 270.298 205.298 269.4 207.888 269.4C210.478 269.4 212.671 270.298 214.468 272.095C216.264 273.868 217.163 276.05 217.163 278.64C217.163 281.23 216.264 283.423 214.468 285.22ZM204.493 282.105C205.403 283.015 206.534 283.47 207.888 283.47C209.241 283.47 210.373 283.015 211.283 282.105C212.193 281.195 212.648 280.04 212.648 278.64C212.648 277.24 212.193 276.085 211.283 275.175C210.373 274.265 209.241 273.81 207.888 273.81C206.534 273.81 205.403 274.265 204.493 275.175C203.606 276.085 203.163 277.24 203.163 278.64C203.163 280.04 203.606 281.195 204.493 282.105ZM229.91 278.465C231.684 279.328 232.57 280.716 232.57 282.63C232.57 284.123 231.952 285.371 230.715 286.375C229.479 287.378 227.74 287.88 225.5 287.88C221.954 287.88 219.539 286.48 218.255 283.68L221.93 281.51C222.49 283.096 223.692 283.89 225.535 283.89C226.375 283.89 227.017 283.726 227.46 283.4C227.927 283.073 228.16 282.63 228.16 282.07C228.16 280.996 227.472 280.46 226.095 280.46H223.61V276.61H225.5C226.854 276.61 227.53 276.073 227.53 275C227.53 274.486 227.332 274.078 226.935 273.775C226.539 273.471 226.014 273.32 225.36 273.32C223.844 273.32 222.759 274.055 222.105 275.525L218.465 273.425C219.795 270.741 222.07 269.4 225.29 269.4C227.297 269.4 228.884 269.913 230.05 270.94C231.24 271.943 231.835 273.168 231.835 274.615C231.835 276.318 231.194 277.601 229.91 278.465ZM245.597 269.4C247.954 269.4 249.961 270.298 251.617 272.095C253.297 273.868 254.137 276.05 254.137 278.64C254.137 281.23 253.297 283.423 251.617 285.22C249.961 286.993 247.954 287.88 245.597 287.88C243.147 287.88 241.257 287.028 239.927 285.325V294.39H235.412V269.89H239.927V271.955C241.257 270.251 243.147 269.4 245.597 269.4ZM241.292 282.21C242.202 283.12 243.357 283.575 244.757 283.575C246.157 283.575 247.312 283.12 248.222 282.21C249.156 281.276 249.622 280.086 249.622 278.64C249.622 277.193 249.156 276.015 248.222 275.105C247.312 274.171 246.157 273.705 244.757 273.705C243.357 273.705 242.202 274.171 241.292 275.105C240.382 276.015 239.927 277.193 239.927 278.64C239.927 280.086 240.382 281.276 241.292 282.21ZM272.231 285.22C270.435 286.993 268.241 287.88 265.651 287.88C263.061 287.88 260.868 286.993 259.071 285.22C257.298 283.423 256.411 281.23 256.411 278.64C256.411 276.05 257.298 273.868 259.071 272.095C260.868 270.298 263.061 269.4 265.651 269.4C268.241 269.4 270.435 270.298 272.231 272.095C274.028 273.868 274.926 276.05 274.926 278.64C274.926 281.23 274.028 283.423 272.231 285.22ZM262.256 282.105C263.166 283.015 264.298 283.47 265.651 283.47C267.005 283.47 268.136 283.015 269.046 282.105C269.956 281.195 270.411 280.04 270.411 278.64C270.411 277.24 269.956 276.085 269.046 275.175C268.136 274.265 267.005 273.81 265.651 273.81C264.298 273.81 263.166 274.265 262.256 275.175C261.37 276.085 260.926 277.24 260.926 278.64C260.926 280.04 261.37 281.195 262.256 282.105ZM286.398 287.88C283.644 287.88 281.416 286.993 279.713 285.22C278.033 283.446 277.193 281.195 277.193 278.465C277.193 275.478 277.636 273.18 278.523 271.57C279.409 269.936 281.194 268.455 283.878 267.125C284.274 266.938 284.834 266.681 285.558 266.355C286.281 266.005 286.771 265.76 287.028 265.62C287.308 265.48 287.681 265.27 288.148 264.99C288.614 264.71 288.941 264.465 289.128 264.255C289.338 264.021 289.559 263.73 289.793 263.38C290.026 263.03 290.213 262.645 290.353 262.225L294.063 264.36C293.759 265.783 293.071 266.891 291.998 267.685C290.948 268.455 289.361 269.248 287.238 270.065C285.744 270.648 284.659 271.231 283.983 271.815C283.306 272.398 282.816 273.098 282.513 273.915C283.819 272.585 285.569 271.92 287.763 271.92C289.699 271.92 291.426 272.631 292.943 274.055C294.459 275.455 295.218 277.321 295.218 279.655C295.218 282.058 294.401 284.03 292.768 285.57C291.158 287.11 289.034 287.88 286.398 287.88ZM283.178 282.56C284.041 283.353 285.103 283.75 286.363 283.75C287.623 283.75 288.661 283.365 289.478 282.595C290.294 281.825 290.703 280.845 290.703 279.655C290.703 278.465 290.294 277.485 289.478 276.715C288.661 275.921 287.611 275.525 286.328 275.525C285.184 275.525 284.158 275.886 283.248 276.61C282.361 277.333 281.918 278.301 281.918 279.515C281.918 280.751 282.338 281.766 283.178 282.56ZM314.096 287.39H308.846L302.476 279.445V287.39H297.961V269.89H302.476V277.59L308.496 269.89H313.886L306.851 278.535L314.096 287.39ZM328.985 269.89H332.345V287.39H327.935V277.45L319.71 287.39H316.35V269.89H320.76V279.83L328.985 269.89Z" fill="white"/>
<path d="M372.71 104.074L374.376 105.251L367.507 114.969L365.591 113.615L371.027 105.924L368.832 105.142L369.518 103.171L372.71 104.074Z" fill="black"/>
<path d="M431.299 314.17L432.96 314.725L435.639 319.904C436.255 321.065 436.864 321.746 437.466 321.947C437.907 322.095 438.308 322.073 438.67 321.884C439.029 321.705 439.28 321.4 439.423 320.97C439.707 320.121 439.476 319.345 438.731 318.642L440.452 317.138C441.108 317.751 441.529 318.459 441.715 319.262C441.9 320.065 441.86 320.864 441.595 321.66C441.254 322.681 440.639 323.449 439.749 323.965C438.871 324.484 437.889 324.562 436.803 324.2C435.632 323.808 434.634 322.788 433.811 321.139L432.34 318.192L430.923 322.433L428.779 321.716L431.299 314.17Z" fill="black"/>
<path d="M76.9558 320.42L78.953 319.557L79.4592 320.727L81.3159 319.924L82.254 322.092L80.3973 322.896L82.6312 328.06L80.634 328.924L71.9934 328.346L70.9945 326.037L79.6284 326.599L78.4001 323.759L75.81 324.88L74.8719 322.711L77.462 321.591L76.9558 320.42Z" fill="black"/>
<path d="M149.427 103.396C150.326 102.687 151.296 102.361 152.338 102.419C153.373 102.468 154.27 102.973 155.029 103.934C155.787 104.894 156.056 105.902 155.835 106.957C155.623 108.006 155.05 108.899 154.116 109.636C153.36 110.233 152.56 110.591 151.715 110.709C150.87 110.828 150.058 110.66 149.281 110.206L150.128 108.042C150.949 108.606 151.805 108.537 152.694 107.835C153.165 107.463 153.442 107.064 153.525 106.637C153.609 106.196 153.497 105.779 153.187 105.387C152.885 105.005 152.514 104.8 152.074 104.772C151.633 104.745 151.19 104.907 150.746 105.258L147.917 107.491L144.192 102.007L149.489 97.8239L150.848 99.545L147.259 102.379L148.467 104.155L149.427 103.396Z" fill="black"/>
<path d="M197.638 70.5565L201.245 81.8966L200.111 82.2574L196.844 71.9864L191.012 73.8415L194.279 84.1124L193.145 84.4732L189.538 73.133L197.638 70.5565Z" fill="white"/>
<path d="M210.623 78.32C209.999 79.3568 209.083 80.0295 207.875 80.3381C206.668 80.6467 205.536 80.4972 204.48 79.8896C203.432 79.2683 202.752 78.3482 202.441 77.1294C202.13 75.9105 202.286 74.7827 202.91 73.746C203.542 72.6954 204.463 72.0159 205.67 71.7073C206.878 71.3987 208.006 71.5551 209.054 72.1764C210.11 72.7839 210.793 73.6971 211.105 74.916C211.416 76.1348 211.256 77.2695 210.623 78.32ZM205.06 78.9342C205.846 79.4002 206.695 79.5168 207.606 79.2839C208.517 79.0511 209.206 78.5418 209.672 77.756C210.135 76.9592 210.251 76.1051 210.018 75.1937C209.785 74.2823 209.275 73.5936 208.49 73.1276C207.701 72.6506 206.851 72.5286 205.94 72.7614C205.028 72.9943 204.341 73.5091 203.878 74.3059C203.412 75.0917 203.295 75.9403 203.528 76.8517C203.761 77.7631 204.272 78.4572 205.06 78.9342Z" fill="white"/>
<path d="M218.259 77.9959C217.003 78.2457 215.875 78.0366 214.876 77.3688C213.874 76.6898 213.25 75.7333 213.005 74.4995C212.76 73.2657 212.971 72.149 213.639 71.1495C214.305 70.139 215.265 69.5088 216.521 69.259C217.344 69.0954 218.123 69.1485 218.858 69.4182C219.592 69.6769 220.175 70.1098 220.607 70.7171L219.81 71.413C219.488 70.957 219.048 70.6342 218.491 70.4447C217.942 70.2418 217.356 70.2023 216.734 70.3261C215.811 70.5096 215.097 70.9867 214.592 71.7574C214.084 72.517 213.922 73.3581 214.106 74.2807C214.289 75.2033 214.762 75.9239 215.523 76.4426C216.283 76.9502 217.124 77.1123 218.047 76.9288C218.669 76.805 219.196 76.55 219.628 76.1637C220.057 75.7663 220.361 75.2899 220.54 74.7344L221.563 75.0856C221.351 75.8211 220.95 76.4497 220.361 76.9713C219.771 77.493 219.07 77.8345 218.259 77.9959Z" fill="white"/>
<path d="M228.554 67.4565L228.717 68.5322L225.741 68.9829L226.852 76.3113L225.742 76.4793L224.632 69.1509L221.657 69.6016L221.494 68.5258L228.554 67.4565Z" fill="white"/>
<path d="M237.724 66.469L238.841 66.3561L239.696 74.813L238.579 74.9259L238.412 73.2683C237.759 74.5873 236.683 75.3226 235.183 75.4742C233.977 75.5961 232.902 75.272 231.958 74.5016C231.026 73.7301 230.497 72.7242 230.371 71.4839C230.246 70.2435 230.563 69.1521 231.322 68.2097C232.092 67.2661 233.081 66.7333 234.287 66.6114C235.787 66.4598 236.988 66.9648 237.892 68.1265L237.724 66.469ZM232.693 73.6584C233.401 74.2362 234.222 74.4778 235.158 74.3832C236.094 74.2886 236.851 73.8874 237.429 73.1797C238.005 72.4608 238.246 71.6333 238.152 70.6974C238.057 69.7615 237.656 69.0047 236.948 68.4269C236.239 67.8379 235.417 67.5907 234.481 67.6853C233.545 67.7799 232.789 68.1867 232.212 68.9056C231.635 69.6133 231.393 70.4351 231.488 71.371C231.582 72.3069 231.984 73.0694 232.693 73.6584Z" fill="white"/>
<path d="M247.5 65.8934L248.621 65.84L249.026 74.3304L247.905 74.3838L247.729 70.682L242.838 70.915L243.015 74.6168L241.894 74.6702L241.489 66.1799L242.61 66.1265L242.786 69.8283L247.677 69.5952L247.5 65.8934Z" fill="white"/>
<path d="M258.572 73.2411C257.706 74.0866 256.65 74.5061 255.403 74.4996C254.157 74.4931 253.099 74.0626 252.231 73.2081C251.374 72.3423 250.949 71.2804 250.955 70.0224C250.962 68.7644 251.398 67.7127 252.264 66.8672C253.141 66.0104 254.203 65.5853 255.45 65.5917C256.696 65.5982 257.748 66.0344 258.605 66.9002C259.473 67.7547 259.904 68.8109 259.897 70.0689C259.891 71.3269 259.449 72.3843 258.572 73.2411ZM253.034 72.4303C253.677 73.0796 254.468 73.4067 255.409 73.4116C256.35 73.4165 257.145 73.0977 257.794 72.455C258.443 71.8011 258.77 71.0037 258.775 70.0631C258.78 69.1224 258.461 68.3274 257.819 67.6781C257.176 67.0174 256.385 66.6846 255.444 66.6797C254.503 66.6748 253.708 66.9994 253.059 67.6533C252.409 68.296 252.082 69.0876 252.077 70.0283C252.073 70.9689 252.391 71.7696 253.034 72.4303Z" fill="white"/>
<path d="M267.746 70.3819C268.654 70.7749 269.08 71.4636 269.023 72.4479C268.983 73.1381 268.718 73.6961 268.228 74.1219C267.75 74.537 267.081 74.7197 266.221 74.6701L262.097 74.4319L262.587 65.946L266.372 66.1646C267.198 66.2123 267.825 66.4642 268.252 66.9203C268.681 67.3651 268.876 67.9212 268.837 68.5888C268.788 69.4374 268.424 70.0351 267.746 70.3819ZM266.309 67.2508L263.644 67.0969L263.495 69.6766L266.16 69.8305C267.144 69.8874 267.662 69.4745 267.713 68.592C267.736 68.196 267.623 67.883 267.376 67.653C267.14 67.4123 266.784 67.2782 266.309 67.2508ZM266.284 73.5839C266.782 73.6126 267.168 73.5157 267.442 73.2932C267.727 73.0712 267.882 72.7453 267.907 72.3153C267.93 71.9193 267.812 71.6003 267.553 71.3584C267.307 71.1057 266.935 70.965 266.437 70.9363L263.433 70.7628L263.28 73.4104L266.284 73.5839Z" fill="white"/>
<path d="M277.46 75.6883L275.972 75.5354L272.163 71.0253L271.744 75.1008L270.628 74.9861L271.497 66.5307L272.614 66.6454L272.229 70.3827L276.638 67.0591L278.16 67.2155L273.38 70.8257L277.46 75.6883Z" fill="white"/>
<path d="M287.595 68.6187L288.704 68.7912L287.397 77.1901L286.288 77.0177L286.544 75.3715C285.58 76.4831 284.353 76.9231 282.864 76.6914C281.665 76.5049 280.707 75.92 279.988 74.9365C279.281 73.9547 279.023 72.8479 279.215 71.6161C279.406 70.3842 279.988 69.4081 280.96 68.6876C281.944 67.969 283.035 67.7028 284.233 67.8892C285.723 68.121 286.758 68.9128 287.339 70.2649L287.595 68.6187ZM280.912 74.306C281.451 75.0436 282.185 75.4848 283.115 75.6294C284.044 75.774 284.878 75.5767 285.616 75.0377C286.355 74.4875 286.797 73.7477 286.942 72.8182C287.086 71.8887 286.889 71.0551 286.35 70.3175C285.813 69.5687 285.079 69.122 284.15 68.9774C283.22 68.8328 282.386 69.0356 281.647 69.5858C280.909 70.1248 280.468 70.8591 280.323 71.7885C280.179 72.718 280.375 73.5572 280.912 74.306Z" fill="white"/>
<path d="M299.603 75.3416C300.478 75.9288 300.805 76.7026 300.582 77.6631C300.423 78.3476 300.017 78.8699 299.363 79.2301C298.723 79.5819 297.906 79.6425 296.913 79.4119C295.246 79.0251 294.307 78.1091 294.095 76.6639L295.149 76.3326C295.263 77.3946 295.933 78.0677 297.159 78.3521C297.799 78.5007 298.322 78.4767 298.729 78.2801C299.146 78.0861 299.405 77.7738 299.505 77.3432C299.594 76.9568 299.524 76.6089 299.293 76.2994C299.062 75.9899 298.704 75.7788 298.218 75.6661L297.009 75.3856L297.255 74.3257L298.133 74.5294C298.608 74.6395 299.005 74.6094 299.323 74.4391C299.656 74.2603 299.871 73.9611 299.968 73.5416C300.06 73.1441 299.976 72.7813 299.714 72.4531C299.456 72.1138 299.056 71.8814 298.515 71.7559C297.477 71.5151 296.691 71.769 296.157 72.5176L295.369 71.7763C296.195 70.7231 297.326 70.363 298.761 70.6961C299.633 70.8984 300.275 71.2917 300.686 71.8758C301.1 72.4488 301.23 73.0665 301.076 73.7289C300.879 74.579 300.388 75.1166 299.603 75.3416Z" fill="white"/>
<path d="M310.944 74.123L312.024 74.4283L309.71 82.6075L308.631 82.3021L309.084 80.699C307.992 81.6858 306.721 81.974 305.271 81.5638C304.104 81.2338 303.223 80.5371 302.629 79.4739C302.045 78.4137 301.923 77.2838 302.262 76.0842C302.602 74.8846 303.298 73.9861 304.35 73.3886C305.413 72.7942 306.528 72.662 307.695 72.9921C309.146 73.4023 310.077 74.3136 310.491 75.7261L310.944 74.123ZM303.622 78.9598C304.068 79.7573 304.743 80.284 305.649 80.54C306.554 80.796 307.405 80.7011 308.202 80.2553C309.003 79.7986 309.531 79.1177 309.787 78.2125C310.043 77.3074 309.948 76.4561 309.503 75.6587C309.06 74.8503 308.386 74.3181 307.481 74.0621C306.576 73.8061 305.723 73.9065 304.922 74.3632C304.125 74.809 303.598 75.4844 303.342 76.3896C303.086 77.2948 303.179 78.1515 303.622 78.9598Z" fill="white"/>
<path d="M319.147 84.6505L320.273 85.0365L319.181 88.2205L318.119 87.8565L318.858 85.7017L312.297 83.4515L311.558 85.6063L310.497 85.2423L311.589 82.0584L312.57 82.3948C313.363 81.8641 313.984 80.9447 314.432 79.6369L315.795 75.665L321.552 77.6394L319.147 84.6505ZM313.856 82.836L318.086 84.2865L320.137 78.3045L316.503 77.0581L315.494 80.0009C315.071 81.2337 314.525 82.1788 313.856 82.836Z" fill="white"/>
<path d="M331.774 81.6905L332.813 82.1157L329.592 89.9818L328.553 89.5566L329.185 88.0149C327.989 88.8723 326.693 89.0154 325.298 88.4442C324.176 87.9847 323.379 87.1932 322.909 86.0697C322.449 84.9505 322.455 83.8141 322.927 82.6604C323.399 81.5067 324.192 80.6923 325.305 80.2173C326.429 79.7466 327.551 79.741 328.674 80.2005C330.069 80.7717 330.892 81.7822 331.143 83.2323L331.774 81.6905ZM323.954 85.671C324.307 86.5136 324.919 87.1131 325.789 87.4695C326.66 87.826 327.516 87.8277 328.359 87.4746C329.206 87.1111 329.807 86.4941 330.164 85.6236C330.52 84.753 330.522 83.8965 330.169 83.0539C329.82 82.2008 329.211 81.596 328.34 81.2396C327.47 80.8831 326.611 80.8867 325.764 81.2502C324.921 81.6032 324.322 82.215 323.965 83.0855C323.609 83.956 323.605 84.8179 323.954 85.671Z" fill="white"/>
<path d="M340.392 85.6323L341.407 86.1097L337.79 93.8018L336.775 93.3244L338.149 90.4014C337.41 90.4294 336.604 90.2384 335.732 89.8285C334.727 89.3559 334.066 88.7635 333.75 88.0512C333.449 87.3335 333.513 86.5182 333.942 85.6054L335.099 83.1439L336.115 83.6214L334.957 86.0828C334.654 86.729 334.603 87.2752 334.807 87.7215C335.015 88.1576 335.463 88.5371 336.15 88.8602C336.95 89.2364 337.763 89.4373 338.591 89.463L340.392 85.6323Z" fill="white"/>
<path d="M418.582 168.655L419.243 169.745L416.335 171.508L415.719 170.49L417.667 169.309L410.661 157.752L420.837 151.583L421.454 152.601L412.237 158.188L414.793 162.404L424.009 156.817L424.626 157.834L415.409 163.421L417.965 167.637L427.182 162.05L427.799 163.068L418.582 168.655Z" fill="white"/>
<path d="M423.446 178.215C422.298 177.834 421.44 177.088 420.874 175.978C420.307 174.867 420.204 173.73 420.565 172.567C420.94 171.408 421.689 170.543 422.809 169.971C423.93 169.399 425.064 169.304 426.213 169.685C427.377 170.071 428.242 170.819 428.808 171.929C429.375 173.04 429.47 174.175 429.095 175.333C428.734 176.497 427.994 177.365 426.873 177.936C425.752 178.508 424.61 178.601 423.446 178.215ZM421.624 172.923C421.342 173.792 421.415 174.646 421.843 175.483C422.27 176.321 422.918 176.881 423.787 177.163C424.667 177.44 425.525 177.364 426.363 176.937C427.201 176.509 427.761 175.861 428.043 174.992C428.335 174.118 428.267 173.262 427.839 172.424C427.412 171.586 426.759 171.029 425.879 170.752C425.01 170.47 424.157 170.543 423.319 170.971C422.481 171.398 421.916 172.049 421.624 172.923Z" fill="white"/>
<path d="M427.798 187.711L428.281 188.799L425.205 190.165L424.749 189.14L426.831 188.215L424.015 181.877L421.933 182.801L421.478 181.776L424.554 180.409L424.975 181.357C425.904 181.577 427 181.406 428.263 180.845L432.101 179.14L434.571 184.702L427.798 187.711ZM425.527 182.6L427.342 186.686L433.122 184.119L431.562 180.607L428.719 181.87C427.528 182.4 426.464 182.643 425.527 182.6Z" fill="white"/>
<path d="M437.489 191.497C437.937 192.672 437.881 193.779 437.319 194.818C436.772 195.864 435.932 196.603 434.799 197.036C434.682 197.08 434.514 197.132 434.294 197.192L431.633 190.219C430.869 190.632 430.358 191.216 430.1 191.969C429.856 192.729 429.896 193.533 430.219 194.38C430.449 194.984 430.769 195.456 431.178 195.797C431.602 196.145 432.058 196.353 432.545 196.422L432.356 197.549C431.662 197.414 431.035 197.107 430.477 196.629C429.918 196.151 429.491 195.525 429.196 194.752C428.72 193.503 428.723 192.337 429.208 191.254C429.693 190.171 430.538 189.4 431.745 188.939C432.931 188.487 434.069 188.495 435.158 188.965C436.247 189.435 437.024 190.279 437.489 191.497ZM436.472 191.885C436.157 191.059 435.644 190.46 434.932 190.089C434.235 189.724 433.474 189.638 432.65 189.831L434.911 195.756C435.707 195.331 436.235 194.759 436.495 194.041C436.754 193.323 436.747 192.605 436.472 191.885Z" fill="white"/>
<path d="M441.423 203.535L441.767 204.603L433.676 207.207L433.332 206.139L436.86 205.003L435.36 200.343L431.832 201.478L431.488 200.41L439.58 197.806L439.923 198.874L436.396 200.01L437.895 204.67L441.423 203.535Z" fill="white"/>
<path d="M444.062 212.935L444.353 214.018L436.143 216.222L435.852 215.138L439.432 214.177L438.163 209.449L434.583 210.409L434.293 209.326L442.502 207.122L442.793 208.206L439.214 209.167L440.483 213.895L444.062 212.935Z" fill="white"/>
<path d="M447.292 217.734C447.102 217.614 446.981 217.444 446.931 217.223C446.881 217.002 446.915 216.797 447.034 216.607C447.154 216.417 447.324 216.297 447.545 216.246C447.766 216.196 447.971 216.23 448.161 216.349C448.351 216.469 448.472 216.639 448.522 216.86C448.572 217.081 448.538 217.286 448.419 217.476C448.299 217.666 448.129 217.787 447.908 217.837C447.687 217.888 447.482 217.853 447.292 217.734ZM436.763 218.971L445.049 217.078L445.299 218.172L437.013 220.065L436.763 218.971Z" fill="white"/>
<path d="M443.548 230.902C443.345 231.936 442.757 232.536 441.785 232.702C441.092 232.82 440.454 232.647 439.869 232.183C439.297 231.728 438.926 230.998 438.755 229.993C438.468 228.305 438.95 227.085 440.201 226.332L440.914 227.177C439.979 227.692 439.616 228.57 439.827 229.81C439.938 230.458 440.162 230.932 440.5 231.23C440.84 231.54 441.228 231.658 441.664 231.584C442.055 231.518 442.349 231.318 442.545 230.986C442.741 230.654 442.798 230.242 442.714 229.75L442.506 228.527L443.579 228.344L443.73 229.233C443.811 229.713 443.992 230.067 444.273 230.296C444.566 230.533 444.925 230.616 445.35 230.543C445.752 230.475 446.054 230.257 446.256 229.889C446.469 229.52 446.529 229.061 446.436 228.514C446.257 227.463 445.719 226.836 444.822 226.632L445.202 225.619C446.492 225.975 447.261 226.879 447.508 228.331C447.658 229.214 447.543 229.958 447.163 230.563C446.795 231.166 446.275 231.524 445.605 231.638C444.744 231.784 444.059 231.539 443.548 230.902Z" fill="white"/>
<path d="M444.772 239.863C444.55 240.828 443.949 241.371 442.971 241.492C442.285 241.578 441.688 241.418 441.181 241.013C440.686 240.618 440.386 239.993 440.279 239.138L439.769 235.039L448.204 233.988L448.672 237.75C448.774 238.571 448.64 239.233 448.268 239.736C447.908 240.238 447.396 240.53 446.733 240.613C445.889 240.718 445.236 240.468 444.772 239.863ZM447.592 237.885L447.263 235.236L444.698 235.555L445.028 238.204C445.15 239.182 445.649 239.617 446.527 239.508C446.92 239.459 447.208 239.292 447.389 239.006C447.583 238.731 447.651 238.357 447.592 237.885ZM441.359 239.003C441.42 239.498 441.585 239.86 441.854 240.09C442.124 240.33 442.472 240.424 442.9 240.371C443.293 240.322 443.586 240.148 443.777 239.85C443.981 239.562 444.052 239.171 443.99 238.676L443.619 235.69L440.987 236.018L441.359 239.003Z" fill="white"/>
<path d="M451.364 243.92C451.192 243.776 451.095 243.591 451.075 243.366C451.054 243.14 451.116 242.941 451.259 242.768C451.403 242.596 451.588 242.5 451.814 242.479C452.039 242.459 452.238 242.52 452.411 242.664C452.583 242.808 452.68 242.992 452.7 243.218C452.721 243.444 452.659 243.643 452.515 243.815C452.372 243.988 452.187 244.084 451.961 244.104C451.735 244.125 451.536 244.063 451.364 243.92ZM440.764 243.738L449.229 242.97L449.331 244.087L440.866 244.856L440.764 243.738Z" fill="white"/>
<path d="M449.943 252.989L448.857 253.055L448.673 250.052L441.275 250.504L441.207 249.384L448.605 248.932L448.421 245.928L449.507 245.862L449.943 252.989Z" fill="white"/>
<path d="M450.109 260.928L450.125 261.879L441.626 262.023L441.607 260.901L448.151 260.791L441.521 255.836L441.505 254.884L450.004 254.74L450.023 255.862L443.479 255.973L450.109 260.928Z" fill="white"/>
<path d="M402.637 379.583C402.048 379.967 401.441 380.156 400.815 380.149C400.19 380.142 399.597 379.935 399.038 379.528C398.232 378.941 397.788 378.155 397.706 377.17C397.627 376.201 397.957 375.208 398.698 374.191C399.365 373.275 400.104 372.692 400.917 372.443C401.729 372.193 402.524 372.19 403.3 372.433L403.167 373.597C402.595 373.363 401.996 373.319 401.37 373.466C400.747 373.629 400.158 374.091 399.605 374.852C399.058 375.603 398.803 376.308 398.842 376.967C398.89 377.633 399.189 378.166 399.739 378.566C400.289 378.966 400.873 379.098 401.492 378.96C402.114 378.837 402.668 378.442 403.155 377.773L403.956 376.674L404.863 377.334L404.312 378.09C403.839 378.74 403.627 379.378 403.676 380.003C403.726 380.628 404.012 381.131 404.534 381.511C405.047 381.884 405.601 382 406.195 381.858C406.792 381.732 407.324 381.348 407.791 380.706C408.651 379.525 408.714 378.379 407.98 377.269L409.028 376.813C409.44 377.478 409.639 378.197 409.623 378.97C409.6 379.753 409.291 380.551 408.698 381.367C408.037 382.274 407.247 382.82 406.327 383.005C405.416 383.197 404.581 383.017 403.82 382.463C402.858 381.763 402.464 380.802 402.637 379.583Z" fill="white"/>
<path d="M391.813 385.099L391.062 386.022L388.452 383.897L389.16 383.027L390.927 384.465L395.306 379.086L393.539 377.648L394.247 376.778L396.858 378.903L396.203 379.707C396.427 380.635 397.075 381.535 398.147 382.408L401.404 385.059L397.561 389.779L391.813 385.099ZM395.344 380.762L392.522 384.229L397.426 388.222L399.851 385.243L397.439 383.278C396.428 382.456 395.73 381.617 395.344 380.762Z" fill="white"/>
<path d="M391.112 397.013L390.358 397.843L384.065 392.13L384.819 391.299L386.053 392.419C385.655 391.002 385.963 389.735 386.976 388.619C387.792 387.722 388.807 387.243 390.024 387.184C391.233 387.134 392.299 387.528 393.222 388.366C394.145 389.204 394.64 390.227 394.706 391.435C394.765 392.652 394.387 393.709 393.572 394.607C392.559 395.723 391.328 396.152 389.879 395.893L391.112 397.013ZM390.042 388.303C389.13 388.347 388.357 388.717 387.725 389.414C387.093 390.11 386.798 390.915 386.842 391.827C386.895 392.747 387.269 393.523 387.966 394.156C388.662 394.788 389.467 395.082 390.379 395.038C391.3 395.002 392.077 394.635 392.709 393.939C393.341 393.242 393.631 392.434 393.579 391.514C393.535 390.601 393.165 389.829 392.468 389.197C391.772 388.564 390.963 388.266 390.042 388.303Z" fill="white"/>
<path d="M384.864 403.325L384.066 404.114L378.089 398.071L378.886 397.282L381.158 399.578C381.386 398.874 381.842 398.183 382.527 397.506C383.317 396.725 384.101 396.308 384.878 396.256C385.656 396.221 386.399 396.561 387.109 397.278L389.021 399.212L388.224 400.001L386.311 398.067C385.809 397.56 385.313 397.325 384.824 397.362C384.343 397.408 383.833 397.697 383.293 398.231C382.664 398.853 382.196 399.548 381.887 400.315L384.864 403.325Z" fill="white"/>
<path d="M377.015 410.486L376.177 411.232L370.53 404.878L371.369 404.133L372.475 405.378C372.232 403.927 372.673 402.701 373.8 401.699C374.706 400.894 375.767 400.527 376.983 400.598C378.191 400.677 379.209 401.183 380.037 402.115C380.865 403.047 381.248 404.117 381.184 405.325C381.113 406.541 380.624 407.552 379.718 408.358C378.591 409.359 377.321 409.653 375.908 409.241L377.015 410.486ZM376.882 401.712C375.97 401.658 375.162 401.944 374.459 402.569C373.756 403.194 373.377 403.962 373.324 404.874C373.278 405.795 373.567 406.607 374.192 407.31C374.817 408.013 375.585 408.391 376.497 408.445C377.417 408.507 378.228 408.226 378.931 407.601C379.634 406.976 380.009 406.203 380.055 405.283C380.109 404.371 379.823 403.563 379.198 402.86C378.573 402.157 377.801 401.774 376.882 401.712Z" fill="white"/>
<path d="M367.525 418.308C366.555 419.036 365.471 419.31 364.274 419.13C363.069 418.958 362.092 418.373 361.344 417.375C360.596 416.378 360.309 415.276 360.481 414.07C360.645 412.871 361.212 411.908 362.182 411.181C363.388 410.277 364.678 410.089 366.051 410.617L363.012 406.564L363.91 405.891L371.048 415.412L370.15 416.085L369.151 414.752C369.273 416.219 368.731 417.404 367.525 418.308ZM365.388 411.348C364.484 411.219 363.655 411.436 362.902 412C362.15 412.564 361.709 413.299 361.579 414.203C361.457 415.117 361.678 415.95 362.242 416.702C362.806 417.455 363.54 417.896 364.445 418.025C365.356 418.164 366.188 417.951 366.94 417.387C367.693 416.822 368.131 416.084 368.253 415.17C368.383 414.266 368.165 413.437 367.601 412.685C367.037 411.932 366.299 411.486 365.388 411.348Z" fill="white"/>
<path d="M359.823 423.751C358.779 424.452 357.687 424.645 356.548 424.33C355.406 424.031 354.498 423.379 353.822 422.371C353.753 422.268 353.664 422.116 353.557 421.915L359.756 417.758C359.182 417.106 358.499 416.739 357.706 416.656C356.911 416.589 356.137 416.808 355.384 417.313C354.847 417.672 354.458 418.09 354.218 418.565C353.974 419.056 353.873 419.547 353.915 420.037L352.774 420.106C352.75 419.399 352.909 418.72 353.25 418.068C353.591 417.417 354.105 416.86 354.792 416.4C355.903 415.655 357.04 415.397 358.203 415.627C359.367 415.856 360.309 416.507 361.028 417.581C361.735 418.635 361.982 419.745 361.768 420.912C361.554 422.079 360.906 423.025 359.823 423.751ZM359.218 422.847C359.952 422.355 360.42 421.72 360.622 420.943C360.821 420.182 360.734 419.422 360.362 418.662L355.095 422.193C355.688 422.874 356.363 423.26 357.121 423.353C357.878 423.445 358.577 423.276 359.218 422.847Z" fill="white"/>
<path d="M349.221 425.318C348.185 425.51 347.41 425.185 346.898 424.342C346.534 423.742 346.459 423.084 346.675 422.37C346.887 421.671 347.429 421.057 348.3 420.527C349.763 419.639 351.075 419.637 352.236 420.523L351.714 421.497C350.89 420.817 349.94 420.804 348.865 421.457C348.303 421.798 347.946 422.181 347.793 422.606C347.63 423.036 347.663 423.44 347.893 423.818C348.099 424.157 348.392 424.357 348.773 424.417C349.155 424.477 349.558 424.378 349.985 424.119L351.045 423.474L351.61 424.404L350.84 424.872C350.424 425.125 350.161 425.424 350.052 425.769C349.939 426.129 349.995 426.493 350.218 426.861C350.43 427.21 350.744 427.41 351.16 427.462C351.582 427.524 352.031 427.411 352.505 427.123C353.416 426.57 353.801 425.839 353.66 424.93L354.741 424.909C354.886 426.24 354.329 427.288 353.07 428.053C352.305 428.517 351.571 428.685 350.869 428.554C350.172 428.434 349.648 428.083 349.295 427.502C348.841 426.756 348.817 426.028 349.221 425.318Z" fill="white"/>
<path d="M343.33 433.355L342.287 433.927L341.017 424.039C340.902 423.145 340.999 422.343 341.307 421.631C341.6 420.915 342.088 420.403 342.771 420.093L343.277 421.017C342.328 421.408 341.931 422.298 342.084 423.687L342.144 424.255L349.592 429.925L348.548 430.496L342.323 425.785L343.33 433.355Z" fill="white"/>
<path d="M334.994 437.481L331.272 429.839L332.281 429.348L335.526 436.012L338.98 434.33L337.321 430.921C336.7 429.648 336.518 428.652 336.774 427.935C337.02 427.223 337.58 426.692 338.456 426.341L338.917 427.289C338.307 427.51 337.946 427.856 337.834 428.327C337.713 428.802 337.878 429.503 338.329 430.43L340.465 434.817L334.994 437.481Z" fill="white"/>
<path d="M328.776 436.673C328.048 436.988 327.336 437.026 326.638 436.784C325.935 436.558 325.43 436.091 325.124 435.384C324.817 434.677 324.82 433.984 325.131 433.306C325.436 432.643 325.953 432.153 326.681 431.838L329.847 430.465L333.227 438.264L332.198 438.71L330.913 435.747L328.776 436.673ZM327.113 432.836C326.677 433.025 326.364 433.315 326.175 433.706C325.976 434.101 325.968 434.512 326.153 434.938C326.338 435.364 326.643 435.64 327.067 435.765C327.481 435.894 327.907 435.864 328.344 435.675L330.481 434.748L329.25 431.91L327.113 432.836Z" fill="white"/>
<path d="M320.175 443.556L319.787 442.54L322.597 441.466L319.952 434.542L321 434.142L323.645 441.066L326.456 439.992L326.845 441.008L320.175 443.556Z" fill="white"/>
<path d="M312.311 446.18L311.245 446.531L308.591 438.456L309.657 438.105L310.177 439.688C310.531 438.26 311.424 437.31 312.856 436.839C314.008 436.461 315.127 436.546 316.215 437.096C317.291 437.649 318.024 438.517 318.413 439.702C318.802 440.886 318.728 442.02 318.189 443.104C317.64 444.191 316.789 444.924 315.637 445.302C314.205 445.773 312.923 445.538 311.791 444.598L312.311 446.18ZM315.678 438.077C314.863 437.665 314.008 437.606 313.115 437.9C312.221 438.193 311.568 438.748 311.156 439.563C310.748 440.389 310.69 441.249 310.984 442.143C311.278 443.037 311.832 443.689 312.647 444.101C313.466 444.524 314.323 444.589 315.216 444.295C316.11 444.002 316.761 443.442 317.17 442.615C317.582 441.8 317.641 440.946 317.347 440.052C317.053 439.158 316.497 438.5 315.678 438.077Z" fill="white"/>
<path d="M303.425 448.698L303.134 447.649L306.034 446.846L304.056 439.703L305.138 439.404L307.116 446.547L310.015 445.744L310.306 446.793L303.425 448.698Z" fill="white"/>
<path d="M296.274 450.359L295.114 450.626L296.575 440.764C296.707 439.873 297.018 439.127 297.507 438.526C297.983 437.916 298.592 437.555 299.334 437.442L299.57 438.469C298.551 438.588 297.927 439.336 297.698 440.715L297.601 441.278L303.232 448.756L302.072 449.023L297.358 442.799L296.274 450.359Z" fill="white"/>
<path d="M162.534 433.172L163.069 432.186L166.282 433.929L171.423 424.456L172.469 425.024L167.327 434.497L170.54 436.24L170.005 437.226L162.534 433.172Z" fill="white"/>
<path d="M158.47 427.018C157.395 426.363 156.762 425.453 156.57 424.287C156.363 423.126 156.574 422.027 157.206 420.991C157.27 420.885 157.372 420.741 157.509 420.559L163.881 424.443C164.233 423.649 164.28 422.875 164.023 422.121C163.75 421.37 163.227 420.759 162.453 420.287C161.901 419.951 161.359 419.774 160.827 419.754C160.279 419.739 159.791 419.853 159.363 420.097L158.822 419.09C159.454 418.772 160.138 418.631 160.872 418.667C161.606 418.703 162.327 418.937 163.033 419.367C164.175 420.063 164.886 420.988 165.166 422.14C165.445 423.293 165.249 424.421 164.576 425.524C163.916 426.608 163.011 427.297 161.862 427.593C160.713 427.888 159.583 427.696 158.47 427.018ZM159.036 426.089C159.791 426.549 160.563 426.708 161.353 426.566C162.128 426.427 162.782 426.03 163.315 425.372L157.901 422.072C157.531 422.896 157.464 423.671 157.698 424.397C157.932 425.124 158.378 425.688 159.036 426.089Z" fill="white"/>
<path d="M154.392 413.776C155.451 414.496 156.093 415.447 156.317 416.628C156.536 417.818 156.291 418.933 155.583 419.973C154.876 421.013 153.931 421.646 152.75 421.87C151.563 422.104 150.44 421.861 149.381 421.141C148.688 420.669 148.179 420.076 147.856 419.363C147.526 418.659 147.426 417.94 147.556 417.205L148.611 417.286C148.512 417.835 148.59 418.375 148.846 418.905C149.086 419.439 149.468 419.884 149.993 420.241C150.771 420.77 151.612 420.945 152.516 420.765C153.413 420.594 154.126 420.12 154.656 419.342C155.185 418.564 155.367 417.722 155.203 416.815C155.032 415.918 154.558 415.204 153.78 414.675C153.255 414.318 152.704 414.121 152.126 414.084C151.541 414.057 150.989 414.174 150.468 414.437L150 413.461C150.673 413.096 151.403 412.941 152.188 412.996C152.973 413.05 153.708 413.31 154.392 413.776Z" fill="white"/>
<path d="M139.216 413.51L139.869 412.64L142.276 414.445L146.723 408.515L147.62 409.188L143.174 415.118L145.581 416.924L144.928 417.794L139.216 413.51Z" fill="white"/>
<path d="M132.841 408.336L131.92 407.582L140.612 402.7C141.397 402.259 142.178 402.048 142.953 402.067C143.726 402.07 144.385 402.33 144.928 402.847L144.26 403.663C143.543 402.93 142.569 402.894 141.338 403.557L140.834 403.825L138.368 412.856L137.447 412.102L139.482 404.565L132.841 408.336Z" fill="white"/>
<path d="M128.943 399.389C128.478 398.515 128.575 397.711 129.233 396.977C129.695 396.463 130.25 396.192 130.899 396.165C131.531 396.138 132.168 396.413 132.809 396.988L135.884 399.746L130.209 406.074L127.387 403.542C126.771 402.99 126.438 402.402 126.388 401.779C126.331 401.164 126.525 400.608 126.972 400.11C127.539 399.477 128.196 399.237 128.943 399.389ZM128.113 402.733L130.1 404.515L131.825 402.591L129.839 400.809C129.105 400.151 128.443 400.15 127.852 400.809C127.587 401.104 127.48 401.419 127.53 401.753C127.565 402.088 127.759 402.415 128.113 402.733ZM132.083 397.798C131.712 397.465 131.35 397.3 130.997 397.303C130.635 397.299 130.311 397.457 130.023 397.777C129.758 398.073 129.651 398.395 129.703 398.746C129.738 399.097 129.941 399.439 130.312 399.772L132.552 401.781L134.323 399.807L132.083 397.798Z" fill="white"/>
<path d="M117.834 394.355L117.039 393.563L123.042 387.545L123.837 388.337L122.66 389.517C124.094 389.186 125.345 389.553 126.412 390.618C127.27 391.474 127.7 392.512 127.702 393.73C127.695 394.94 127.252 395.986 126.372 396.869C125.491 397.751 124.446 398.197 123.236 398.207C122.018 398.208 120.979 397.781 120.121 396.925C119.054 395.86 118.683 394.61 119.01 393.175L117.834 394.355ZM126.584 393.695C126.583 392.781 126.249 391.992 125.583 391.328C124.917 390.664 124.128 390.332 123.214 390.333C122.292 390.342 121.499 390.68 120.835 391.346C120.171 392.012 119.839 392.802 119.84 393.715C119.833 394.637 120.163 395.43 120.829 396.094C121.495 396.759 122.289 397.086 123.21 397.077C124.124 397.076 124.913 396.742 125.577 396.076C126.242 395.41 126.577 394.617 126.584 393.695Z" fill="white"/>
<path d="M110.813 386.748L110.062 385.915L116.373 380.221L117.125 381.055L114.373 383.537L117.652 387.172L120.404 384.69L121.156 385.523L114.844 391.217L114.093 390.383L116.845 387.901L113.565 384.266L110.813 386.748Z" fill="white"/>
<path d="M103.917 378.475L103.21 377.604L109.81 372.248L110.517 373.119L107.639 375.454L110.724 379.256L113.602 376.921L114.309 377.793L107.708 383.148L107.001 382.277L109.879 379.942L106.794 376.14L103.917 378.475Z" fill="white"/>
<path d="M97.5091 369.948L104.361 364.918L105.025 365.822L102.394 367.754L103.259 368.932L107.439 369.111L108.284 370.262L104.036 370.049C104.357 370.657 104.46 371.277 104.347 371.908C104.234 372.539 103.904 373.056 103.356 373.459C102.734 373.915 102.066 374.068 101.352 373.918C100.621 373.765 100.021 373.369 99.5514 372.73L97.5091 369.948ZM102.922 370.255L101.544 368.377L99.0501 370.208L100.428 372.086C100.71 372.469 101.066 372.715 101.495 372.821C101.918 372.918 102.317 372.829 102.692 372.554C103.066 372.279 103.27 371.926 103.304 371.493C103.331 371.051 103.204 370.638 102.922 370.255Z" fill="white"/>
<path d="M61.0017 221.851L72.6602 224.236L72.4217 225.402L61.8624 223.242L60.6359 229.238L71.1952 231.398L70.9567 232.564L59.2981 230.179L61.0017 221.851Z" fill="white"/>
<path d="M66.8923 212.407L67.1934 211.256L75.2531 217.124C75.9813 217.654 76.4983 218.276 76.804 218.988C77.1235 219.692 77.1612 220.399 76.9172 221.109L75.8974 220.842C76.2651 219.884 75.8914 218.984 74.7762 218.141L74.3222 217.794L65.086 219.315L65.3871 218.164L73.0869 216.874L66.8923 212.407Z" fill="white"/>
<path d="M77.247 208.129C76.883 209.298 76.1956 210.152 75.1847 210.692C74.1629 211.228 73.0353 211.304 71.8017 210.92C70.4167 210.489 69.4203 209.953 68.8125 209.312C68.194 208.669 67.7772 207.625 67.5621 206.181C67.5173 205.906 67.4743 205.548 67.4333 205.108C67.3957 204.657 67.3585 204.319 67.3218 204.094C67.2885 203.858 67.2331 203.598 67.1558 203.312C67.0676 203.024 66.9447 202.79 66.787 202.61C66.6293 202.43 66.4202 202.282 66.1598 202.165L66.9096 201.473C67.1558 201.597 67.3723 201.759 67.5591 201.96C67.7459 202.161 67.8877 202.353 67.9846 202.538C68.0848 202.711 68.176 202.971 68.2581 203.317C68.3328 203.649 68.3828 203.908 68.408 204.094C68.4257 204.266 68.4551 204.572 68.4961 205.012C68.5404 205.441 68.5694 205.729 68.5831 205.876C68.6718 206.734 68.8391 207.398 69.085 207.866C69.32 208.331 69.6953 208.727 70.2108 209.053C69.8384 208.534 69.6263 207.957 69.5743 207.324C69.5148 206.676 69.5694 206.082 69.7379 205.541C70.0749 204.459 70.71 203.677 71.6432 203.196C72.569 202.701 73.5837 202.626 74.6874 202.969C75.7803 203.31 76.5713 203.972 77.0604 204.955C77.542 205.924 77.6042 206.982 77.247 208.129ZM76.1757 207.795C76.4386 206.951 76.4 206.18 76.0599 205.48C75.7124 204.766 75.1437 204.287 74.3538 204.041C73.5531 203.791 72.8175 203.847 72.1472 204.208C71.4694 204.555 70.9974 205.156 70.7312 206.011C70.4919 206.779 70.518 207.553 70.8094 208.332C71.0901 209.108 71.6308 209.62 72.4315 209.87C73.2539 210.126 74.0178 210.055 74.7233 209.658C75.4321 209.249 75.9162 208.628 76.1757 207.795Z" fill="white"/>
<path d="M73.7993 191.6L81.7675 194.56L81.3769 195.612L74.4286 193.031L73.091 196.633L76.6449 197.953C77.9729 198.446 78.7919 199.04 79.1018 199.735C79.4157 200.42 79.3771 201.192 78.9858 202.05L77.9978 201.683C78.2864 201.101 78.3087 200.602 78.0646 200.184C77.8245 199.757 77.2211 199.363 76.2542 199.004L71.6805 197.306L73.7993 191.6Z" fill="white"/>
<path d="M73.6151 186.669C73.7015 186.876 73.7016 187.085 73.6155 187.294C73.5293 187.504 73.3827 187.652 73.1756 187.739C72.9685 187.825 72.7602 187.825 72.5505 187.739C72.3409 187.653 72.1928 187.506 72.1064 187.299C72.02 187.092 72.0198 186.884 72.106 186.674C72.1922 186.464 72.3388 186.316 72.5459 186.23C72.7529 186.143 72.9613 186.143 73.1709 186.229C73.3806 186.316 73.5286 186.462 73.6151 186.669ZM82.9308 191.73L75.0689 188.498L75.4954 187.461L83.3573 190.692L82.9308 191.73Z" fill="white"/>
<path d="M87.4892 181.297L86.8734 182.66L81.3903 184.847L85.1241 186.534L84.6623 187.556L76.9157 184.058L77.3775 183.035L80.8015 184.581L79.0429 179.348L79.6727 177.953L81.5857 183.63L87.4892 181.297Z" fill="white"/>
<path d="M84.178 169.001L84.6897 168.002L92.2546 171.878L91.7429 172.877L90.2602 172.117C91.0132 173.382 91.046 174.685 90.3586 176.026C89.8057 177.105 88.9495 177.832 87.7902 178.206C86.6361 178.569 85.5042 178.467 84.3947 177.899C83.2852 177.33 82.5409 176.471 82.1619 175.322C81.7881 174.163 81.8777 173.043 82.4306 171.964C83.118 170.623 84.1947 169.888 85.6608 169.761L84.178 169.001ZM87.4815 177.131C88.351 176.85 89.0002 176.291 89.4291 175.454C89.858 174.617 89.9323 173.764 89.6519 172.894C89.3615 172.02 88.7977 171.368 87.9605 170.939C87.1233 170.51 86.27 170.436 85.4005 170.716C84.5209 170.991 83.8666 171.547 83.4377 172.385C83.0088 173.222 82.9395 174.078 83.23 174.952C83.5104 175.822 84.0691 176.471 84.9063 176.9C85.7435 177.329 86.6019 177.406 87.4815 177.131Z" fill="white"/>
<path d="M96.5527 162.239L97.2402 161.066L100.144 162.767L99.5773 163.735L97.6118 162.584L93.968 168.803L86.6341 164.506L87.2013 163.538L93.5965 167.285L95.9855 163.207L89.5903 159.46L90.1575 158.492L96.5527 162.239Z" fill="white"/>
<path d="M91.3739 152.743C91.4224 152.962 91.3857 153.167 91.2639 153.358C91.1421 153.55 90.9716 153.669 90.7525 153.718C90.5335 153.766 90.3284 153.73 90.1372 153.608C89.9461 153.486 89.8262 153.316 89.7777 153.097C89.7292 152.878 89.7658 152.672 89.8877 152.481C90.0095 152.29 90.1799 152.17 90.399 152.122C90.6181 152.073 90.8232 152.11 91.0144 152.232C91.2055 152.354 91.3253 152.524 91.3739 152.743ZM99.6499 159.369L92.482 154.8L93.085 153.854L100.253 158.422L99.6499 159.369Z" fill="white"/>
<path d="M98.4642 145.846L105.475 150.652L104.84 151.578L102.148 149.732L101.321 150.938L102.533 154.943L101.726 156.12L100.524 152.04C100.056 152.543 99.5048 152.846 98.8716 152.948C98.2384 153.049 97.6414 152.908 97.0806 152.523C96.445 152.088 96.08 151.508 95.9857 150.783C95.8884 150.043 96.0641 149.346 96.5127 148.692L98.4642 145.846ZM99.9619 151.057L101.279 149.136L98.7271 147.386L97.4101 149.307C97.1409 149.7 97.027 150.116 97.0684 150.557C97.1163 150.988 97.3318 151.335 97.715 151.598C98.0983 151.861 98.4997 151.937 98.9192 151.826C99.3451 151.706 99.6927 151.449 99.9619 151.057Z" fill="white"/>
</svg>
