<svg width="494" height="493" viewBox="0 0 494 493" fill="none" xmlns="http://www.w3.org/2000/svg">
<path d="M256.64 452.803C255.832 452.575 255.175 452.164 254.669 451.57C254.152 450.987 253.888 450.276 253.877 449.438C253.861 448.214 254.263 447.251 255.081 446.549C255.888 445.847 256.887 445.489 258.077 445.474C259.006 445.462 259.842 445.661 260.584 446.071C261.314 446.492 261.849 447.115 262.188 447.938L260.197 449.119C259.891 448.205 259.194 447.755 258.106 447.769C257.505 447.776 257.042 447.924 256.717 448.211C256.381 448.51 256.216 448.909 256.223 449.408C256.229 449.895 256.404 450.284 256.748 450.574C257.08 450.865 257.546 451.006 258.147 450.998L258.657 450.992L259.575 452.34L257.268 455.43L261.926 455.371L261.954 457.563L254.475 457.659L254.45 455.721L256.64 452.803Z" fill="black"/>
<path d="M151.565 103.281C80.2252 149.869 50.5303 236.184 72.7783 313.704" stroke="#FFBB00" stroke-width="60" stroke-linecap="round"/>
<path d="M76.4674 323.1C104.356 401.999 179.38 450.739 258.728 448.869" stroke="#D39D07" stroke-width="60" stroke-linecap="round"/>
<path d="M435.739 319.23C411.064 395.134 339.647 449.66 255.946 449.471" stroke="#A87F0E" stroke-width="60" stroke-linecap="round"/>
<path d="M435.113 321.496C462.786 241.238 433.171 155.083 367.965 107.56" stroke="#7C6016" stroke-width="60" stroke-linecap="round"/>
<path d="M371.31 110.434C304.19 58.4539 213.088 58.8336 147.142 105.326" stroke="#51421D" stroke-width="60" stroke-linecap="round"/>
<path d="M151.566 103.281C121.322 123.032 98.563 149.923 84.0731 180.256" stroke="#FFBB00" stroke-width="60" stroke-linecap="round"/>
<path d="M242.184 248.38H244.809V257.69H239.979V253H223.879V228.5H228.709V248.38H237.354V228.5H242.184V248.38ZM260.469 235.5H263.829V253H259.419V243.06L251.194 253H247.834V235.5H252.244V245.44L260.469 235.5ZM284.101 253H278.851L272.481 245.055V253H267.966V235.5H272.481V243.2L278.501 235.5H283.891L276.856 244.145L284.101 253ZM301.37 235.5V253H296.855V239.84H292.025V245.685C292.025 251.098 289.563 253.537 284.64 253V248.765C285.573 248.998 286.285 248.847 286.775 248.31C287.265 247.75 287.51 246.793 287.51 245.44V235.5H301.37ZM195.333 268.01C197.69 268.01 199.697 268.908 201.353 270.705C203.033 272.478 203.873 274.66 203.873 277.25C203.873 279.84 203.033 282.033 201.353 283.83C199.697 285.603 197.69 286.49 195.333 286.49C192.883 286.49 190.993 285.638 189.663 283.935V293H185.148V268.5H189.663V270.565C190.993 268.862 192.883 268.01 195.333 268.01ZM191.028 280.82C191.938 281.73 193.093 282.185 194.493 282.185C195.893 282.185 197.048 281.73 197.958 280.82C198.892 279.887 199.358 278.697 199.358 277.25C199.358 275.803 198.892 274.625 197.958 273.715C197.048 272.782 195.893 272.315 194.493 272.315C193.093 272.315 191.938 272.782 191.028 273.715C190.118 274.625 189.663 275.803 189.663 277.25C189.663 278.697 190.118 279.887 191.028 280.82ZM221.968 283.83C220.171 285.603 217.978 286.49 215.388 286.49C212.798 286.49 210.604 285.603 208.808 283.83C207.034 282.033 206.148 279.84 206.148 277.25C206.148 274.66 207.034 272.478 208.808 270.705C210.604 268.908 212.798 268.01 215.388 268.01C217.978 268.01 220.171 268.908 221.968 270.705C223.764 272.478 224.663 274.66 224.663 277.25C224.663 279.84 223.764 282.033 221.968 283.83ZM211.993 280.715C212.903 281.625 214.034 282.08 215.388 282.08C216.741 282.08 217.873 281.625 218.783 280.715C219.693 279.805 220.148 278.65 220.148 277.25C220.148 275.85 219.693 274.695 218.783 273.785C217.873 272.875 216.741 272.42 215.388 272.42C214.034 272.42 212.903 272.875 211.993 273.785C211.106 274.695 210.663 275.85 210.663 277.25C210.663 278.65 211.106 279.805 211.993 280.715ZM237.41 277.075C239.184 277.938 240.07 279.327 240.07 281.24C240.07 282.733 239.452 283.982 238.215 284.985C236.979 285.988 235.24 286.49 233 286.49C229.454 286.49 227.039 285.09 225.755 282.29L229.43 280.12C229.99 281.707 231.192 282.5 233.035 282.5C233.875 282.5 234.517 282.337 234.96 282.01C235.427 281.683 235.66 281.24 235.66 280.68C235.66 279.607 234.972 279.07 233.595 279.07H231.11V275.22H233C234.354 275.22 235.03 274.683 235.03 273.61C235.03 273.097 234.832 272.688 234.435 272.385C234.039 272.082 233.514 271.93 232.86 271.93C231.344 271.93 230.259 272.665 229.605 274.135L225.965 272.035C227.295 269.352 229.57 268.01 232.79 268.01C234.797 268.01 236.384 268.523 237.55 269.55C238.74 270.553 239.335 271.778 239.335 273.225C239.335 274.928 238.694 276.212 237.41 277.075ZM253.097 268.01C255.454 268.01 257.461 268.908 259.117 270.705C260.797 272.478 261.637 274.66 261.637 277.25C261.637 279.84 260.797 282.033 259.117 283.83C257.461 285.603 255.454 286.49 253.097 286.49C250.647 286.49 248.757 285.638 247.427 283.935V293H242.912V268.5H247.427V270.565C248.757 268.862 250.647 268.01 253.097 268.01ZM248.792 280.82C249.702 281.73 250.857 282.185 252.257 282.185C253.657 282.185 254.812 281.73 255.722 280.82C256.656 279.887 257.122 278.697 257.122 277.25C257.122 275.803 256.656 274.625 255.722 273.715C254.812 272.782 253.657 272.315 252.257 272.315C250.857 272.315 249.702 272.782 248.792 273.715C247.882 274.625 247.427 275.803 247.427 277.25C247.427 278.697 247.882 279.887 248.792 280.82ZM279.731 283.83C277.935 285.603 275.741 286.49 273.151 286.49C270.561 286.49 268.368 285.603 266.571 283.83C264.798 282.033 263.911 279.84 263.911 277.25C263.911 274.66 264.798 272.478 266.571 270.705C268.368 268.908 270.561 268.01 273.151 268.01C275.741 268.01 277.935 268.908 279.731 270.705C281.528 272.478 282.426 274.66 282.426 277.25C282.426 279.84 281.528 282.033 279.731 283.83ZM269.756 280.715C270.666 281.625 271.798 282.08 273.151 282.08C274.505 282.08 275.636 281.625 276.546 280.715C277.456 279.805 277.911 278.65 277.911 277.25C277.911 275.85 277.456 274.695 276.546 273.785C275.636 272.875 274.505 272.42 273.151 272.42C271.798 272.42 270.666 272.875 269.756 273.785C268.87 274.695 268.426 275.85 268.426 277.25C268.426 278.65 268.87 279.805 269.756 280.715ZM293.898 286.49C291.144 286.49 288.916 285.603 287.213 283.83C285.533 282.057 284.693 279.805 284.693 277.075C284.693 274.088 285.136 271.79 286.023 270.18C286.909 268.547 288.694 267.065 291.378 265.735C291.774 265.548 292.334 265.292 293.058 264.965C293.781 264.615 294.271 264.37 294.528 264.23C294.808 264.09 295.181 263.88 295.648 263.6C296.114 263.32 296.441 263.075 296.628 262.865C296.838 262.632 297.059 262.34 297.293 261.99C297.526 261.64 297.713 261.255 297.853 260.835L301.563 262.97C301.259 264.393 300.571 265.502 299.498 266.295C298.448 267.065 296.861 267.858 294.738 268.675C293.244 269.258 292.159 269.842 291.483 270.425C290.806 271.008 290.316 271.708 290.013 272.525C291.319 271.195 293.069 270.53 295.263 270.53C297.199 270.53 298.926 271.242 300.443 272.665C301.959 274.065 302.718 275.932 302.718 278.265C302.718 280.668 301.901 282.64 300.268 284.18C298.658 285.72 296.534 286.49 293.898 286.49ZM290.678 281.17C291.541 281.963 292.603 282.36 293.863 282.36C295.123 282.36 296.161 281.975 296.978 281.205C297.794 280.435 298.203 279.455 298.203 278.265C298.203 277.075 297.794 276.095 296.978 275.325C296.161 274.532 295.111 274.135 293.828 274.135C292.684 274.135 291.658 274.497 290.748 275.22C289.861 275.943 289.418 276.912 289.418 278.125C289.418 279.362 289.838 280.377 290.678 281.17ZM321.596 286H316.346L309.976 278.055V286H305.461V268.5H309.976V276.2L315.996 268.5H321.386L314.351 277.145L321.596 286ZM336.485 268.5H339.845V286H335.435V276.06L327.21 286H323.85V268.5H328.26V278.44L336.485 268.5Z" fill="white"/>
<path d="M372.71 104.074L374.376 105.251L367.507 114.969L365.591 113.615L371.027 105.924L368.832 105.142L369.518 103.171L372.71 104.074Z" fill="black"/>
<path d="M431.299 314.17L432.96 314.725L435.639 319.904C436.255 321.065 436.864 321.746 437.466 321.947C437.907 322.095 438.308 322.073 438.67 321.884C439.029 321.705 439.28 321.4 439.423 320.97C439.707 320.121 439.476 319.345 438.731 318.642L440.452 317.138C441.108 317.751 441.529 318.459 441.715 319.262C441.9 320.065 441.86 320.864 441.595 321.66C441.254 322.681 440.639 323.449 439.749 323.965C438.871 324.484 437.889 324.562 436.803 324.2C435.632 323.808 434.634 322.788 433.811 321.139L432.34 318.192L430.923 322.433L428.779 321.716L431.299 314.17Z" fill="black"/>
<path d="M76.9558 320.42L78.953 319.557L79.4592 320.727L81.3159 319.924L82.254 322.092L80.3973 322.896L82.6312 328.06L80.634 328.924L71.9934 328.346L70.9945 326.037L79.6284 326.599L78.4001 323.759L75.81 324.88L74.8719 322.711L77.462 321.591L76.9558 320.42Z" fill="black"/>
<path d="M149.427 103.396C150.326 102.687 151.296 102.361 152.338 102.419C153.373 102.468 154.27 102.973 155.029 103.934C155.787 104.894 156.056 105.902 155.835 106.957C155.623 108.006 155.05 108.899 154.116 109.636C153.36 110.233 152.56 110.591 151.715 110.709C150.87 110.828 150.058 110.66 149.281 110.206L150.128 108.042C150.949 108.606 151.805 108.537 152.694 107.835C153.165 107.463 153.442 107.064 153.525 106.637C153.609 106.196 153.497 105.779 153.187 105.387C152.885 105.005 152.514 104.8 152.074 104.772C151.633 104.745 151.19 104.907 150.746 105.258L147.917 107.491L144.192 102.007L149.489 97.8239L150.848 99.545L147.259 102.379L148.467 104.155L149.427 103.396Z" fill="black"/>
<path d="M197.638 70.5565L201.245 81.8966L200.111 82.2574L196.844 71.9864L191.012 73.8415L194.279 84.1124L193.145 84.4732L189.538 73.133L197.638 70.5565Z" fill="white"/>
<path d="M210.623 78.32C209.999 79.3568 209.083 80.0295 207.875 80.3381C206.668 80.6467 205.536 80.4972 204.48 79.8896C203.432 79.2683 202.752 78.3482 202.441 77.1294C202.13 75.9105 202.286 74.7827 202.91 73.746C203.542 72.6954 204.463 72.0159 205.67 71.7073C206.878 71.3987 208.006 71.5551 209.054 72.1764C210.11 72.7839 210.793 73.6971 211.105 74.916C211.416 76.1348 211.256 77.2695 210.623 78.32ZM205.06 78.9342C205.846 79.4002 206.695 79.5168 207.606 79.2839C208.517 79.0511 209.206 78.5418 209.672 77.756C210.135 76.9592 210.251 76.1051 210.018 75.1937C209.785 74.2823 209.275 73.5936 208.49 73.1276C207.701 72.6506 206.851 72.5286 205.94 72.7614C205.028 72.9943 204.341 73.5091 203.878 74.3059C203.412 75.0917 203.295 75.9403 203.528 76.8517C203.761 77.7631 204.272 78.4572 205.06 78.9342Z" fill="white"/>
<path d="M218.259 77.9959C217.003 78.2457 215.875 78.0366 214.876 77.3688C213.874 76.6898 213.25 75.7333 213.005 74.4995C212.76 73.2657 212.971 72.149 213.639 71.1495C214.305 70.139 215.265 69.5088 216.521 69.259C217.344 69.0954 218.123 69.1485 218.858 69.4182C219.592 69.6769 220.175 70.1098 220.607 70.7171L219.81 71.413C219.488 70.957 219.048 70.6342 218.491 70.4447C217.942 70.2418 217.356 70.2023 216.734 70.3261C215.811 70.5096 215.097 70.9867 214.592 71.7574C214.084 72.517 213.922 73.3581 214.106 74.2807C214.289 75.2033 214.762 75.9239 215.523 76.4426C216.283 76.9502 217.124 77.1123 218.047 76.9288C218.669 76.805 219.196 76.55 219.628 76.1637C220.057 75.7663 220.361 75.2899 220.54 74.7344L221.563 75.0856C221.351 75.8211 220.95 76.4497 220.361 76.9713C219.771 77.493 219.07 77.8345 218.259 77.9959Z" fill="white"/>
<path d="M228.554 67.4565L228.717 68.5322L225.741 68.9829L226.852 76.3113L225.742 76.4793L224.632 69.1509L221.657 69.6016L221.494 68.5258L228.554 67.4565Z" fill="white"/>
<path d="M237.724 66.469L238.841 66.3561L239.696 74.813L238.579 74.9259L238.412 73.2683C237.759 74.5873 236.683 75.3226 235.183 75.4742C233.977 75.5961 232.902 75.272 231.958 74.5016C231.026 73.7301 230.497 72.7242 230.371 71.4839C230.246 70.2435 230.563 69.1521 231.322 68.2097C232.092 67.2661 233.081 66.7333 234.287 66.6114C235.787 66.4598 236.988 66.9648 237.892 68.1265L237.724 66.469ZM232.693 73.6584C233.401 74.2362 234.222 74.4778 235.158 74.3832C236.094 74.2886 236.851 73.8874 237.429 73.1797C238.005 72.4608 238.246 71.6333 238.152 70.6974C238.057 69.7615 237.656 69.0047 236.948 68.4269C236.239 67.8379 235.417 67.5907 234.481 67.6853C233.545 67.7799 232.789 68.1867 232.212 68.9056C231.635 69.6133 231.393 70.4351 231.488 71.371C231.582 72.3069 231.984 73.0694 232.693 73.6584Z" fill="white"/>
<path d="M247.5 65.8934L248.621 65.84L249.026 74.3304L247.905 74.3838L247.729 70.682L242.838 70.915L243.015 74.6168L241.894 74.6702L241.489 66.1799L242.61 66.1265L242.786 69.8283L247.677 69.5952L247.5 65.8934Z" fill="white"/>
<path d="M258.572 73.2411C257.706 74.0866 256.65 74.5061 255.403 74.4996C254.157 74.4931 253.099 74.0626 252.231 73.2081C251.374 72.3423 250.949 71.2804 250.955 70.0224C250.962 68.7644 251.398 67.7127 252.264 66.8672C253.141 66.0104 254.203 65.5853 255.45 65.5917C256.696 65.5982 257.748 66.0344 258.605 66.9002C259.473 67.7547 259.904 68.8109 259.897 70.0689C259.891 71.3269 259.449 72.3843 258.572 73.2411ZM253.034 72.4303C253.677 73.0796 254.468 73.4067 255.409 73.4116C256.35 73.4165 257.145 73.0977 257.794 72.455C258.443 71.8011 258.77 71.0037 258.775 70.0631C258.78 69.1224 258.461 68.3274 257.819 67.6781C257.176 67.0174 256.385 66.6846 255.444 66.6797C254.503 66.6748 253.708 66.9994 253.059 67.6533C252.409 68.296 252.082 69.0876 252.077 70.0283C252.073 70.9689 252.391 71.7696 253.034 72.4303Z" fill="white"/>
<path d="M267.746 70.3819C268.654 70.7749 269.08 71.4636 269.023 72.4479C268.983 73.1381 268.718 73.6961 268.228 74.1219C267.75 74.537 267.081 74.7197 266.221 74.6701L262.097 74.4319L262.587 65.946L266.372 66.1646C267.198 66.2123 267.825 66.4642 268.252 66.9203C268.681 67.3651 268.876 67.9212 268.837 68.5888C268.788 69.4374 268.424 70.0351 267.746 70.3819ZM266.309 67.2508L263.644 67.0969L263.495 69.6766L266.16 69.8305C267.144 69.8874 267.662 69.4745 267.713 68.592C267.736 68.196 267.623 67.883 267.376 67.653C267.14 67.4123 266.784 67.2782 266.309 67.2508ZM266.284 73.5839C266.782 73.6126 267.168 73.5157 267.442 73.2932C267.727 73.0712 267.882 72.7453 267.907 72.3153C267.93 71.9193 267.812 71.6003 267.553 71.3584C267.307 71.1057 266.935 70.965 266.437 70.9363L263.433 70.7628L263.28 73.4104L266.284 73.5839Z" fill="white"/>
<path d="M277.46 75.6883L275.972 75.5354L272.163 71.0253L271.744 75.1008L270.628 74.9861L271.497 66.5307L272.614 66.6454L272.229 70.3827L276.638 67.0591L278.16 67.2155L273.38 70.8257L277.46 75.6883Z" fill="white"/>
<path d="M287.595 68.6187L288.704 68.7912L287.397 77.1901L286.288 77.0177L286.544 75.3715C285.58 76.4831 284.353 76.9231 282.864 76.6914C281.665 76.5049 280.707 75.92 279.988 74.9365C279.281 73.9547 279.023 72.8479 279.215 71.6161C279.406 70.3842 279.988 69.4081 280.96 68.6876C281.944 67.969 283.035 67.7028 284.233 67.8892C285.723 68.121 286.758 68.9128 287.339 70.2649L287.595 68.6187ZM280.912 74.306C281.451 75.0436 282.185 75.4848 283.115 75.6294C284.044 75.774 284.878 75.5767 285.616 75.0377C286.355 74.4875 286.797 73.7477 286.942 72.8182C287.086 71.8887 286.889 71.0551 286.35 70.3175C285.813 69.5687 285.079 69.122 284.15 68.9774C283.22 68.8328 282.386 69.0356 281.647 69.5858C280.909 70.1248 280.468 70.8591 280.323 71.7885C280.179 72.718 280.375 73.5572 280.912 74.306Z" fill="white"/>
<path d="M299.603 75.3416C300.478 75.9288 300.805 76.7026 300.582 77.6631C300.423 78.3476 300.017 78.8699 299.363 79.2301C298.723 79.5819 297.906 79.6425 296.913 79.4119C295.246 79.0251 294.307 78.1091 294.095 76.6639L295.149 76.3326C295.263 77.3946 295.933 78.0677 297.159 78.3521C297.799 78.5007 298.322 78.4767 298.729 78.2801C299.146 78.0861 299.405 77.7738 299.505 77.3432C299.594 76.9568 299.524 76.6089 299.293 76.2994C299.062 75.9899 298.704 75.7788 298.218 75.6661L297.009 75.3856L297.255 74.3257L298.133 74.5294C298.608 74.6395 299.005 74.6094 299.323 74.4391C299.656 74.2603 299.871 73.9611 299.968 73.5416C300.06 73.1441 299.976 72.7813 299.714 72.4531C299.456 72.1138 299.056 71.8814 298.515 71.7559C297.477 71.5151 296.691 71.769 296.157 72.5176L295.369 71.7763C296.195 70.7231 297.326 70.363 298.761 70.6961C299.633 70.8984 300.275 71.2917 300.686 71.8758C301.1 72.4488 301.23 73.0665 301.076 73.7289C300.879 74.579 300.388 75.1166 299.603 75.3416Z" fill="white"/>
<path d="M310.944 74.123L312.024 74.4283L309.71 82.6075L308.631 82.3021L309.084 80.699C307.992 81.6858 306.721 81.974 305.271 81.5638C304.104 81.2338 303.223 80.5371 302.629 79.4739C302.045 78.4137 301.923 77.2838 302.262 76.0842C302.602 74.8846 303.298 73.9861 304.35 73.3886C305.413 72.7942 306.528 72.662 307.695 72.9921C309.146 73.4023 310.077 74.3136 310.491 75.7261L310.944 74.123ZM303.622 78.9598C304.068 79.7573 304.743 80.284 305.649 80.54C306.554 80.796 307.405 80.7011 308.202 80.2553C309.003 79.7986 309.531 79.1177 309.787 78.2125C310.043 77.3074 309.948 76.4561 309.503 75.6587C309.06 74.8503 308.386 74.3181 307.481 74.0621C306.576 73.8061 305.723 73.9065 304.922 74.3632C304.125 74.809 303.598 75.4844 303.342 76.3896C303.086 77.2948 303.179 78.1515 303.622 78.9598Z" fill="white"/>
<path d="M319.147 84.6505L320.273 85.0365L319.181 88.2205L318.119 87.8565L318.858 85.7017L312.297 83.4515L311.558 85.6063L310.497 85.2423L311.589 82.0584L312.57 82.3948C313.363 81.8641 313.984 80.9447 314.432 79.6369L315.795 75.665L321.552 77.6394L319.147 84.6505ZM313.856 82.836L318.086 84.2865L320.137 78.3045L316.503 77.0581L315.494 80.0009C315.071 81.2337 314.525 82.1788 313.856 82.836Z" fill="white"/>
<path d="M331.774 81.6905L332.813 82.1157L329.592 89.9818L328.553 89.5566L329.185 88.0149C327.989 88.8723 326.693 89.0154 325.298 88.4442C324.176 87.9847 323.379 87.1932 322.909 86.0697C322.449 84.9505 322.455 83.8141 322.927 82.6604C323.399 81.5067 324.192 80.6923 325.305 80.2173C326.429 79.7466 327.551 79.741 328.674 80.2005C330.069 80.7717 330.892 81.7822 331.143 83.2323L331.774 81.6905ZM323.954 85.671C324.307 86.5136 324.919 87.1131 325.789 87.4695C326.66 87.826 327.516 87.8277 328.359 87.4746C329.206 87.1111 329.807 86.4941 330.164 85.6236C330.52 84.753 330.522 83.8965 330.169 83.0539C329.82 82.2008 329.211 81.596 328.34 81.2396C327.47 80.8831 326.611 80.8867 325.764 81.2502C324.921 81.6032 324.322 82.215 323.965 83.0855C323.609 83.956 323.605 84.8179 323.954 85.671Z" fill="white"/>
<path d="M340.392 85.6323L341.407 86.1097L337.79 93.8018L336.775 93.3244L338.149 90.4014C337.41 90.4294 336.604 90.2384 335.732 89.8285C334.727 89.3559 334.066 88.7635 333.75 88.0512C333.449 87.3335 333.513 86.5182 333.942 85.6054L335.099 83.1439L336.115 83.6214L334.957 86.0828C334.654 86.729 334.603 87.2752 334.807 87.7215C335.015 88.1576 335.463 88.5371 336.15 88.8602C336.95 89.2364 337.763 89.4373 338.591 89.463L340.392 85.6323Z" fill="white"/>
<path d="M418.582 168.655L419.243 169.745L416.336 171.508L415.719 170.49L417.667 169.309L410.661 157.752L420.837 151.583L421.454 152.601L412.237 158.188L414.793 162.404L424.01 156.817L424.627 157.834L415.41 163.421L417.966 167.637L427.182 162.05L427.799 163.068L418.582 168.655Z" fill="white"/>
<path d="M423.447 178.215C422.298 177.834 421.441 177.088 420.874 175.978C420.307 174.867 420.204 173.73 420.565 172.567C420.941 171.408 421.689 170.543 422.81 169.971C423.93 169.399 425.065 169.304 426.213 169.685C427.377 170.071 428.242 170.819 428.809 171.929C429.376 173.04 429.471 174.175 429.095 175.333C428.735 176.497 427.994 177.365 426.873 177.936C425.753 178.508 424.611 178.601 423.447 178.215ZM421.625 172.923C421.343 173.792 421.416 174.646 421.843 175.483C422.271 176.321 422.919 176.881 423.788 177.163C424.667 177.44 425.526 177.364 426.364 176.937C427.201 176.509 427.761 175.861 428.043 174.992C428.335 174.118 428.267 173.262 427.84 172.424C427.412 171.586 426.759 171.029 425.88 170.752C425.011 170.47 424.157 170.543 423.319 170.971C422.482 171.398 421.917 172.049 421.625 172.923Z" fill="white"/>
<path d="M427.798 187.711L428.281 188.799L425.205 190.165L424.75 189.14L426.832 188.215L424.016 181.877L421.934 182.801L421.478 181.776L424.555 180.409L424.976 181.357C425.904 181.577 427 181.406 428.264 180.845L432.101 179.14L434.572 184.702L427.798 187.711ZM425.528 182.6L427.343 186.686L433.122 184.119L431.562 180.607L428.719 181.87C427.528 182.4 426.464 182.643 425.528 182.6Z" fill="white"/>
<path d="M437.489 191.497C437.938 192.672 437.881 193.779 437.319 194.818C436.772 195.864 435.932 196.603 434.799 197.036C434.683 197.08 434.515 197.132 434.295 197.192L431.634 190.219C430.87 190.632 430.358 191.216 430.1 191.969C429.856 192.729 429.896 193.533 430.219 194.38C430.45 194.984 430.77 195.456 431.179 195.797C431.603 196.145 432.058 196.353 432.545 196.422L432.357 197.549C431.662 197.414 431.036 197.107 430.477 196.629C429.919 196.151 429.492 195.525 429.197 194.752C428.72 193.503 428.724 192.337 429.209 191.254C429.693 190.171 430.539 189.4 431.746 188.939C432.932 188.487 434.069 188.495 435.158 188.965C436.248 189.435 437.025 190.279 437.489 191.497ZM436.473 191.885C436.158 191.059 435.644 190.46 434.932 190.089C434.235 189.724 433.474 189.638 432.65 189.831L434.911 195.756C435.707 195.331 436.235 194.759 436.495 194.041C436.755 193.323 436.747 192.605 436.473 191.885Z" fill="white"/>
<path d="M441.424 203.535L441.767 204.603L433.676 207.207L433.332 206.139L436.86 205.003L435.36 200.343L431.833 201.478L431.489 200.41L439.58 197.806L439.924 198.874L436.396 200.01L437.896 204.67L441.424 203.535Z" fill="white"/>
<path d="M444.062 212.935L444.353 214.018L436.144 216.222L435.853 215.138L439.432 214.177L438.163 209.449L434.584 210.409L434.293 209.326L442.503 207.122L442.793 208.206L439.214 209.167L440.483 213.895L444.062 212.935Z" fill="white"/>
<path d="M447.292 217.734C447.102 217.614 446.982 217.444 446.931 217.223C446.881 217.002 446.915 216.797 447.035 216.607C447.154 216.417 447.324 216.297 447.545 216.246C447.766 216.196 447.972 216.23 448.162 216.349C448.352 216.469 448.472 216.639 448.523 216.86C448.573 217.081 448.539 217.286 448.419 217.476C448.3 217.666 448.13 217.787 447.909 217.837C447.688 217.888 447.482 217.853 447.292 217.734ZM436.763 218.971L445.05 217.078L445.3 218.172L437.013 220.065L436.763 218.971Z" fill="white"/>
<path d="M443.549 230.902C443.345 231.936 442.758 232.536 441.785 232.702C441.093 232.82 440.454 232.647 439.869 232.183C439.298 231.728 438.926 230.998 438.755 229.993C438.468 228.305 438.95 227.085 440.202 226.332L440.915 227.177C439.979 227.692 439.617 228.57 439.828 229.81C439.938 230.458 440.162 230.932 440.501 231.23C440.841 231.54 441.229 231.658 441.664 231.584C442.055 231.518 442.349 231.318 442.546 230.986C442.742 230.654 442.798 230.242 442.715 229.75L442.507 228.527L443.579 228.344L443.73 229.233C443.812 229.713 443.993 230.067 444.273 230.296C444.567 230.533 444.925 230.616 445.35 230.543C445.752 230.475 446.054 230.257 446.256 229.889C446.469 229.52 446.529 229.061 446.436 228.514C446.257 227.463 445.72 226.836 444.823 226.632L445.202 225.619C446.493 225.975 447.262 226.879 447.509 228.331C447.659 229.214 447.544 229.958 447.164 230.563C446.795 231.166 446.276 231.524 445.605 231.638C444.745 231.784 444.059 231.539 443.549 230.902Z" fill="white"/>
<path d="M444.773 239.863C444.55 240.828 443.95 241.371 442.971 241.492C442.285 241.578 441.688 241.418 441.181 241.013C440.687 240.618 440.386 239.993 440.28 239.138L439.769 235.039L448.204 233.988L448.672 237.75C448.775 238.571 448.64 239.233 448.269 239.736C447.909 240.238 447.397 240.53 446.733 240.613C445.89 240.718 445.236 240.468 444.773 239.863ZM447.593 237.885L447.263 235.236L444.699 235.555L445.029 238.204C445.15 239.182 445.65 239.617 446.527 239.508C446.921 239.459 447.208 239.292 447.39 239.006C447.584 238.731 447.652 238.357 447.593 237.885ZM441.359 239.003C441.421 239.498 441.586 239.86 441.854 240.09C442.124 240.33 442.473 240.424 442.9 240.371C443.294 240.322 443.586 240.148 443.777 239.85C443.981 239.562 444.053 239.171 443.991 238.676L443.619 235.69L440.988 236.018L441.359 239.003Z" fill="white"/>
<path d="M451.364 243.92C451.192 243.776 451.096 243.591 451.075 243.366C451.055 243.14 451.116 242.941 451.26 242.768C451.404 242.596 451.588 242.5 451.814 242.479C452.04 242.459 452.239 242.52 452.411 242.664C452.584 242.808 452.68 242.992 452.701 243.218C452.721 243.444 452.659 243.643 452.516 243.815C452.372 243.988 452.187 244.084 451.962 244.104C451.736 244.125 451.537 244.063 451.364 243.92ZM440.765 243.738L449.23 242.97L449.331 244.087L440.866 244.856L440.765 243.738Z" fill="white"/>
<path d="M449.943 252.989L448.857 253.055L448.674 250.052L441.276 250.504L441.207 249.384L448.605 248.932L448.422 245.928L449.508 245.862L449.943 252.989Z" fill="white"/>
<path d="M450.109 260.928L450.125 261.879L441.626 262.023L441.607 260.901L448.151 260.791L441.522 255.836L441.506 254.884L450.004 254.74L450.023 255.862L443.479 255.973L450.109 260.928Z" fill="white"/>
<path d="M402.636 379.583C402.048 379.967 401.441 380.156 400.815 380.149C400.189 380.142 399.597 379.935 399.038 379.528C398.232 378.941 397.788 378.155 397.706 377.17C397.626 376.201 397.957 375.208 398.697 374.191C399.364 373.275 400.104 372.692 400.916 372.443C401.729 372.193 402.523 372.19 403.3 372.433L403.167 373.597C402.595 373.363 401.995 373.319 401.37 373.466C400.746 373.629 400.158 374.091 399.604 374.852C399.057 375.603 398.803 376.308 398.842 376.967C398.89 377.633 399.189 378.166 399.738 378.566C400.288 378.966 400.873 379.098 401.492 378.96C402.113 378.837 402.668 378.442 403.155 377.773L403.955 376.674L404.862 377.334L404.312 378.09C403.838 378.74 403.626 379.378 403.676 380.003C403.726 380.628 404.012 381.131 404.534 381.511C405.047 381.884 405.601 382 406.195 381.858C406.791 381.732 407.323 381.348 407.79 380.706C408.651 379.525 408.714 378.379 407.979 377.269L409.027 376.813C409.44 377.478 409.638 378.197 409.622 378.97C409.599 379.753 409.291 380.551 408.697 381.367C408.037 382.274 407.247 382.82 406.327 383.005C405.416 383.197 404.58 383.017 403.82 382.463C402.858 381.763 402.463 380.802 402.636 379.583Z" fill="white"/>
<path d="M391.813 385.099L391.061 386.022L388.451 383.897L389.159 383.027L390.926 384.465L395.305 379.086L393.539 377.648L394.247 376.778L396.857 378.903L396.203 379.707C396.426 380.635 397.075 381.535 398.147 382.408L401.403 385.059L397.561 389.779L391.813 385.099ZM395.344 380.762L392.521 384.229L397.425 388.222L399.851 385.243L397.438 383.278C396.428 382.456 395.73 381.617 395.344 380.762Z" fill="white"/>
<path d="M391.112 397.013L390.358 397.843L384.064 392.13L384.819 391.299L386.052 392.419C385.655 391.002 385.963 389.735 386.976 388.619C387.791 387.722 388.807 387.243 390.024 387.184C391.233 387.134 392.299 387.528 393.222 388.366C394.145 389.204 394.64 390.227 394.706 391.435C394.765 392.652 394.386 393.709 393.571 394.607C392.558 395.723 391.327 396.152 389.878 395.893L391.112 397.013ZM390.042 388.303C389.129 388.347 388.357 388.717 387.724 389.414C387.092 390.11 386.798 390.915 386.842 391.827C386.894 392.747 387.269 393.523 387.965 394.156C388.662 394.788 389.466 395.082 390.379 395.038C391.3 395.002 392.076 394.635 392.709 393.939C393.341 393.242 393.631 392.434 393.578 391.514C393.534 390.601 393.164 389.829 392.468 389.197C391.771 388.564 390.962 388.266 390.042 388.303Z" fill="white"/>
<path d="M384.863 403.325L384.066 404.114L378.088 398.071L378.886 397.282L381.157 399.578C381.385 398.874 381.842 398.183 382.527 397.506C383.316 396.725 384.1 396.308 384.878 396.256C385.655 396.221 386.399 396.561 387.108 397.278L389.021 399.212L388.223 400.001L386.31 398.067C385.808 397.56 385.313 397.325 384.824 397.362C384.343 397.408 383.832 397.697 383.292 398.231C382.664 398.853 382.195 399.548 381.887 400.315L384.863 403.325Z" fill="white"/>
<path d="M377.015 410.486L376.176 411.232L370.529 404.878L371.368 404.133L372.475 405.378C372.231 403.927 372.673 402.701 373.799 401.699C374.706 400.894 375.767 400.527 376.983 400.598C378.19 400.677 379.208 401.183 380.036 402.115C380.865 403.047 381.247 404.117 381.184 405.325C381.112 406.541 380.623 407.552 379.717 408.358C378.59 409.359 377.321 409.653 375.908 409.241L377.015 410.486ZM376.881 401.712C375.969 401.658 375.162 401.944 374.458 402.569C373.755 403.194 373.377 403.962 373.323 404.874C373.277 405.795 373.566 406.607 374.191 407.31C374.816 408.013 375.585 408.391 376.497 408.445C377.416 408.507 378.228 408.226 378.931 407.601C379.634 406.976 380.008 406.203 380.055 405.283C380.108 404.371 379.823 403.563 379.198 402.86C378.573 402.157 377.801 401.774 376.881 401.712Z" fill="white"/>
<path d="M367.525 418.308C366.554 419.036 365.471 419.31 364.274 419.13C363.068 418.958 362.091 418.373 361.344 417.375C360.596 416.378 360.308 415.276 360.481 414.07C360.644 412.871 361.211 411.908 362.181 411.181C363.387 410.277 364.677 410.089 366.051 410.617L363.012 406.564L363.91 405.891L371.048 415.412L370.15 416.085L369.151 414.752C369.273 416.219 368.731 417.404 367.525 418.308ZM365.387 411.348C364.483 411.219 363.655 411.436 362.902 412C362.149 412.564 361.708 413.299 361.579 414.203C361.456 415.117 361.677 415.95 362.241 416.702C362.806 417.455 363.54 417.896 364.444 418.025C365.355 418.164 366.187 417.951 366.94 417.387C367.693 416.822 368.13 416.084 368.253 415.17C368.382 414.266 368.165 413.437 367.601 412.685C367.036 411.932 366.299 411.486 365.387 411.348Z" fill="white"/>
<path d="M359.823 423.751C358.778 424.452 357.686 424.645 356.548 424.33C355.406 424.031 354.497 423.379 353.822 422.371C353.752 422.268 353.664 422.116 353.557 421.915L359.755 417.758C359.181 417.106 358.498 416.739 357.706 416.656C356.91 416.589 356.136 416.808 355.383 417.313C354.847 417.672 354.458 418.09 354.217 418.565C353.973 419.056 353.872 419.547 353.915 420.037L352.774 420.106C352.75 419.399 352.908 418.72 353.249 418.068C353.59 417.417 354.104 416.86 354.791 416.4C355.902 415.655 357.039 415.397 358.203 415.627C359.367 415.856 360.308 416.507 361.028 417.581C361.735 418.635 361.981 419.745 361.767 420.912C361.554 422.079 360.905 423.025 359.823 423.751ZM359.217 422.847C359.951 422.355 360.419 421.72 360.622 420.943C360.821 420.182 360.734 419.422 360.361 418.662L355.094 422.193C355.687 422.874 356.362 423.26 357.12 423.353C357.878 423.445 358.577 423.276 359.217 422.847Z" fill="white"/>
<path d="M349.221 425.318C348.184 425.51 347.41 425.185 346.898 424.342C346.533 423.742 346.459 423.084 346.674 422.37C346.886 421.671 347.428 421.057 348.3 420.527C349.763 419.639 351.075 419.637 352.236 420.523L351.713 421.497C350.89 420.817 349.94 420.804 348.865 421.457C348.303 421.798 347.945 422.181 347.792 422.606C347.629 423.036 347.663 423.44 347.892 423.818C348.098 424.157 348.392 424.357 348.773 424.417C349.154 424.477 349.558 424.378 349.984 424.119L351.045 423.474L351.61 424.404L350.84 424.872C350.423 425.125 350.16 425.424 350.051 425.769C349.939 426.129 349.994 426.493 350.218 426.861C350.43 427.21 350.744 427.41 351.16 427.462C351.582 427.524 352.03 427.411 352.505 427.123C353.415 426.57 353.8 425.839 353.659 424.93L354.741 424.909C354.886 426.24 354.329 427.288 353.07 428.053C352.304 428.517 351.571 428.685 350.868 428.554C350.172 428.434 349.647 428.083 349.294 427.502C348.841 426.756 348.817 426.028 349.221 425.318Z" fill="white"/>
<path d="M343.33 433.355L342.286 433.927L341.017 424.039C340.902 423.145 340.998 422.343 341.306 421.631C341.599 420.915 342.087 420.403 342.77 420.093L343.277 421.017C342.328 421.408 341.93 422.298 342.084 423.687L342.143 424.255L349.592 429.925L348.548 430.496L342.322 425.785L343.33 433.355Z" fill="white"/>
<path d="M334.993 437.481L331.272 429.839L332.281 429.348L335.526 436.012L338.98 434.33L337.32 430.921C336.7 429.648 336.518 428.652 336.774 427.935C337.019 427.223 337.58 426.692 338.455 426.341L338.917 427.289C338.306 427.51 337.945 427.856 337.834 428.327C337.712 428.802 337.877 429.503 338.329 430.43L340.465 434.817L334.993 437.481Z" fill="white"/>
<path d="M328.776 436.673C328.048 436.988 327.335 437.026 326.638 436.784C325.935 436.558 325.43 436.091 325.123 435.384C324.817 434.677 324.819 433.984 325.13 433.306C325.436 432.643 325.952 432.153 326.68 431.838L329.846 430.465L333.227 438.264L332.197 438.71L330.913 435.747L328.776 436.673ZM327.113 432.836C326.676 433.025 326.363 433.315 326.174 433.706C325.975 434.101 325.968 434.512 326.153 434.938C326.337 435.364 326.642 435.64 327.067 435.765C327.481 435.894 327.906 435.864 328.343 435.675L330.48 434.748L329.25 431.91L327.113 432.836Z" fill="white"/>
<path d="M320.175 443.556L319.787 442.54L322.597 441.466L319.952 434.542L321 434.142L323.645 441.066L326.456 439.992L326.845 441.008L320.175 443.556Z" fill="white"/>
<path d="M312.31 446.18L311.244 446.531L308.591 438.456L309.657 438.105L310.177 439.688C310.53 438.26 311.423 437.31 312.855 436.839C314.007 436.461 315.127 436.546 316.214 437.096C317.291 437.649 318.023 438.517 318.413 439.702C318.802 440.886 318.727 442.02 318.188 443.104C317.639 444.191 316.788 444.924 315.636 445.302C314.204 445.773 312.922 445.538 311.79 444.598L312.31 446.18ZM315.678 438.077C314.862 437.665 314.008 437.606 313.114 437.9C312.221 438.193 311.568 438.748 311.156 439.563C310.747 440.389 310.69 441.249 310.983 442.143C311.277 443.037 311.832 443.689 312.647 444.101C313.466 444.524 314.322 444.589 315.216 444.295C316.109 444.002 316.761 443.442 317.169 442.615C317.581 441.8 317.64 440.946 317.347 440.052C317.053 439.158 316.497 438.5 315.678 438.077Z" fill="white"/>
<path d="M303.424 448.698L303.134 447.649L306.034 446.846L304.056 439.703L305.137 439.404L307.115 446.547L310.015 445.744L310.305 446.793L303.424 448.698Z" fill="white"/>
<path d="M296.274 450.359L295.114 450.626L296.575 440.764C296.707 439.873 297.017 439.127 297.507 438.526C297.983 437.916 298.592 437.555 299.333 437.442L299.57 438.469C298.55 438.588 297.926 439.336 297.697 440.715L297.6 441.278L303.231 448.756L302.072 449.023L297.358 442.799L296.274 450.359Z" fill="white"/>
<path d="M162.534 433.172L163.069 432.186L166.282 433.929L171.423 424.457L172.469 425.024L167.327 434.497L170.54 436.24L170.005 437.227L162.534 433.172Z" fill="white"/>
<path d="M158.47 427.018C157.395 426.363 156.762 425.453 156.57 424.288C156.363 423.126 156.574 422.027 157.206 420.992C157.27 420.885 157.372 420.741 157.509 420.559L163.881 424.444C164.233 423.649 164.28 422.875 164.023 422.121C163.75 421.371 163.227 420.76 162.453 420.288C161.901 419.952 161.359 419.774 160.827 419.755C160.279 419.739 159.791 419.853 159.363 420.097L158.822 419.09C159.454 418.772 160.138 418.631 160.872 418.667C161.606 418.704 162.327 418.937 163.033 419.368C164.175 420.064 164.886 420.988 165.166 422.141C165.445 423.293 165.249 424.421 164.576 425.524C163.916 426.608 163.011 427.298 161.862 427.593C160.713 427.888 159.583 427.697 158.47 427.018ZM159.036 426.089C159.791 426.549 160.563 426.708 161.353 426.566C162.128 426.428 162.782 426.03 163.315 425.373L157.901 422.072C157.531 422.896 157.464 423.671 157.698 424.398C157.932 425.124 158.378 425.688 159.036 426.089Z" fill="white"/>
<path d="M154.392 413.776C155.451 414.496 156.093 415.447 156.317 416.628C156.536 417.818 156.291 418.933 155.583 419.973C154.876 421.014 153.931 421.646 152.75 421.871C151.563 422.105 150.44 421.861 149.381 421.141C148.688 420.669 148.179 420.077 147.856 419.363C147.526 418.659 147.426 417.94 147.556 417.206L148.611 417.286C148.512 417.835 148.59 418.375 148.846 418.906C149.086 419.439 149.468 419.884 149.993 420.241C150.771 420.771 151.612 420.945 152.516 420.765C153.413 420.594 154.126 420.12 154.656 419.342C155.185 418.565 155.367 417.722 155.203 416.815C155.032 415.918 154.558 415.205 153.78 414.676C153.255 414.319 152.704 414.122 152.126 414.085C151.541 414.057 150.989 414.175 150.468 414.437L150 413.461C150.673 413.097 151.403 412.942 152.188 412.996C152.973 413.051 153.708 413.311 154.392 413.776Z" fill="white"/>
<path d="M139.216 413.511L139.869 412.64L142.276 414.445L146.723 408.516L147.62 409.189L143.174 415.119L145.581 416.924L144.928 417.794L139.216 413.511Z" fill="white"/>
<path d="M132.841 408.336L131.92 407.582L140.612 402.7C141.397 402.259 142.178 402.048 142.953 402.067C143.726 402.07 144.385 402.33 144.928 402.847L144.26 403.663C143.543 402.93 142.569 402.895 141.338 403.558L140.834 403.826L138.368 412.856L137.447 412.102L139.482 404.565L132.841 408.336Z" fill="white"/>
<path d="M128.943 399.389C128.478 398.516 128.575 397.712 129.233 396.978C129.695 396.463 130.25 396.192 130.899 396.165C131.531 396.139 132.168 396.413 132.809 396.988L135.884 399.747L130.209 406.074L127.387 403.543C126.771 402.99 126.438 402.402 126.388 401.779C126.331 401.164 126.525 400.608 126.972 400.11C127.539 399.477 128.196 399.237 128.943 399.389ZM128.113 402.733L130.1 404.515L131.825 402.591L129.839 400.809C129.105 400.151 128.443 400.151 127.852 400.809C127.587 401.104 127.48 401.419 127.53 401.753C127.565 402.088 127.759 402.415 128.113 402.733ZM132.083 397.798C131.712 397.465 131.35 397.3 130.997 397.303C130.635 397.299 130.311 397.457 130.023 397.778C129.758 398.073 129.651 398.396 129.703 398.746C129.738 399.097 129.941 399.439 130.312 399.772L132.552 401.781L134.323 399.807L132.083 397.798Z" fill="white"/>
<path d="M117.834 394.355L117.039 393.563L123.042 387.545L123.837 388.337L122.66 389.517C124.094 389.186 125.345 389.554 126.412 390.618C127.27 391.474 127.7 392.512 127.702 393.73C127.695 394.94 127.252 395.986 126.372 396.869C125.491 397.752 124.446 398.198 123.236 398.207C122.018 398.209 120.979 397.781 120.121 396.925C119.054 395.86 118.683 394.611 119.01 393.176L117.834 394.355ZM126.584 393.695C126.583 392.782 126.249 391.993 125.583 391.328C124.917 390.664 124.128 390.332 123.214 390.334C122.292 390.343 121.499 390.68 120.835 391.346C120.171 392.012 119.839 392.802 119.84 393.716C119.833 394.637 120.163 395.43 120.829 396.095C121.495 396.759 122.289 397.086 123.21 397.077C124.124 397.076 124.913 396.743 125.577 396.077C126.242 395.411 126.577 394.617 126.584 393.695Z" fill="white"/>
<path d="M110.813 386.748L110.062 385.915L116.373 380.222L117.125 381.055L114.373 383.537L117.652 387.173L120.404 384.69L121.156 385.523L114.844 391.217L114.093 390.384L116.845 387.901L113.565 384.266L110.813 386.748Z" fill="white"/>
<path d="M103.917 378.475L103.21 377.604L109.81 372.248L110.517 373.12L107.639 375.455L110.724 379.257L113.602 376.922L114.309 377.793L107.708 383.148L107.001 382.277L109.879 379.942L106.794 376.14L103.917 378.475Z" fill="white"/>
<path d="M97.5091 369.948L104.361 364.918L105.025 365.822L102.394 367.754L103.259 368.932L107.439 369.111L108.284 370.262L104.036 370.049C104.357 370.657 104.46 371.277 104.347 371.908C104.234 372.54 103.904 373.057 103.356 373.459C102.734 373.915 102.066 374.068 101.352 373.918C100.621 373.765 100.021 373.369 99.5514 372.73L97.5091 369.948ZM102.922 370.255L101.544 368.378L99.0501 370.209L100.428 372.086C100.71 372.47 101.066 372.715 101.495 372.821C101.918 372.918 102.317 372.83 102.692 372.555C103.066 372.28 103.27 371.926 103.304 371.493C103.331 371.051 103.204 370.639 102.922 370.255Z" fill="white"/>
<path d="M61.0022 221.851L72.6607 224.236L72.4222 225.402L61.8629 223.242L60.6363 229.238L71.1957 231.398L70.9572 232.564L59.2986 230.179L61.0022 221.851Z" fill="white"/>
<path d="M66.8928 212.407L67.1939 211.256L75.2536 217.124C75.9818 217.654 76.4988 218.276 76.8044 218.988C77.124 219.692 77.1617 220.399 76.9176 221.109L75.8979 220.842C76.2656 219.884 75.8919 218.984 74.7766 218.141L74.3227 217.794L65.0865 219.315L65.3875 218.164L73.0874 216.874L66.8928 212.407Z" fill="white"/>
<path d="M77.2475 208.129C76.8835 209.298 76.1961 210.152 75.1852 210.692C74.1634 211.228 73.0358 211.304 71.8022 210.92C70.4172 210.489 69.4208 209.953 68.813 209.312C68.1945 208.669 67.7777 207.625 67.5626 206.181C67.5177 205.906 67.4748 205.548 67.4338 205.108C67.3962 204.657 67.359 204.319 67.3223 204.094C67.289 203.858 67.2336 203.598 67.1563 203.312C67.0681 203.024 66.9451 202.79 66.7874 202.61C66.6297 202.43 66.4207 202.282 66.1603 202.165L66.9101 201.473C67.1563 201.597 67.3728 201.759 67.5596 201.96C67.7464 202.161 67.8882 202.353 67.9851 202.538C68.0853 202.711 68.1765 202.971 68.2586 203.317C68.3333 203.649 68.3833 203.908 68.4084 204.094C68.4262 204.266 68.4556 204.572 68.4965 205.012C68.5409 205.441 68.5699 205.729 68.5836 205.876C68.6723 206.734 68.8396 207.398 69.0855 207.866C69.3205 208.331 69.6958 208.727 70.2113 209.053C69.8389 208.534 69.6268 207.957 69.5748 207.324C69.5153 206.676 69.5699 206.082 69.7384 205.541C70.0754 204.459 70.7105 203.677 71.6437 203.196C72.5695 202.701 73.5842 202.626 74.6879 202.969C75.7808 203.31 76.5718 203.972 77.0609 204.955C77.5425 205.924 77.6047 206.982 77.2475 208.129ZM76.1762 207.795C76.4391 206.951 76.4005 206.18 76.0604 205.48C75.7129 204.766 75.1442 204.287 74.3543 204.041C73.5535 203.791 72.818 203.847 72.1477 204.208C71.4699 204.555 70.9979 205.156 70.7316 206.011C70.4924 206.779 70.5185 207.553 70.8099 208.332C71.0906 209.108 71.6313 209.62 72.432 209.87C73.2544 210.126 74.0183 210.055 74.7237 209.658C75.4326 209.249 75.9167 208.628 76.1762 207.795Z" fill="white"/>
<path d="M73.7998 191.6L81.768 194.56L81.3774 195.612L74.4291 193.031L73.0915 196.633L76.6453 197.953C77.9734 198.446 78.7924 199.04 79.1023 199.735C79.4162 200.42 79.3776 201.192 78.9863 202.05L77.9983 201.683C78.2869 201.101 78.3092 200.602 78.0651 200.184C77.825 199.757 77.2215 199.363 76.2547 199.004L71.681 197.306L73.7998 191.6Z" fill="white"/>
<path d="M73.6156 186.669C73.702 186.876 73.7021 187.085 73.616 187.294C73.5298 187.504 73.3832 187.652 73.1761 187.739C72.969 187.825 72.7607 187.825 72.551 187.739C72.3414 187.653 72.1933 187.506 72.1069 187.299C72.0204 187.092 72.0203 186.884 72.1065 186.674C72.1926 186.464 72.3393 186.316 72.5463 186.23C72.7534 186.143 72.9618 186.143 73.1714 186.229C73.3811 186.316 73.5291 186.462 73.6156 186.669ZM82.9313 191.73L75.0694 188.498L75.4959 187.461L83.3578 190.692L82.9313 191.73Z" fill="white"/>
<path d="M87.4897 181.297L86.8739 182.66L81.3908 184.847L85.1246 186.534L84.6628 187.556L76.9162 184.058L77.378 183.035L80.802 184.581L79.0434 179.348L79.6732 177.953L81.5862 183.63L87.4897 181.297Z" fill="white"/>
<path d="M84.1785 169.001L84.6902 168.002L92.255 171.878L91.7434 172.877L90.2607 172.117C91.0136 173.382 91.0465 174.685 90.3591 176.026C89.8062 177.105 88.95 177.832 87.7907 178.206C86.6365 178.569 85.5047 178.467 84.3952 177.899C83.2857 177.33 82.5414 176.471 82.1624 175.322C81.7886 174.163 81.8782 173.043 82.4311 171.964C83.1184 170.623 84.1952 169.888 85.6613 169.761L84.1785 169.001ZM87.4819 177.131C88.3514 176.85 89.0007 176.291 89.4296 175.454C89.8585 174.617 89.9328 173.764 89.6524 172.894C89.362 172.02 88.7982 171.368 87.961 170.939C87.1238 170.51 86.2705 170.436 85.401 170.716C84.5214 170.991 83.8671 171.547 83.4382 172.385C83.0093 173.222 82.94 174.078 83.2305 174.952C83.5108 175.822 84.0696 176.471 84.9068 176.9C85.744 177.329 86.6024 177.406 87.4819 177.131Z" fill="white"/>
<path d="M96.5532 162.239L97.2407 161.066L100.145 162.767L99.5778 163.735L97.6123 162.584L93.9685 168.803L86.6346 164.506L87.2017 163.538L93.597 167.285L95.986 163.207L89.5908 159.46L90.158 158.492L96.5532 162.239Z" fill="white"/>
<path d="M91.3743 152.743C91.4229 152.962 91.3862 153.167 91.2644 153.358C91.1426 153.55 90.9721 153.669 90.753 153.718C90.534 153.766 90.3288 153.73 90.1377 153.608C89.9466 153.486 89.8267 153.316 89.7782 153.097C89.7297 152.878 89.7663 152.672 89.8882 152.481C90.01 152.29 90.1804 152.17 90.3995 152.122C90.6186 152.073 90.8237 152.11 91.0149 152.232C91.206 152.354 91.3258 152.524 91.3743 152.743ZM99.6503 159.369L92.4825 154.8L93.0855 153.854L100.253 158.422L99.6503 159.369Z" fill="white"/>
<path d="M98.4647 145.846L105.475 150.652L104.841 151.578L102.149 149.732L101.322 150.938L102.534 154.943L101.726 156.12L100.525 152.04C100.056 152.543 99.5053 152.846 98.8721 152.948C98.2389 153.049 97.6419 152.908 97.0811 152.523C96.4454 152.088 96.0805 151.508 95.9862 150.783C95.8889 150.043 96.0646 149.346 96.5132 148.692L98.4647 145.846ZM99.9624 151.057L101.279 149.136L98.7275 147.386L97.4105 149.307C97.1414 149.7 97.0275 150.116 97.0689 150.557C97.1168 150.988 97.3323 151.335 97.7155 151.598C98.0988 151.861 98.5002 151.937 98.9197 151.826C99.3456 151.706 99.6932 151.449 99.9624 151.057Z" fill="white"/>
<path d="M249.341 451.945C248.54 451.696 247.894 451.268 247.403 450.661C246.901 450.065 246.656 449.348 246.667 448.509C246.683 447.285 247.11 446.333 247.946 445.653C248.771 444.972 249.779 444.64 250.969 444.656C251.898 444.668 252.728 444.889 253.459 445.318C254.179 445.759 254.697 446.395 255.015 447.226L252.994 448.355C252.711 447.433 252.026 446.965 250.938 446.951C250.337 446.943 249.871 447.078 249.539 447.357C249.195 447.647 249.019 448.042 249.013 448.54C249.006 449.028 249.171 449.421 249.507 449.72C249.832 450.019 250.294 450.173 250.895 450.181L251.405 450.187L252.288 451.559L249.901 454.588L254.559 454.65L254.53 456.843L247.05 456.743L247.076 454.805L249.341 451.945Z" fill="black"/>
</svg>
