<svg width="494" height="493" viewBox="0 0 494 493" fill="none" xmlns="http://www.w3.org/2000/svg">
<path d="M256.64 452.803C255.832 452.575 255.175 452.164 254.669 451.57C254.152 450.987 253.888 450.276 253.877 449.438C253.861 448.214 254.263 447.251 255.081 446.549C255.888 445.847 256.887 445.489 258.077 445.474C259.006 445.462 259.842 445.661 260.584 446.071C261.314 446.492 261.849 447.115 262.188 447.938L260.197 449.119C259.891 448.205 259.194 447.755 258.106 447.769C257.505 447.776 257.042 447.924 256.717 448.211C256.381 448.51 256.216 448.909 256.223 449.408C256.229 449.895 256.404 450.284 256.748 450.574C257.08 450.865 257.546 451.006 258.147 450.998L258.657 450.992L259.575 452.34L257.268 455.43L261.926 455.371L261.954 457.563L254.475 457.659L254.45 455.721L256.64 452.803Z" fill="black"/>
<path d="M151.565 103.281C80.2252 149.869 50.5303 236.184 72.7783 313.704" stroke="#FFBB00" stroke-width="60" stroke-linecap="round"/>
<path d="M76.4674 323.1C104.356 401.999 179.38 450.739 258.728 448.869" stroke="#D39D07" stroke-width="60" stroke-linecap="round"/>
<path d="M435.739 319.23C411.064 395.134 339.647 449.66 255.946 449.471" stroke="#A87F0E" stroke-width="60" stroke-linecap="round"/>
<path d="M435.113 321.496C462.786 241.238 433.171 155.083 367.965 107.56" stroke="#7C6016" stroke-width="60" stroke-linecap="round"/>
<path d="M371.31 110.434C304.19 58.4539 213.088 58.8336 147.142 105.326" stroke="#51421D" stroke-width="60" stroke-linecap="round"/>
<path d="M151.566 103.281C121.322 123.032 98.563 149.923 84.0731 180.256" stroke="#FFBB00" stroke-width="60" stroke-linecap="round"/>
<path d="M173.789 229.6C176.861 229.6 179.421 230.677 181.469 232.832C183.538 234.987 184.573 237.643 184.573 240.8C184.573 243.957 183.538 246.613 181.469 248.768C179.421 250.923 176.861 252 173.789 252H164.893V229.6H173.789ZM173.789 247.776C175.73 247.776 177.309 247.136 178.525 245.856C179.741 244.555 180.349 242.869 180.349 240.8C180.349 238.731 179.741 237.056 178.525 235.776C177.309 234.475 175.73 233.824 173.789 233.824H169.309V247.776H173.789ZM191.001 245.696C191.556 247.701 193.06 248.704 195.513 248.704C197.092 248.704 198.286 248.171 199.097 247.104L202.425 249.024C200.846 251.307 198.521 252.448 195.449 252.448C192.804 252.448 190.681 251.648 189.081 250.048C187.481 248.448 186.681 246.432 186.681 244C186.681 241.589 187.47 239.584 189.049 237.984C190.628 236.363 192.654 235.552 195.129 235.552C197.476 235.552 199.406 236.363 200.921 237.984C202.457 239.605 203.225 241.611 203.225 244C203.225 244.533 203.172 245.099 203.065 245.696H191.001ZM190.937 242.496H199.097C198.862 241.408 198.372 240.597 197.625 240.064C196.9 239.531 196.068 239.264 195.129 239.264C194.02 239.264 193.102 239.552 192.377 240.128C191.652 240.683 191.172 241.472 190.937 242.496ZM216.01 236H220.554L214.474 252H209.77L203.69 236H208.234L212.106 247.2L216.01 236ZM225.407 245.696C225.962 247.701 227.466 248.704 229.919 248.704C231.498 248.704 232.693 248.171 233.503 247.104L236.831 249.024C235.253 251.307 232.927 252.448 229.855 252.448C227.21 252.448 225.087 251.648 223.487 250.048C221.887 248.448 221.087 246.432 221.087 244C221.087 241.589 221.877 239.584 223.455 237.984C225.034 236.363 227.061 235.552 229.535 235.552C231.882 235.552 233.813 236.363 235.327 237.984C236.863 239.605 237.631 241.611 237.631 244C237.631 244.533 237.578 245.099 237.471 245.696H225.407ZM225.343 242.496H233.503C233.269 241.408 232.778 240.597 232.031 240.064C231.306 239.531 230.474 239.264 229.535 239.264C228.426 239.264 227.509 239.552 226.783 240.128C226.058 240.683 225.578 241.472 225.343 242.496ZM240.513 252V228.64H244.641V252H240.513ZM262.051 250.016C260.409 251.637 258.403 252.448 256.035 252.448C253.667 252.448 251.662 251.637 250.019 250.016C248.398 248.373 247.587 246.368 247.587 244C247.587 241.632 248.398 239.637 250.019 238.016C251.662 236.373 253.667 235.552 256.035 235.552C258.403 235.552 260.409 236.373 262.051 238.016C263.694 239.637 264.515 241.632 264.515 244C264.515 246.368 263.694 248.373 262.051 250.016ZM252.931 247.168C253.763 248 254.798 248.416 256.035 248.416C257.273 248.416 258.307 248 259.139 247.168C259.971 246.336 260.387 245.28 260.387 244C260.387 242.72 259.971 241.664 259.139 240.832C258.307 240 257.273 239.584 256.035 239.584C254.798 239.584 253.763 240 252.931 240.832C252.121 241.664 251.715 242.72 251.715 244C251.715 245.28 252.121 246.336 252.931 247.168ZM276.731 235.552C278.886 235.552 280.721 236.373 282.235 238.016C283.771 239.637 284.539 241.632 284.539 244C284.539 246.368 283.771 248.373 282.235 250.016C280.721 251.637 278.886 252.448 276.731 252.448C274.491 252.448 272.763 251.669 271.547 250.112V258.4H267.419V236H271.547V237.888C272.763 236.331 274.491 235.552 276.731 235.552ZM272.795 247.264C273.627 248.096 274.683 248.512 275.963 248.512C277.243 248.512 278.299 248.096 279.131 247.264C279.985 246.411 280.411 245.323 280.411 244C280.411 242.677 279.985 241.6 279.131 240.768C278.299 239.915 277.243 239.488 275.963 239.488C274.683 239.488 273.627 239.915 272.795 240.768C271.963 241.6 271.547 242.677 271.547 244C271.547 245.323 271.963 246.411 272.795 247.264ZM305.147 235.552C306.981 235.552 308.443 236.149 309.531 237.344C310.64 238.539 311.195 240.139 311.195 242.144V252H307.067V242.432C307.067 241.472 306.832 240.725 306.363 240.192C305.893 239.659 305.232 239.392 304.378 239.392C303.44 239.392 302.704 239.701 302.171 240.32C301.659 240.939 301.403 241.835 301.403 243.008V252H297.275V242.432C297.275 241.472 297.04 240.725 296.571 240.192C296.101 239.659 295.44 239.392 294.587 239.392C293.669 239.392 292.933 239.701 292.379 240.32C291.845 240.939 291.579 241.835 291.579 243.008V252H287.451V236H291.579V237.696C292.539 236.267 294.021 235.552 296.027 235.552C297.989 235.552 299.44 236.32 300.379 237.856C301.445 236.32 303.035 235.552 305.147 235.552ZM318.189 245.696C318.743 247.701 320.247 248.704 322.701 248.704C324.279 248.704 325.474 248.171 326.285 247.104L329.613 249.024C328.034 251.307 325.709 252.448 322.637 252.448C319.991 252.448 317.869 251.648 316.269 250.048C314.669 248.448 313.868 246.432 313.868 244C313.868 241.589 314.658 239.584 316.237 237.984C317.815 236.363 319.842 235.552 322.317 235.552C324.663 235.552 326.594 236.363 328.109 237.984C329.645 239.605 330.413 241.611 330.413 244C330.413 244.533 330.359 245.099 330.253 245.696H318.189ZM318.125 242.496H326.285C326.05 241.408 325.559 240.597 324.813 240.064C324.087 239.531 323.255 239.264 322.317 239.264C321.207 239.264 320.29 239.552 319.565 240.128C318.839 240.683 318.359 241.472 318.125 242.496ZM342.19 235.552C343.94 235.552 345.38 236.139 346.51 237.312C347.662 238.485 348.238 240.107 348.238 242.176V252H344.11V242.688C344.11 241.621 343.822 240.811 343.246 240.256C342.67 239.68 341.902 239.392 340.942 239.392C339.876 239.392 339.022 239.723 338.382 240.384C337.742 241.045 337.422 242.037 337.422 243.36V252H333.294V236H337.422V237.792C338.425 236.299 340.014 235.552 342.19 235.552ZM360.915 239.968H357.299V246.624C357.299 247.179 357.438 247.584 357.715 247.84C357.992 248.096 358.398 248.245 358.931 248.288C359.464 248.309 360.126 248.299 360.915 248.256V252C358.078 252.32 356.072 252.053 354.899 251.2C353.747 250.347 353.171 248.821 353.171 246.624V239.968H350.387V236H353.171V232.768L357.299 231.52V236H360.915V239.968ZM233.567 285.448C231.156 285.448 229.14 284.637 227.519 283.016C225.919 281.395 225.118 279.389 225.118 277C225.118 274.611 225.919 272.605 227.519 270.984C229.14 269.363 231.156 268.552 233.567 268.552C235.124 268.552 236.543 268.925 237.823 269.672C239.103 270.419 240.073 271.421 240.735 272.68L237.183 274.76C236.863 274.099 236.372 273.576 235.711 273.192C235.071 272.808 234.345 272.616 233.535 272.616C232.297 272.616 231.273 273.032 230.463 273.864C229.652 274.675 229.247 275.72 229.247 277C229.247 278.259 229.652 279.304 230.463 280.136C231.273 280.947 232.297 281.352 233.535 281.352C234.367 281.352 235.103 281.171 235.743 280.808C236.404 280.424 236.895 279.901 237.215 279.24L240.799 281.288C240.095 282.547 239.103 283.56 237.823 284.328C236.543 285.075 235.124 285.448 233.567 285.448ZM253.539 269H257.955L252.131 285C251.299 287.304 250.189 288.968 248.803 289.992C247.437 291.037 245.731 291.507 243.683 291.4V287.56C244.792 287.581 245.667 287.347 246.307 286.856C246.968 286.365 247.491 285.576 247.875 284.488L241.315 269H245.827L249.987 279.752L253.539 269ZM266.91 285.448C264.5 285.448 262.484 284.637 260.862 283.016C259.262 281.395 258.462 279.389 258.462 277C258.462 274.611 259.262 272.605 260.862 270.984C262.484 269.363 264.5 268.552 266.91 268.552C268.468 268.552 269.886 268.925 271.166 269.672C272.446 270.419 273.417 271.421 274.078 272.68L270.526 274.76C270.206 274.099 269.716 273.576 269.054 273.192C268.414 272.808 267.689 272.616 266.878 272.616C265.641 272.616 264.617 273.032 263.806 273.864C262.996 274.675 262.59 275.72 262.59 277C262.59 278.259 262.996 279.304 263.806 280.136C264.617 280.947 265.641 281.352 266.878 281.352C267.71 281.352 268.446 281.171 269.086 280.808C269.748 280.424 270.238 279.901 270.558 279.24L274.142 281.288C273.438 282.547 272.446 283.56 271.166 284.328C269.886 285.075 268.468 285.448 266.91 285.448ZM276.326 285V261.64H280.454V285H276.326ZM287.72 278.696C288.274 280.701 289.778 281.704 292.232 281.704C293.81 281.704 295.005 281.171 295.816 280.104L299.144 282.024C297.565 284.307 295.24 285.448 292.168 285.448C289.522 285.448 287.4 284.648 285.8 283.048C284.2 281.448 283.4 279.432 283.4 277C283.4 274.589 284.189 272.584 285.768 270.984C287.346 269.363 289.373 268.552 291.848 268.552C294.194 268.552 296.125 269.363 297.64 270.984C299.176 272.605 299.944 274.611 299.944 277C299.944 277.533 299.89 278.099 299.784 278.696H287.72ZM287.656 275.496H295.816C295.581 274.408 295.09 273.597 294.344 273.064C293.618 272.531 292.786 272.264 291.848 272.264C290.738 272.264 289.821 272.552 289.096 273.128C288.37 273.683 287.89 274.472 287.656 275.496Z" fill="white"/>
<path d="M372.71 104.074L374.376 105.251L367.507 114.969L365.591 113.615L371.027 105.924L368.832 105.142L369.518 103.171L372.71 104.074Z" fill="black"/>
<path d="M431.299 314.17L432.96 314.725L435.639 319.904C436.255 321.065 436.864 321.746 437.466 321.947C437.907 322.095 438.308 322.073 438.67 321.884C439.029 321.705 439.28 321.4 439.423 320.97C439.707 320.121 439.476 319.345 438.731 318.642L440.452 317.138C441.108 317.751 441.529 318.459 441.715 319.262C441.9 320.065 441.86 320.864 441.595 321.66C441.254 322.681 440.639 323.449 439.749 323.965C438.871 324.484 437.889 324.562 436.803 324.2C435.632 323.808 434.634 322.788 433.811 321.139L432.34 318.192L430.923 322.433L428.779 321.716L431.299 314.17Z" fill="black"/>
<path d="M246.341 450.945C245.54 450.697 244.894 450.269 244.403 449.661C243.901 449.065 243.656 448.348 243.667 447.509C243.683 446.285 244.11 445.333 244.946 444.653C245.771 443.973 246.779 443.64 247.969 443.656C248.898 443.669 249.728 443.889 250.459 444.318C251.179 444.759 251.697 445.395 252.015 446.226L249.994 447.356C249.711 446.434 249.026 445.966 247.938 445.951C247.337 445.943 246.871 446.079 246.539 446.357C246.195 446.648 246.019 447.042 246.013 447.541C246.006 448.028 246.171 448.421 246.507 448.72C246.832 449.019 247.294 449.173 247.895 449.181L248.405 449.188L249.288 450.559L246.901 453.588L251.559 453.65L251.53 455.843L244.05 455.743L244.076 453.805L246.341 450.945Z" fill="black"/>
<path d="M76.9558 320.42L78.953 319.557L79.4592 320.727L81.3159 319.924L82.254 322.092L80.3973 322.896L82.6312 328.06L80.634 328.924L71.9934 328.346L70.9945 326.037L79.6284 326.599L78.4001 323.759L75.81 324.88L74.8719 322.711L77.462 321.591L76.9558 320.42Z" fill="black"/>
<path d="M149.427 103.396C150.326 102.687 151.296 102.361 152.338 102.419C153.373 102.468 154.27 102.973 155.029 103.934C155.787 104.894 156.056 105.902 155.835 106.957C155.623 108.006 155.05 108.899 154.116 109.636C153.36 110.233 152.56 110.591 151.715 110.709C150.87 110.828 150.058 110.66 149.281 110.206L150.128 108.042C150.949 108.606 151.805 108.537 152.694 107.835C153.165 107.463 153.442 107.064 153.525 106.637C153.609 106.196 153.497 105.779 153.187 105.387C152.885 105.005 152.514 104.8 152.074 104.772C151.633 104.745 151.19 104.907 150.746 105.258L147.917 107.491L144.192 102.007L149.489 97.8239L150.848 99.545L147.259 102.379L148.467 104.155L149.427 103.396Z" fill="black"/>
<path d="M199.391 73.8327L199.669 74.9196L196.128 75.8262L198.802 86.2674L197.649 86.5626L194.975 76.1214L191.435 77.0279L191.156 75.941L199.391 73.8327Z" fill="white"/>
<path d="M215.051 74.1305L216.155 73.9294L217.678 82.2918L216.574 82.4929L216.276 80.8539C215.73 82.2205 214.715 83.0389 213.232 83.309C212.039 83.5264 210.942 83.2886 209.94 82.5955C208.95 81.9005 208.343 80.9397 208.119 79.7133C207.896 78.4868 208.125 77.3737 208.807 76.3739C209.5 75.3722 210.443 74.7626 211.636 74.5453C213.119 74.2751 214.357 74.6832 215.349 75.7695L215.051 74.1305ZM210.606 81.6967C211.357 82.2164 212.196 82.392 213.121 82.2234C214.046 82.0548 214.769 81.5949 215.289 80.8436C215.807 80.0811 215.981 79.2371 215.813 78.3117C215.644 77.3863 215.184 76.6637 214.433 76.1439C213.679 75.613 212.84 75.4318 211.914 75.6004C210.989 75.769 210.267 76.2346 209.75 76.997C209.23 77.7484 209.054 78.5867 209.223 79.5122C209.392 80.4376 209.853 81.1658 210.606 81.6967Z" fill="white"/>
<path d="M225.204 74.9107C225.248 75.2935 225.452 75.5781 225.816 75.7645C226.179 75.9509 226.61 76.0783 227.109 76.1465C227.607 76.2148 228.107 76.3 228.61 76.402C229.111 76.4928 229.551 76.699 229.93 77.0205C230.308 77.3308 230.53 77.773 230.596 78.3473C230.678 79.0679 230.458 79.6863 229.936 80.2026C229.425 80.7176 228.719 81.0268 227.818 81.1302C227.007 81.2233 226.294 81.1226 225.678 80.8282C225.074 80.5325 224.626 80.1105 224.335 79.5621L225.217 78.8962C225.425 79.3172 225.747 79.634 226.182 79.8464C226.627 80.0463 227.131 80.1139 227.694 80.0493C228.245 79.986 228.695 79.826 229.042 79.5694C229.387 79.3016 229.534 78.9369 229.481 78.4752C229.437 78.0924 229.233 77.8078 228.869 77.6214C228.506 77.435 228.075 77.3076 227.576 77.2393C227.078 77.1711 226.578 77.0915 226.077 77.0007C225.575 76.8987 225.135 76.6925 224.757 76.3822C224.378 76.0607 224.156 75.6128 224.09 75.0386C224.011 74.3518 224.215 73.7465 224.703 73.2229C225.201 72.6979 225.867 72.3876 226.701 72.292C227.387 72.2131 228.008 72.3016 228.562 72.5574C229.115 72.802 229.545 73.1746 229.854 73.6754L228.987 74.3224C228.57 73.5718 227.849 73.2552 226.825 73.3729C226.34 73.4284 225.937 73.5945 225.616 73.871C225.292 74.1362 225.155 74.4828 225.204 74.9107Z" fill="white"/>
<path d="M244.715 79.6177L243.221 79.6969L238.76 75.8304L238.977 79.9217L237.857 79.981L237.227 68.0977L238.347 68.0384L238.726 75.1853L242.568 71.2195L244.096 71.1386L239.931 75.4449L244.715 79.6177Z" fill="white"/>
<path d="M252.661 73.2195C252.658 73.6048 252.825 73.9122 253.163 74.1418C253.501 74.3713 253.913 74.5504 254.4 74.6792C254.886 74.808 255.372 74.9538 255.858 75.1165C256.344 75.268 256.756 75.5264 257.092 75.892C257.429 76.2462 257.596 76.7122 257.591 77.2902C257.585 78.0155 257.291 78.6024 256.709 79.0508C256.138 79.4994 255.4 79.7198 254.493 79.7122C253.677 79.7053 252.982 79.5181 252.407 79.1506C251.843 78.7831 251.451 78.3095 251.229 77.7296L252.185 77.1766C252.34 77.6199 252.621 77.9737 253.026 78.2378C253.444 78.4906 253.936 78.6194 254.502 78.6242C255.058 78.6289 255.523 78.5252 255.899 78.313C256.275 78.0895 256.465 77.7454 256.469 77.2808C256.472 76.8954 256.305 76.588 255.966 76.3585C255.628 76.129 255.216 75.9498 254.73 75.821C254.244 75.6923 253.758 75.5522 253.271 75.4007C252.785 75.2379 252.374 74.9795 252.037 74.6253C251.7 74.2598 251.534 73.788 251.539 73.21C251.545 72.5187 251.822 71.943 252.369 71.483C252.929 71.023 253.628 70.7966 254.466 70.8036C255.158 70.8095 255.763 70.9732 256.281 71.295C256.8 71.6053 257.182 72.0279 257.427 72.5627L256.487 73.0988C256.165 72.3027 255.488 71.9003 254.457 71.8916C253.97 71.8875 253.549 72.0029 253.196 72.238C252.843 72.4617 252.664 72.7888 252.661 73.2195Z" fill="white"/>
<path d="M276.066 74.4406C276.022 74.8234 276.157 75.1466 276.469 75.4102C276.781 75.6738 277.172 75.8949 277.643 76.0738C278.113 76.2526 278.581 76.4483 279.047 76.6609C279.515 76.8622 279.897 77.1622 280.194 77.5609C280.492 77.9483 280.609 78.4292 280.544 79.0035C280.462 79.7242 280.108 80.2772 279.483 80.6625C278.869 81.0491 278.111 81.1912 277.21 81.089C276.4 80.997 275.728 80.7383 275.194 80.3127C274.672 79.8885 274.331 79.3764 274.171 78.7766L275.18 78.3265C275.288 78.7835 275.53 79.1646 275.906 79.4696C276.294 79.7646 276.77 79.9441 277.333 80.0079C277.885 80.0706 278.359 80.016 278.755 79.8442C279.152 79.6611 279.377 79.3387 279.429 78.877C279.472 78.4941 279.338 78.1709 279.026 77.9074C278.713 77.6438 278.322 77.4226 277.852 77.2438C277.382 77.065 276.913 76.8749 276.445 76.6736C275.979 76.461 275.597 76.161 275.299 75.7736C275.002 75.3749 274.886 74.8884 274.951 74.3141C275.029 73.6271 275.364 73.0835 275.957 72.6831C276.561 72.284 277.28 72.1317 278.113 72.2263C278.8 72.3042 279.385 72.5303 279.867 72.9043C280.351 73.2672 280.686 73.7273 280.874 74.2846L279.884 74.7198C279.646 73.8944 279.015 73.4236 277.991 73.3074C277.507 73.2524 277.076 73.3234 276.701 73.5203C276.326 73.7059 276.114 74.0126 276.066 74.4406Z" fill="white"/>
<path d="M292.642 74.344C293.881 74.565 294.801 75.184 295.402 76.2008C296.016 77.2084 296.217 78.3091 296.004 79.503C295.982 79.6257 295.94 79.7966 295.878 80.0158L288.531 78.7045C288.491 79.5724 288.728 80.3111 289.241 80.9207C289.767 81.5211 290.476 81.901 291.369 82.0603C292.005 82.1738 292.574 82.1431 293.077 81.9681C293.594 81.7839 294.007 81.5008 294.317 81.1187L295.186 81.8609C294.712 82.3865 294.127 82.7655 293.429 82.9979C292.731 83.2302 291.975 83.2737 291.161 83.1284C289.844 82.8934 288.847 82.2894 288.169 81.3165C287.49 80.3435 287.265 79.221 287.492 77.9491C287.715 76.6996 288.308 75.7291 289.272 75.0376C290.236 74.3462 291.359 74.115 292.642 74.344ZM292.451 75.4151C291.581 75.2598 290.803 75.3915 290.118 75.8104C289.447 76.22 288.981 76.8277 288.722 77.6334L294.965 78.7476C295.01 77.8462 294.793 77.0994 294.311 76.5069C293.83 75.9144 293.21 75.5505 292.451 75.4151Z" fill="white"/>
<path d="M307.966 78.9593L305.587 78.3822L304.373 83.388C304.264 83.8396 304.273 84.1858 304.401 84.4268C304.532 84.6568 304.772 84.8201 305.122 84.9166C305.474 85.0021 305.918 85.0979 306.452 85.2041L306.219 86.1624C305.02 86.058 304.17 85.7644 303.669 85.2813C303.179 84.801 303.05 84.0817 303.283 83.1235L304.497 78.1177L302.762 77.6969L303.019 76.6395L304.754 77.0603L305.235 75.0778L306.405 75.0119L305.844 77.3248L308.223 77.9019L307.966 78.9593Z" fill="white"/>
<path d="M319.799 82.2976L317.455 81.5916L315.97 86.5238C315.836 86.9687 315.826 87.315 315.941 87.5626C316.059 87.7994 316.29 87.9755 316.634 88.091C316.981 88.1955 317.419 88.3154 317.946 88.4506L317.662 89.3947C316.47 89.2252 315.637 88.8856 315.164 88.376C314.701 87.8696 314.611 87.1444 314.896 86.2003L316.381 81.2681L314.672 80.7533L314.986 79.7116L316.695 80.2263L317.283 78.273L318.455 78.271L317.769 80.5499L320.113 81.2558L319.799 82.2976Z" fill="white"/>
<path d="M329.275 82.1728C329.072 82.2694 328.864 82.2799 328.65 82.2042C328.437 82.1286 328.282 81.9895 328.185 81.787C328.088 81.5845 328.078 81.3764 328.154 81.1627C328.229 80.949 328.368 80.7939 328.571 80.6972C328.773 80.6006 328.981 80.5901 329.195 80.6658C329.409 80.7414 329.564 80.8805 329.66 81.083C329.757 81.2856 329.768 81.4937 329.692 81.7073C329.616 81.921 329.477 82.0761 329.275 82.1728ZM324.684 91.7284L327.52 83.7157L328.578 84.0901L325.741 92.1028L324.684 91.7284Z" fill="white"/>
<path d="M340.046 88.3011C340.998 88.6978 341.624 89.3024 341.924 90.1149C342.238 90.9213 342.191 91.8162 341.781 92.7996L339.774 97.6171L338.738 97.1855L340.745 92.368C341.037 91.6671 341.076 91.0446 340.86 90.5006C340.656 89.961 340.213 89.5495 339.533 89.2662C338.78 88.9523 338.068 88.9379 337.396 89.223C336.729 89.4976 336.189 90.1318 335.775 91.1257L334.062 95.237L333.026 94.8055L336.295 86.9594L337.331 87.3909L336.821 88.6149C337.799 87.9175 338.874 87.8129 340.046 88.3011Z" fill="white"/>
<path d="M356.995 96.4218L357.998 96.9252L354.337 104.218C353.787 105.312 352.98 105.985 351.916 106.236C350.851 106.488 349.797 106.352 348.754 105.828C346.971 104.933 346.081 103.713 346.083 102.167L347.216 102.108C347.209 103.259 347.885 104.175 349.242 104.856C350.113 105.293 350.913 105.403 351.644 105.187C352.379 104.985 352.942 104.494 353.334 103.715L353.929 102.529C352.671 103.293 351.368 103.336 350.021 102.66C348.937 102.116 348.203 101.266 347.82 100.11C347.447 98.9585 347.54 97.8258 348.099 96.7117C348.659 95.5975 349.511 94.8462 350.657 94.4578C351.814 94.0744 352.934 94.1548 354.017 94.6989C355.364 95.3751 356.108 96.4458 356.247 97.9108L356.995 96.4218ZM348.893 99.792C349.18 100.659 349.744 101.304 350.585 101.726C351.426 102.148 352.279 102.215 353.147 101.928C354.019 101.63 354.666 101.061 355.088 100.22C355.51 99.3794 355.577 98.5255 355.29 97.6583C355.007 96.781 354.446 96.1314 353.605 95.7094C352.765 95.2873 351.908 95.2251 351.036 95.5228C350.169 95.8103 349.524 96.3744 349.102 97.215C348.68 98.0557 348.61 98.9147 348.893 99.792Z" fill="white"/>
<path d="M419.971 155.065C420.802 156.457 420.99 157.902 420.537 159.399C420.1 160.9 419.166 162.078 417.735 162.931C416.304 163.784 414.819 164.05 413.281 163.727C411.758 163.408 410.581 162.553 409.751 161.161L407.4 157.219L417.62 151.123L419.971 155.065ZM410.715 160.586C411.382 161.705 412.327 162.382 413.549 162.617C414.777 162.861 415.975 162.635 417.143 161.938C418.311 161.242 419.079 160.295 419.448 159.099C419.822 157.912 419.675 156.759 419.008 155.64L417.266 152.72L408.973 157.666L410.715 160.586Z" fill="white"/>
<path d="M426.992 175.405L427.484 176.413L419.844 180.139L419.352 179.131L420.85 178.4C419.387 178.244 418.325 177.488 417.664 176.133C417.132 175.043 417.065 173.923 417.462 172.771C417.863 171.629 418.624 170.785 419.745 170.239C420.865 169.693 421.999 169.613 423.146 169.999C424.297 170.396 425.139 171.139 425.671 172.229C426.331 173.584 426.273 174.886 425.495 176.135L426.992 175.405ZM418.507 173.169C418.209 174.033 418.267 174.887 418.679 175.733C419.091 176.578 419.729 177.15 420.593 177.447C421.467 177.74 422.327 177.68 423.172 177.268C424.018 176.855 424.589 176.217 424.887 175.354C425.195 174.485 425.142 173.628 424.73 172.782C424.318 171.937 423.674 171.368 422.8 171.075C421.937 170.778 421.082 170.835 420.237 171.247C419.391 171.66 418.814 172.3 418.507 173.169Z" fill="white"/>
<path d="M432.982 183.997C432.774 183.911 432.628 183.763 432.541 183.554C432.454 183.344 432.454 183.136 432.54 182.929C432.626 182.722 432.774 182.575 432.983 182.488C433.193 182.402 433.401 182.401 433.609 182.487C433.816 182.573 433.963 182.721 434.049 182.931C434.136 183.14 434.136 183.348 434.05 183.556C433.964 183.763 433.816 183.91 433.607 183.996C433.397 184.083 433.189 184.083 432.982 183.997ZM422.806 186.97L430.661 183.724L431.09 184.761L423.234 188.007L422.806 186.97Z" fill="white"/>
<path d="M426.059 195.266L437.727 191.041L438.109 192.096L426.441 196.321L426.059 195.266Z" fill="white"/>
<path d="M438.853 207.095L439.194 208.235L429.259 207.409C428.361 207.334 427.597 207.072 426.965 206.622C426.326 206.186 425.927 205.602 425.767 204.869L426.777 204.567C426.96 205.577 427.747 206.152 429.138 206.292L429.706 206.353L436.808 200.255L437.149 201.395L431.24 206.497L438.853 207.095Z" fill="white"/>
<path d="M441.94 226.552C443.048 226.881 443.715 227.67 443.941 228.919L442.871 229.113C442.733 228.354 442.396 227.765 441.859 227.344C441.322 226.923 440.574 226.799 439.615 226.973L434.965 227.816L434.765 226.712L443.128 225.196L443.328 226.3L441.94 226.552Z" fill="white"/>
<path d="M445.634 240.34C445.778 241.59 445.45 242.649 444.649 243.517C443.86 244.396 442.864 244.904 441.659 245.043C441.535 245.058 441.359 245.067 441.132 245.07L440.275 237.656C439.433 237.868 438.793 238.307 438.357 238.973C437.933 239.65 437.773 240.438 437.877 241.339C437.951 241.981 438.144 242.517 438.457 242.949C438.781 243.391 439.171 243.705 439.627 243.892L439.166 244.938C438.526 244.635 437.995 244.183 437.571 243.582C437.148 242.98 436.889 242.269 436.794 241.447C436.641 240.118 436.933 238.989 437.669 238.06C438.406 237.131 439.417 236.592 440.7 236.444C441.961 236.298 443.061 236.587 444 237.312C444.94 238.036 445.484 239.046 445.634 240.34ZM444.553 240.465C444.451 239.587 444.102 238.88 443.504 238.344C442.918 237.819 442.202 237.548 441.356 237.531L442.084 243.831C442.96 243.615 443.613 243.192 444.042 242.561C444.471 241.929 444.641 241.231 444.553 240.465Z" fill="white"/>
<path d="M446.856 256.433C446.902 257.645 446.512 258.692 445.683 259.574C444.856 260.468 443.819 260.939 442.573 260.986C441.328 261.034 440.258 260.644 439.364 259.816C438.471 259 438.001 257.986 437.954 256.774C437.897 255.268 438.476 254.1 439.691 253.271L434.629 253.465L434.586 252.344L446.477 251.888L446.52 253.009L444.856 253.073C446.131 253.807 446.798 254.927 446.856 256.433ZM439.915 254.232C439.295 254.903 439.002 255.708 439.038 256.648C439.074 257.588 439.428 258.368 440.098 258.989C440.78 259.609 441.59 259.901 442.53 259.865C443.47 259.829 444.251 259.476 444.871 258.806C445.503 258.135 445.801 257.33 445.765 256.39C445.729 255.45 445.371 254.669 444.689 254.049C444.019 253.428 443.214 253.136 442.274 253.172C441.334 253.208 440.548 253.562 439.915 254.232Z" fill="white"/>
<path d="M439.085 275.212C438.271 274.317 437.889 273.247 437.94 272.001C437.991 270.755 438.459 269.714 439.344 268.877C440.24 268.051 441.316 267.664 442.573 267.715C443.83 267.767 444.865 268.24 445.68 269.135C446.505 270.042 446.892 271.119 446.841 272.364C446.79 273.61 446.317 274.645 445.421 275.471C444.536 276.308 443.465 276.701 442.208 276.65C440.951 276.599 439.91 276.119 439.085 275.212ZM440.093 269.707C439.421 270.326 439.066 271.105 439.027 272.045C438.989 272.985 439.279 273.791 439.899 274.463C440.529 275.135 441.314 275.49 442.254 275.529C443.194 275.567 444 275.277 444.672 274.658C445.355 274.039 445.715 273.26 445.754 272.32C445.792 271.38 445.496 270.574 444.866 269.902C444.247 269.23 443.467 268.875 442.527 268.836C441.587 268.798 440.776 269.088 440.093 269.707Z" fill="white"/>
<path d="M444.261 285.762C445.231 286.391 445.647 287.337 445.511 288.599L444.43 288.482C444.512 287.716 444.356 287.055 443.96 286.499C443.564 285.944 442.881 285.613 441.912 285.509L437.213 285.002L437.334 283.886L445.785 284.798L445.664 285.914L444.261 285.762Z" fill="white"/>
<path d="M442.549 300.344L442.95 297.929L437.868 297.086C437.41 297.01 437.065 297.044 436.834 297.19C436.614 297.337 436.469 297.589 436.399 297.945C436.339 298.303 436.276 298.752 436.209 299.292L435.237 299.131C435.253 297.927 435.483 297.058 435.928 296.523C436.371 295.999 437.079 295.817 438.052 295.979L443.133 296.822L443.425 295.061L444.499 295.239L444.206 297L446.219 297.334L446.371 298.496L444.023 298.107L443.622 300.522L442.549 300.344Z" fill="white"/>
<path d="M167.912 431.73L168.254 430.661L171.735 431.776L175.022 421.511L176.155 421.874L172.868 432.139L176.349 433.253L176.007 434.322L167.912 431.73Z" fill="white"/>
<path d="M157.702 424.071C156.56 423.544 155.827 422.712 155.502 421.576C155.163 420.446 155.248 419.33 155.756 418.229C155.808 418.116 155.892 417.961 156.008 417.765L162.783 420.894C163.042 420.064 163 419.29 162.658 418.57C162.301 417.856 161.711 417.309 160.888 416.929C160.302 416.658 159.743 416.544 159.212 416.585C158.665 416.633 158.194 416.802 157.797 417.093L157.145 416.155C157.736 415.767 158.399 415.548 159.132 415.5C159.866 415.452 160.609 415.601 161.36 415.948C162.574 416.509 163.386 417.346 163.795 418.459C164.205 419.572 164.139 420.715 163.598 421.888C163.065 423.04 162.246 423.829 161.138 424.254C160.031 424.678 158.885 424.618 157.702 424.071ZM158.158 423.083C158.961 423.454 159.746 423.523 160.515 423.292C161.269 423.066 161.873 422.595 162.327 421.882L156.57 419.223C156.298 420.083 156.319 420.861 156.635 421.556C156.951 422.251 157.458 422.76 158.158 423.083Z" fill="white"/>
<path d="M147.694 416.101C147.895 415.772 147.909 415.423 147.736 415.052C147.564 414.682 147.302 414.316 146.951 413.956C146.6 413.596 146.257 413.222 145.923 412.833C145.584 412.453 145.363 412.02 145.262 411.534C145.154 411.057 145.251 410.572 145.551 410.078C145.929 409.459 146.482 409.106 147.212 409.019C147.931 408.927 148.678 409.117 149.453 409.588C150.15 410.013 150.651 410.53 150.955 411.141C151.251 411.745 151.345 412.353 151.238 412.965L150.133 412.949C150.227 412.489 150.168 412.041 149.955 411.606C149.727 411.175 149.371 410.812 148.887 410.517C148.412 410.229 147.96 410.079 147.528 410.068C147.091 410.067 146.751 410.265 146.51 410.662C146.309 410.991 146.295 411.341 146.467 411.711C146.64 412.082 146.902 412.447 147.253 412.807C147.604 413.167 147.95 413.537 148.289 413.916C148.623 414.305 148.844 414.738 148.951 415.215C149.053 415.701 148.953 416.192 148.653 416.685C148.293 417.276 147.76 417.628 147.054 417.741C146.338 417.849 145.621 417.685 144.905 417.249C144.315 416.889 143.88 416.438 143.599 415.896C143.313 415.363 143.203 414.805 143.267 414.22L144.348 414.242C144.216 415.091 144.591 415.783 145.471 416.32C145.887 416.573 146.307 416.69 146.731 416.669C147.149 416.659 147.47 416.469 147.694 416.101Z" fill="white"/>
<path d="M132.928 407.395L134.877 408.876L137.992 404.773C138.273 404.403 138.403 404.082 138.382 403.81C138.354 403.547 138.199 403.301 137.917 403.073C137.629 402.854 137.261 402.588 136.814 402.278L137.41 401.492C138.467 402.068 139.129 402.677 139.395 403.32C139.652 403.956 139.482 404.667 138.886 405.452L135.771 409.554L137.192 410.634L136.534 411.5L135.113 410.421L133.879 412.045L132.78 411.638L134.219 409.742L132.27 408.262L132.928 407.395Z" fill="white"/>
<path d="M123.896 403.824C124.12 403.813 124.316 403.883 124.484 404.035C124.653 404.187 124.742 404.375 124.753 404.6C124.765 404.824 124.694 405.02 124.542 405.188C124.39 405.356 124.202 405.446 123.978 405.457C123.754 405.468 123.558 405.398 123.39 405.246C123.222 405.094 123.132 404.905 123.121 404.681C123.109 404.457 123.18 404.261 123.332 404.093C123.484 403.925 123.672 403.835 123.896 403.824ZM131.812 396.772L126.109 403.075L125.277 402.323L130.98 396.019L131.812 396.772Z" fill="white"/>
<path d="M116.303 393.62C115.609 392.856 115.299 392.043 115.373 391.18C115.431 390.316 115.854 389.526 116.643 388.81L120.506 385.302L121.261 386.132L117.397 389.641C116.835 390.151 116.536 390.699 116.499 391.283C116.456 391.858 116.681 392.419 117.177 392.964C117.725 393.568 118.364 393.884 119.093 393.911C119.813 393.945 120.572 393.601 121.369 392.877L124.666 389.883L125.421 390.714L119.128 396.428L118.374 395.597L119.355 394.706C118.174 394.921 117.156 394.56 116.303 393.62Z" fill="white"/>
<path d="M104.668 378.401L104.024 377.482L110.711 372.804C111.714 372.103 112.743 371.894 113.8 372.179C114.856 372.463 115.719 373.083 116.388 374.04C117.532 375.674 117.735 377.171 116.999 378.53L115.974 378.044C116.526 377.035 116.367 375.908 115.497 374.664C114.938 373.865 114.286 373.388 113.541 373.231C112.798 373.059 112.069 373.223 111.354 373.724L110.267 374.484C111.737 374.41 112.904 374.991 113.768 376.226C114.463 377.219 114.705 378.316 114.493 379.515C114.274 380.706 113.654 381.658 112.633 382.373C111.611 383.087 110.504 383.343 109.311 383.141C108.111 382.928 107.164 382.326 106.469 381.332C105.605 380.097 105.459 378.802 106.033 377.446L104.668 378.401ZM113.398 379.285C113.557 378.386 113.367 377.55 112.828 376.78C112.289 376.009 111.569 375.544 110.67 375.385C109.761 375.232 108.921 375.426 108.15 375.965C107.379 376.504 106.914 377.224 106.755 378.123C106.587 379.029 106.772 379.868 107.312 380.639C107.851 381.409 108.575 381.871 109.484 382.024C110.384 382.183 111.219 381.993 111.99 381.453C112.76 380.914 113.23 380.191 113.398 379.285Z" fill="white"/>
<path d="M61.4949 250.984C61.6606 249.372 62.3722 248.101 63.6299 247.17C64.8775 246.228 66.3299 245.842 67.9872 246.012C69.6445 246.182 70.9936 246.856 72.0347 248.034C73.0656 249.2 73.4982 250.589 73.3325 252.201L72.8633 256.767L61.0257 255.55L61.4949 250.984ZM72.2164 252.086C72.3497 250.79 71.9963 249.682 71.1564 248.764C70.3177 247.835 69.2219 247.301 67.869 247.162C66.5162 247.023 65.3346 247.323 64.3244 248.062C63.3154 248.79 62.7442 249.802 62.611 251.099L62.2634 254.481L71.8688 255.468L72.2164 252.086Z" fill="white"/>
<path d="M67.1436 233.804C67.3685 232.566 67.9903 231.648 69.009 231.05C70.0186 230.438 71.1199 230.241 72.313 230.458C72.4357 230.48 72.6065 230.523 72.8255 230.586L71.4912 237.928C72.3589 237.971 73.0984 237.737 73.7096 237.226C74.3116 236.701 74.6937 235.993 74.8558 235.101C74.9713 234.466 74.9424 233.896 74.769 233.392C74.5865 232.875 74.3046 232.461 73.9234 232.15L74.6684 231.283C75.1925 231.759 75.5697 232.346 75.7999 233.044C76.03 233.742 76.0712 234.499 75.9233 235.313C75.6842 236.628 75.0771 237.624 74.102 238.299C73.1269 238.974 72.0037 239.196 70.7326 238.965C69.4837 238.738 68.515 238.142 67.8266 237.176C67.1383 236.21 66.9106 235.086 67.1436 233.804ZM68.2141 233.998C68.056 234.868 68.1853 235.646 68.602 236.332C69.0096 237.005 69.6158 237.472 70.4207 237.734L71.5544 231.495C70.6532 231.446 69.9057 231.662 69.3117 232.141C68.7177 232.621 68.3518 233.24 68.2141 233.998Z" fill="white"/>
<path d="M70.6111 218.069C70.914 216.895 71.5886 216.004 72.6349 215.396C73.684 214.777 74.8122 214.623 76.0193 214.934C77.2265 215.246 78.1396 215.926 78.7585 216.975C79.3803 218.013 79.5397 219.119 79.2369 220.294C78.8604 221.753 77.971 222.706 76.5685 223.152L81.474 224.417L81.1938 225.503L69.6709 222.532L69.9511 221.445L71.5643 221.861C70.5524 220.793 70.2347 219.529 70.6111 218.069ZM76.6294 222.167C77.4163 221.703 77.9272 221.015 78.1621 220.104C78.397 219.193 78.2824 218.344 77.8182 217.558C77.343 216.768 76.65 216.256 75.7391 216.021C74.8283 215.786 73.9794 215.9 73.1926 216.365C72.3947 216.826 71.8783 217.512 71.6434 218.423C71.4085 219.334 71.5286 220.184 72.0038 220.974C72.468 221.761 73.1555 222.272 74.0664 222.506C74.9773 222.741 75.8316 222.628 76.6294 222.167Z" fill="white"/>
<path d="M82.1718 209.359L70.3571 205.561L70.7005 204.493L82.5151 208.291L82.1718 209.359Z" fill="white"/>
<path d="M86.5699 193.906C87.0513 195.017 87.0669 196.153 86.6165 197.315C86.1662 198.478 85.3871 199.313 84.2793 199.819C83.1649 200.311 82.0213 200.33 80.8482 199.876C79.6752 199.421 78.8479 198.639 78.3664 197.529C77.8785 196.404 77.8597 195.26 78.3101 194.098C78.7604 192.935 79.5427 192.108 80.6571 191.616C81.7649 191.109 82.9053 191.083 84.0784 191.537C85.2514 191.992 86.0819 192.782 86.5699 193.906ZM83.8387 198.792C84.6744 198.423 85.2622 197.8 85.602 196.922C85.9418 196.045 85.9272 195.189 85.5582 194.353C85.1786 193.513 84.5502 192.923 83.6731 192.584C82.7959 192.244 81.9395 192.258 81.1038 192.627C80.2575 192.992 79.6644 193.613 79.3246 194.491C78.9848 195.368 79.0047 196.226 79.3843 197.066C79.7533 197.902 80.3764 198.49 81.2535 198.829C82.1307 199.169 82.9924 199.157 83.8387 198.792Z" fill="white"/>
<path d="M85.9082 177.098L86.415 176.022L93.264 183.266C93.8828 183.92 94.2773 184.626 94.4474 185.382C94.6325 186.133 94.5402 186.835 94.1703 187.488L93.2167 187.039C93.7536 186.164 93.551 185.211 92.6088 184.179L92.2261 183.754L82.8676 183.558L83.3744 182.482L91.1802 182.623L85.9082 177.098Z" fill="white"/>
<path d="M93.9845 161.615C94.4572 160.788 95.1027 160.276 95.9209 160.078C96.7447 159.871 97.6092 160.026 98.5142 160.543L103.118 163.177L102.561 164.151L97.9571 161.517C97.3177 161.152 96.7302 161.038 96.1945 161.175C95.6547 161.297 95.23 161.629 94.9205 162.17C94.5716 162.78 94.494 163.395 94.6877 164.015C94.8772 164.619 95.4048 165.169 96.2705 165.664L100.358 168.002L99.8009 168.976L95.1969 166.343C94.5477 165.971 93.9608 165.845 93.4364 165.962C92.9177 166.07 92.5064 166.39 92.2025 166.921C91.8648 167.512 91.7844 168.131 91.9613 168.781C92.1381 169.43 92.6544 170 93.5103 170.49L97.5978 172.828L97.0407 173.802L89.6625 169.581L90.2197 168.607L91.2969 169.223C90.7645 168.214 90.7769 167.222 91.334 166.248C91.9418 165.186 92.8171 164.694 93.9599 164.773C93.3686 163.73 93.3768 162.677 93.9845 161.615Z" fill="white"/>
<path d="M102.279 148.624C102.991 147.586 103.934 147.004 105.109 146.875C106.28 146.731 107.366 147.002 108.365 147.688C108.468 147.758 108.607 147.867 108.781 148.014L104.557 154.167C105.331 154.561 106.101 154.65 106.868 154.434C107.632 154.202 108.271 153.713 108.784 152.965C109.15 152.433 109.356 151.901 109.404 151.371C109.45 150.824 109.362 150.331 109.142 149.891L110.176 149.405C110.46 150.054 110.564 150.744 110.488 151.475C110.412 152.206 110.14 152.913 109.671 153.595C108.914 154.698 107.953 155.357 106.787 155.574C105.621 155.791 104.505 155.534 103.44 154.802C102.393 154.084 101.754 153.143 101.521 151.98C101.289 150.817 101.542 149.698 102.279 148.624ZM103.176 149.239C102.676 149.968 102.475 150.731 102.574 151.528C102.671 152.308 103.032 152.983 103.66 153.551L107.249 148.323C106.446 147.91 105.676 147.801 104.938 147.995C104.2 148.189 103.612 148.604 103.176 149.239Z" fill="white"/>
<path d="M111.515 136.152C112.157 135.345 112.91 134.908 113.773 134.842C114.635 134.76 115.483 135.051 116.317 135.714L120.401 138.963L119.703 139.841L115.618 136.592C115.024 136.119 114.436 135.912 113.853 135.97C113.278 136.02 112.762 136.333 112.303 136.909C111.795 137.548 111.586 138.229 111.677 138.953C111.758 139.669 112.221 140.363 113.063 141.033L116.549 143.806L115.851 144.684L109.198 139.392L109.897 138.514L110.934 139.34C110.531 138.208 110.725 137.146 111.515 136.152Z" fill="white"/>
<path d="M122.848 124.906L121.206 126.722L125.026 130.177C125.371 130.488 125.68 130.646 125.952 130.648C126.217 130.643 126.475 130.509 126.727 130.248C126.97 129.979 127.266 129.635 127.614 129.216L128.345 129.878C127.681 130.882 127.018 131.489 126.354 131.699C125.698 131.9 125.005 131.67 124.274 131.009L120.453 127.554L119.256 128.878L118.449 128.148L119.646 126.824L118.133 125.456L118.634 124.396L120.399 125.992L122.041 124.176L122.848 124.906Z" fill="white"/>
<path d="M384.864 403.786C383.784 404.994 382.462 405.606 380.897 405.621C379.334 405.653 377.931 405.113 376.689 404.003C375.447 402.892 374.75 401.555 374.599 399.99C374.448 398.441 374.912 397.063 375.993 395.855L379.052 392.433L387.923 400.364L384.864 403.786ZM376.829 396.602C375.96 397.574 375.597 398.678 375.738 399.914C375.872 401.159 376.446 402.234 377.46 403.141C378.474 404.047 379.606 404.498 380.858 404.492C382.102 404.494 383.159 404.01 384.028 403.038L386.294 400.504L379.095 394.068L376.829 396.602Z" fill="white"/>
<path d="M369.338 414.253C368.362 415.047 367.293 415.341 366.13 415.133C364.965 414.941 364 414.375 363.235 413.435C363.156 413.338 363.054 413.194 362.928 413.004L368.716 408.293C368.084 407.696 367.37 407.393 366.573 407.384C365.775 407.391 365.024 407.681 364.321 408.253C363.82 408.661 363.472 409.113 363.276 409.608C363.079 410.12 363.024 410.618 363.111 411.102L361.981 411.276C361.892 410.574 361.987 409.883 362.266 409.203C362.545 408.522 363.006 407.921 363.647 407.399C364.685 406.554 365.793 406.193 366.973 406.314C368.153 406.434 369.151 406.996 369.966 407.998C370.768 408.982 371.116 410.065 371.011 411.247C370.906 412.428 370.348 413.43 369.338 414.253ZM368.651 413.409C369.336 412.851 369.744 412.176 369.873 411.384C370.001 410.607 369.844 409.858 369.403 409.136L364.485 413.14C365.138 413.763 365.846 414.085 366.61 414.107C367.373 414.128 368.053 413.896 368.651 413.409Z" fill="white"/>
<path d="M351.678 426.032C350.85 426.501 350.034 426.612 349.229 426.365C348.415 426.123 347.75 425.549 347.236 424.642L344.62 420.028L345.596 419.474L348.212 424.089C348.575 424.729 349.023 425.127 349.553 425.282C350.08 425.453 350.614 425.384 351.157 425.077C351.768 424.73 352.148 424.241 352.298 423.609C352.444 422.992 352.27 422.25 351.779 421.383L349.456 417.286L350.432 416.733L353.048 421.347C353.417 421.998 353.857 422.406 354.368 422.572C354.869 422.744 355.386 422.679 355.919 422.377C356.51 422.042 356.896 421.55 357.075 420.901C357.254 420.252 357.101 419.499 356.614 418.641L354.292 414.545L355.268 413.991L359.46 421.385L358.484 421.939L357.872 420.859C357.815 421.999 357.298 422.846 356.322 423.399C355.257 424.003 354.254 423.979 353.311 423.328C353.288 424.527 352.743 425.428 351.678 426.032Z" fill="white"/>
<path d="M331.459 426.403C331.984 425.313 332.833 424.558 334.007 424.138C335.181 423.718 336.322 423.762 337.429 424.268C338.531 424.789 339.293 425.642 339.716 426.827C340.14 428.011 340.089 429.149 339.565 430.239C339.033 431.344 338.18 432.106 337.006 432.526C335.832 432.946 334.695 432.895 333.594 432.374C332.486 431.868 331.72 431.022 331.297 429.837C330.873 428.653 330.927 427.508 331.459 426.403ZM336.94 425.274C336.115 424.883 335.259 424.846 334.373 425.163C333.487 425.479 332.849 426.051 332.458 426.876C332.071 427.713 332.036 428.574 332.353 429.46C332.67 430.345 333.241 430.984 334.067 431.374C334.896 431.776 335.754 431.818 336.64 431.502C337.526 431.185 338.162 430.608 338.549 429.772C338.94 428.946 338.977 428.09 338.66 427.204C338.343 426.319 337.77 425.675 336.94 425.274Z" fill="white"/>
</svg>
