<svg width="38" height="28" viewBox="0 0 38 28" fill="none" xmlns="http://www.w3.org/2000/svg">
<g clip-path="url(#clip0_206_1942)">
<path d="M9.42432 0H29.2376V28H9.42438L9.42432 0Z" fill="white"/>
<path d="M-0.479492 0H9.4244V28H-0.479492V0ZM29.2377 0H39.1416V28H29.2432L29.2377 0ZM12.394 13.5297L11.6174 13.7922L15.1994 16.9367C15.4729 17.7406 15.1065 17.9758 14.8713 18.4024L18.7541 17.9101L18.6611 21.8203L19.4705 21.7984L19.29 17.9156L23.1838 18.3805C22.9432 17.8719 22.7299 17.6039 22.9486 16.7945L26.5252 13.814L25.9018 13.5844C25.3877 13.1906 26.1205 11.6867 26.2299 10.7351C26.2299 10.7351 24.1463 11.4515 24.0095 11.0742L23.4736 10.0516L21.576 12.1406C21.3682 12.1899 21.2807 12.1078 21.2315 11.9328L22.1065 7.56875L20.7174 8.35077C20.6025 8.40548 20.4877 8.36173 20.4111 8.225L19.0713 5.54528L17.6932 8.32895C17.5893 8.42736 17.4854 8.43827 17.3979 8.3727L16.0744 7.62895L16.8729 11.9547C16.8072 12.1297 16.6541 12.1734 16.4791 12.0805L14.658 10.0188C14.4229 10.4016 14.2643 11.0195 13.9471 11.1617C13.6354 11.293 12.5799 10.8992 11.8744 10.7461C12.115 11.6156 12.8697 13.0594 12.394 13.5351V13.5297Z" fill="#D52B1E"/>
</g>
<defs>
<clipPath id="clip0_206_1942">
<rect x="0.666748" width="37.3333" height="28" rx="3" fill="white"/>
</clipPath>
</defs>
</svg>
