<svg width="38" height="28" viewBox="0 0 38 28" fill="none" xmlns="http://www.w3.org/2000/svg">
<g clip-path="url(#clip0_206_1935)">
<path fill-rule="evenodd" clip-rule="evenodd" d="M0.333496 0H53.5335V2.15472H0.333496V0ZM0.333496 4.30937H53.5335V6.46409H0.333496V4.30937ZM0.333496 8.61327H53.5335V10.7734H0.333496V8.61327ZM0.333496 12.9226H53.5335V15.0774H0.333496V12.9226ZM0.333496 17.232H53.5335V19.3867H0.333496V17.232ZM0.333496 21.5359H53.5335V23.6906H0.333496V21.5359ZM0.333496 25.8453H53.5335V28H0.333496V25.8453Z" fill="#BD3D44"/>
<path fill-rule="evenodd" clip-rule="evenodd" d="M0.333496 2.15479H53.5335V4.30944H0.333496V2.15479ZM0.333496 6.4641H53.5335V8.61334H0.333496V6.4641ZM0.333496 10.7681H53.5335V12.9227H0.333496V10.7681ZM0.333496 15.0774H53.5335V17.2321H0.333496V15.0774ZM0.333496 19.3868H53.5335V21.5415H0.333496V19.3868ZM0.333496 23.6907H53.5335V25.8454H0.333496V23.6907Z" fill="white"/>
<path fill-rule="evenodd" clip-rule="evenodd" d="M0.333496 0H21.6124V15.0774H0.333496V0Z" fill="#192F5D"/>
<path fill-rule="evenodd" clip-rule="evenodd" d="M2.10544 0.645264L2.30231 1.24126H2.92578L2.4226 1.60771L2.61405 2.20924L2.10544 1.83736L1.60231 2.20376L1.79371 1.60771L1.28516 1.24126H1.91953L2.10544 0.645264ZM5.65467 0.645264L5.84606 1.24126H6.47496L5.96635 1.60771L6.1578 2.20924L5.65467 1.83736L5.14606 2.20376L5.33746 1.60771L4.83433 1.24126H5.4578L5.65467 0.645264ZM9.19842 0.645264L9.3953 1.24131H10.0133L9.51016 1.60776L9.70149 2.2093L9.19294 1.83742L8.68981 2.20381L8.88121 1.60776L8.3726 1.24131H9.00155L9.19842 0.645264ZM12.7477 0.645264L12.939 1.24131H13.5679L13.0593 1.60776L13.2562 2.2093L12.7476 1.83742L12.239 2.20381L12.4359 1.60776L11.9273 1.24131H12.5508L12.7477 0.645264ZM16.2914 0.645264L16.4883 1.24131H17.1117L16.6086 1.60776L16.8 2.2093L16.2913 1.83742L15.7882 2.20381L15.9797 1.60776L15.4765 1.24131H16.1L16.2914 0.645264ZM19.8406 0.645264L20.032 1.24131H20.6609L20.1523 1.60776L20.3492 2.2093L19.8406 1.83742L19.332 2.20381L19.5288 1.60776L19.0203 1.24131H19.6492L19.8406 0.645264ZM3.8828 2.15452L4.07419 2.75069H4.70308L4.19447 3.11702L4.38044 3.71319L3.88822 3.34674L3.37967 3.71313L3.5601 3.11708L3.06794 2.75063H3.69141L3.8828 2.15452ZM7.42655 2.15452L7.62342 2.75069H8.24683L7.73822 3.11702L7.93516 3.71319L7.42649 3.34674L6.91794 3.71313L7.11481 3.11708L6.60621 2.75063H7.2351L7.42655 2.15452ZM10.9758 2.15452L11.1671 2.75069H11.7961L11.2875 3.11702L11.4788 3.71319L10.9757 3.34674L10.4672 3.71313L10.6586 3.11714L10.1554 2.75069H10.7789L10.9758 2.15452ZM14.5195 2.15452L14.7164 2.75069H15.3398L14.8312 3.11702L15.0281 3.71319L14.5195 3.34674L14.0163 3.71313L14.2078 3.11708L13.6992 2.75063H14.3336L14.5195 2.15452ZM18.0687 2.15452L18.2601 2.75069H18.889L18.3804 3.11702L18.5718 3.71319L18.0687 3.34674L17.5601 3.71313L17.7515 3.11708L17.2484 2.75063H17.8718L18.0687 2.15452ZM2.10544 3.65859L2.30231 4.2656H2.92578L2.4226 4.632L2.61405 5.2281L2.10544 4.85623L1.60231 5.2281L1.79371 4.62651L1.28516 4.26018H1.91953L2.10544 3.65859ZM5.65467 3.65859L5.84606 4.26H6.47496L5.96635 4.6264L6.1578 5.22256L5.65467 4.85063L5.14606 5.2225L5.33746 4.62097L4.83433 4.25458H5.4578L5.65467 3.65859ZM9.19842 3.65859L9.3953 4.26012H10.0133L9.51016 4.62651L9.70149 5.22268L9.19294 4.85075L8.68981 5.22262L8.88121 4.62109L8.3726 4.2547H9.00155L9.19842 3.65859ZM12.7477 3.65859L12.939 4.26012H13.5679L13.0593 4.62651L13.2562 5.22268L12.7476 4.85075L12.239 5.22262L12.4359 4.62109L11.9273 4.2547H12.5508L12.7477 3.65859ZM16.2914 3.65859L16.4883 4.26012H17.1117L16.6086 4.62645L16.8 5.22262L16.2913 4.85069L15.7882 5.22256L15.9797 4.62103L15.4765 4.25464H16.1L16.2914 3.65859ZM19.8406 3.65859L20.032 4.26012H20.6609L20.1523 4.62651L20.3492 5.22268L19.8406 4.85075L19.332 5.22262L19.5288 4.62109L19.0203 4.2547H19.6492L19.8406 3.65859ZM3.8828 5.1679L4.07419 5.76401H4.70308L4.19447 6.13035L4.38592 6.73194L3.8828 6.36006L3.37419 6.72645L3.56558 6.1304L3.06246 5.76401H3.68598L3.8828 5.1679ZM7.42655 5.1679L7.62342 5.76401H8.24683L7.73822 6.13035L7.93516 6.73194L7.42649 6.36006L6.91794 6.72645L7.11481 6.1304L6.60621 5.76401H7.2351L7.42655 5.1679ZM10.9758 5.1679L11.1671 5.76401H11.7961L11.2875 6.13035L11.4788 6.73194L10.9757 6.36006L10.4672 6.72645L10.6586 6.1304L10.1554 5.76401H10.7789L10.9758 5.1679ZM14.5195 5.1679L14.7164 5.76401H15.3398L14.8367 6.13035L15.0281 6.73194L14.5195 6.36006L14.0163 6.72645L14.2078 6.1304L13.6992 5.76401H14.3336L14.5195 5.1679ZM18.0687 5.1679L18.2601 5.76401H18.889L18.3804 6.13035L18.5718 6.73194L18.0687 6.36006L17.5601 6.72645L17.7515 6.1304L17.2484 5.76401H17.8718L18.0687 5.1679ZM2.10544 6.67728L2.30231 7.27339H2.92578L2.4226 7.63972L2.61405 8.24131L2.10544 7.86944L1.60231 8.23583L1.79371 7.63978L1.28516 7.27339H1.91953L2.10544 6.67728ZM5.65467 6.67728L5.84606 7.27339H6.47496L5.96635 7.63972L6.1578 8.23589L5.65467 7.86944L5.14606 8.23583L5.33746 7.63978L4.83433 7.27339H5.4578L5.65467 6.67728ZM9.19842 6.67728L9.3953 7.27339H10.0133L9.51016 7.63972L9.70149 8.24131L9.19294 7.86944L8.68981 8.23583L8.88121 7.63978L8.3726 7.27339H9.00155L9.19842 6.67728ZM12.7477 6.67728L12.939 7.27339H13.5679L13.0593 7.63972L13.2562 8.24131L12.7476 7.86944L12.239 8.23583L12.4359 7.63978L11.9273 7.27339H12.5508L12.7477 6.67728ZM16.2914 6.67728L16.4883 7.27339H17.1117L16.6086 7.63972L16.8 8.24131L16.2913 7.86944L15.7882 8.23583L15.9797 7.63978L15.4765 7.27339H16.1L16.2914 6.67728ZM19.8406 6.67728L20.032 7.27339H20.6609L20.1523 7.63972L20.3492 8.24131L19.8406 7.86944L19.332 8.23583L19.5288 7.63978L19.0203 7.27339H19.6492L19.8406 6.67728ZM3.8828 8.18665L4.07419 8.78276H4.70308L4.19447 9.1491L4.38592 9.74526L3.8828 9.37339L3.37419 9.74526L3.56558 9.14367L3.06246 8.77728H3.68598L3.8828 8.18665ZM7.42655 8.18665L7.62342 8.78276H8.24683L7.73822 9.1491L7.93516 9.74526L7.42649 9.37339L6.91794 9.74526L7.11481 9.14367L6.60621 8.77728H7.2351L7.42655 8.18665ZM10.9758 8.18665L11.1671 8.78276H11.7961L11.2875 9.1491L11.4788 9.74526L10.9757 9.37339L10.4672 9.74526L10.6586 9.14367L10.1554 8.77728H10.7789L10.9758 8.18665ZM14.5195 8.18665L14.7164 8.78276H15.3398L14.8367 9.1491L15.0281 9.74526L14.5195 9.37339L14.0163 9.74526L14.2078 9.14367L13.6992 8.77728H14.3336L14.5195 8.18665ZM18.0687 8.18665L18.2601 8.78276H18.889L18.3804 9.1491L18.5718 9.74526L18.0687 9.37339L17.5601 9.74526L17.7515 9.14367L17.2484 8.77728H17.8718L18.0687 8.18665ZM2.10544 9.69055L2.30231 10.2921H2.92578L2.4226 10.6585L2.61405 11.2492L2.10544 10.8828L1.60231 11.2491L1.79371 10.653L1.28516 10.2867H1.91953L2.10544 9.69055ZM5.65467 9.69055L5.84606 10.2921H6.47496L5.96635 10.6585L6.16328 11.2492L5.65461 10.8828L5.14606 11.2491L5.34294 10.653L4.83433 10.2867H5.4578L5.65467 9.69055ZM9.19842 9.69055L9.3953 10.2921H10.0133L9.51016 10.6585L9.70149 11.2492L9.19294 10.8828L8.68981 11.2491L8.88121 10.653L8.3726 10.2867H9.00155L9.19842 9.69055ZM12.7477 9.69055L12.939 10.2921H13.5679L13.0593 10.6585L13.2562 11.2492L12.7476 10.8828L12.239 11.2491L12.4359 10.653L11.9273 10.2867H12.5508L12.7477 9.69055ZM16.2914 9.69055L16.4883 10.2921H17.1117L16.6086 10.6585L16.8 11.2492L16.2913 10.8828L15.7882 11.2491L15.9797 10.653L15.4765 10.2867H16.1L16.2914 9.69055ZM19.8406 9.69055L20.032 10.2921H20.6609L20.1523 10.6585L20.3492 11.2492L19.8406 10.8828L19.332 11.2491L19.5288 10.653L19.0203 10.2867H19.6492L19.8406 9.69055ZM3.8828 11.1999L4.07419 11.796H4.70308L4.19447 12.1624L4.38592 12.764L3.8828 12.3921L3.37419 12.7585L3.56558 12.1624L3.06246 11.796H3.68598L3.8828 11.1999ZM7.42655 11.1999L7.62342 11.796H8.24683L7.73822 12.1624L7.93516 12.764L7.42649 12.3921L6.91794 12.7585L7.11481 12.1624L6.60621 11.796H7.2351L7.42655 11.1999ZM10.9758 11.1999L11.1671 11.796H11.7961L11.2875 12.1624L11.4788 12.764L10.9757 12.3921L10.4672 12.7585L10.6586 12.1624L10.1554 11.796H10.7789L10.9758 11.1999ZM14.5195 11.1999L14.7164 11.796H15.3398L14.8367 12.1624L15.0281 12.764L14.5195 12.3921L14.0163 12.7585L14.2078 12.1624L13.6992 11.796H14.3336L14.5195 11.1999ZM18.0687 11.1999L18.2601 11.796H18.889L18.3804 12.1624L18.5718 12.764L18.0687 12.3921L17.5601 12.7585L17.7515 12.1624L17.2484 11.796H17.8718L18.0687 11.1999ZM2.10544 12.7093L2.30231 13.3054H2.92578L2.4226 13.6718L2.61405 14.2679L2.10544 13.9015L1.60231 14.2678L1.79371 13.6663L1.28516 13.2999H1.91953L2.10544 12.7093ZM5.65467 12.7093L5.84606 13.3054H6.47496L5.96635 13.6718L6.16328 14.2679L5.65461 13.9015L5.14606 14.2678L5.34294 13.6663L4.83433 13.2999H5.4578L5.65467 12.7093ZM9.19842 12.7093L9.3953 13.3054H10.0133L9.52106 13.6718L9.71246 14.2679L9.20385 13.9015L8.70072 14.2678L8.89217 13.6663L8.38356 13.2999H9.01246L9.19842 12.7093ZM12.7477 12.7093L12.939 13.3054H13.5679L13.0593 13.6718L13.2562 14.2679L12.7476 13.9015L12.239 14.2678L12.4359 13.6663L11.9273 13.2999H12.5508L12.7477 12.7093ZM16.2914 12.7093L16.4883 13.3054H17.1117L16.6086 13.6718L16.8 14.2679L16.2913 13.9015L15.7882 14.2678L15.9797 13.6663L15.4765 13.2999H16.1L16.2914 12.7093ZM19.8406 12.7093L20.032 13.3054H20.6609L20.1523 13.6718L20.3492 14.2679L19.8406 13.9015L19.332 14.2678L19.5288 13.6663L19.0203 13.2999H19.6492L19.8406 12.7093Z" fill="white"/>
</g>
<defs>
<clipPath id="clip0_206_1935">
<rect x="0.333496" width="37.3333" height="28" rx="3" fill="white"/>
</clipPath>
</defs>
</svg>
