<svg width="148" height="50" viewBox="0 0 148 50" fill="none" xmlns="http://www.w3.org/2000/svg">
<circle cx="34.5505" cy="25.5618" r="11.5169" fill="white"/>
<path d="M2.24707 14.6067L12.9543 14.591C15.1584 14.591 16.8368 14.9348 17.9894 15.6224C19.9508 16.7753 20.9316 18.5247 20.9316 20.8708C20.9316 22.0842 20.6283 23.1663 20.0216 24.1168C19.415 25.0674 18.596 25.755 17.5647 26.1798C18.4747 26.4225 19.2026 26.9685 19.7486 27.818C20.1126 28.3842 20.3553 28.9708 20.4766 29.5775C20.6181 30.164 20.7799 31.509 20.9619 33.6123C21.1035 34.9472 21.2854 35.7764 21.5079 36.1L21.6899 36.3123H15.8965C15.7145 35.8876 15.5021 34.3708 15.2595 31.7618C15.0977 30.4472 14.7337 29.5371 14.1675 29.0314C13.6013 28.5056 12.6813 28.2427 11.4073 28.2427H7.91915V36.3123H2.24707V14.6067ZM7.91915 19.0505V24.1775H11.923C14.208 24.1775 15.3505 23.3078 15.3505 21.5685C15.3505 19.8899 14.1878 19.0505 11.8623 19.0505H7.91915Z" fill="white"/>
<path d="M68.5033 27.8483C68.3617 30.1135 67.5832 32.0651 66.1677 33.7033C64.368 35.8067 61.7999 36.8584 58.4634 36.8584C54.9044 36.8584 52.1442 35.6247 50.1827 33.1573C48.5044 31.0741 47.6652 28.4955 47.6652 25.4213C47.6652 22.246 48.6257 19.5764 50.5467 17.4123C52.5486 15.1674 55.2482 14.0449 58.6454 14.0449C61.4763 14.0449 63.8321 14.9247 65.7127 16.6842C67.3304 18.2011 68.21 20.0618 68.3516 22.2663H62.8312C62.6087 21.2753 62.265 20.5269 61.7999 20.0213C61.0113 19.1517 59.9294 18.7168 58.5544 18.7168C56.8558 18.7168 55.5414 19.3944 54.6112 20.7494C53.8226 21.9427 53.4283 23.5101 53.4283 25.4517C53.4283 27.6966 53.9338 29.4157 54.9449 30.609C55.8346 31.6607 57.0175 32.1865 58.4937 32.1865C60.0103 32.1865 61.1629 31.6303 61.9515 30.518C62.3762 29.9112 62.6694 29.0213 62.8312 27.8483H68.5033Z" fill="white"/>
<path d="M91.1338 14.591L83.0655 23.1157L92.1347 36.3123H85.0977L79.2436 27.2112L76.9081 29.6078V36.3123H71.236V14.591H76.9081V22.5483L84.1271 14.591H91.1338Z" fill="white"/>
<circle cx="34.5505" cy="25.5617" r="6.46067" fill="#1F1D1D"/>
<circle cx="34.5506" cy="25.5618" r="2.52809" fill="#FFBB00"/>
<circle cx="122.191" cy="25" r="25" fill="#FFBB00"/>
<path d="M116.102 14.7954V36.5168H110.429V14.7954H116.102Z" fill="#1F1D1D"/>
<path d="M137.197 14.7954C137.197 17.4929 135.011 19.6797 132.313 19.6797H130.705V36.5168H125.063V19.6797H118.601V14.7954H137.197Z" fill="#1F1D1D"/>
<path d="M0 14.6067H5.61798V19.0725H4.46585C1.99943 19.0725 0 17.0731 0 14.6067Z" fill="white"/>
</svg>
